{
.appVersion = "1246";
DisplayStrings = (
"OHambourgefonts/idotless iv\012saint"
);
classes = (
{
automatic = 1;

glyphs = (
{
color = 1;
glyphname = A;
lastChange = "2019-08-05 14:22:11 +0000";
layers = (
{
anchors = (
{
name = bottom;
position = "{338, 0}";
},
{
name = ogonek;
position = "{661, 0}";
},
{
name = top;
position = "{399, 705}";
}
);
background = {
anchors = (
{
name = bottom;
position = "{338, 0}";
},
{
name = ogonek;
position = "{661, 0}";
},
{
name = top;
position = "{399, 705}";
}
);
paths = (
{
closed = 1;
nodes = (
"60 0 LINE",
"166 204 LINE",
"137 195 LINE",
"573 195 LINE",
"546 204 LINE",
"615 0 LINE",
"659 0 LINE",
"418 705 LINE",
"378 705 LINE",
"13 0 LINE"
);
},
{
closed = 1;
nodes = (
"410 680 LINE",
"383 680 LINE",
"537 228 LINE",
"559 234 LINE",
"157 234 LINE",
"178 228 LINE"
);
}
);
};
layerId = "F1F93986-3ED8-4AAE-84C4-CA3EEECDDFA0";
paths = (
{
closed = 1;
nodes = (
"60 0 LINE",
"166 204 LINE",
"137 195 LINE",
"573 195 LINE",
"546 204 LINE",
"615 0 LINE",
"659 0 LINE",
"418 705 LINE",
"378 705 LINE",
"13 0 LINE"
);
},
{
closed = 1;
nodes = (
"410 680 LINE",
"383 680 LINE",
"537 228 LINE",
"559 234 LINE",
"157 234 LINE",
"178 228 LINE"
);
}
);
width = 716;
},
{
anchors = (
{
name = bottom;
position = "{365, 0}";
},
{
name = ogonek;
position = "{700, 0}";
},
{
name = top;
position = "{425, 705}";
}
);
background = {
anchors = (
{
name = bottom;
position = "{365, 0}";
},
{
name = ogonek;
position = "{700, 0}";
},
{
name = top;
position = "{425, 705}";
}
);
paths = (
{
closed = 1;
nodes = (
"162 0 LINE",
"260 191 LINE",
"173 131 LINE",
"580 131 LINE",
"507 191 LINE",
"574 0 LINE",
"783 0 LINE",
"510 705 LINE",
"341 705 LINE",
"-56 0 LINE"
);
},
{
closed = 1;
nodes = (
"432 530 LINE",
"396 530 LINE",
"492 238 LINE",
"528 295 LINE",
"260 295 LINE",
"285 238 LINE"
);
}
);
};
layerId = "4121B50C-FD42-45C5-8FBE-41E76D98F91E";
paths = (
{
closed = 1;
nodes = (
"162 0 LINE",
"260 191 LINE",
"173 131 LINE",
"580 131 LINE",
"507 191 LINE",
"574 0 LINE",
"783 0 LINE",
"510 705 LINE",
"341 705 LINE",
"-56 0 LINE"
);
},
{
closed = 1;
nodes = (
"432 530 LINE",
"396 530 LINE",
"492 238 LINE",
"528 295 LINE",
"260 295 LINE",
"285 238 LINE"
);
}
);
width = 773;
},
{
anchors = (
{
name = bottom;
position = "{362, 0}";
},
{
name = ogonek;
position = "{695, 0}";
},
{
name = top;
position = "{422, 705}";
}
);
layerId = "3836173C-3D8C-4FCA-AE22-DACC53398F6F";
paths = (
{
closed = 1;
nodes = (
"150 0 LINE",
"249 193 LINE",
"169 139 LINE",
"579 139 LINE",
"512 193 LINE",
"579 0 LINE",
"768 0 LINE",
"499 705 LINE",
"345 705 LINE",
"-48 0 LINE"
);
},
{
closed = 1;
nodes = (
"429 548 LINE",
"394 548 LINE",
"497 237 LINE",
"532 288 LINE",
"248 288 LINE",
"272 237 LINE"
);
}
);
width = 766.13253;
},
{
anchors = (
{
name = bottom;
position = "{360, 0}";
},
{
name = ogonek;
position = "{693, 0}";
},
{
name = top;
position = "{420, 705}";
}
);
layerId = "2739B000-4AFC-4B52-A42C-DF57BA9D87B1";
paths = (
{
closed = 1;
nodes = (
"144 0 LINE",
"243 193 LINE",
"166 143 LINE",
"579 143 LINE",
"514 193 LINE",
"581 0 LINE",
"761 0 LINE",
"493 705 LINE",
"348 705 LINE",
"-44 0 LINE"
);
},
{
closed = 1;
nodes = (
"428 557 LINE",
"394 557 LINE",
"500 236 LINE",
"534 284 LINE",
"241 284 LINE",
"266 236 LINE"
);
}
);
width = 762.6988;
},
{
anchors = (
{
name = bottom;
position = "{337, 0}";
},
{
name = ogonek;
position = "{660, 0}";
},
{
name = top;
position = "{398, 705}";
}
);
layerId = "6493C7B7-8C70-4036-9BD9-52D201B9B030";
paths = (
{
closed = 1;
nodes = (
"58 0 LINE",
"164 204 LINE",
"136 197 LINE",
"573 197 LINE",
"547 204 LINE",
"615.994 0 LINE",
"656.006 0 LINE",
"416 705 LINE",
"379 705 LINE",
"15 0 LINE"
);
},
{
closed = 1;
nodes = (
"409 684 LINE",
"383 684 LINE",
"538 228 LINE",
"560 233 LINE",
"155 233 LINE",
"175 228 LINE"
);
}
);
width = 714.62651;
},
{
anchors = (
{
name = bottom;
position = "{337, 0}";
},
{
name = ogonek;
position = "{660, 0}";
},
{
name = top;
position = "{398, 705}";
}
);
layerId = "79B82BF0-C835-43CE-9365-7A5C6C681BA7";
paths = (
{
closed = 1;
nodes = (
"56 0 LINE",
"163 204 LINE",
"136 197 LINE",
"573 197 LINE",
"547 204 LINE",
"616 0 LINE",
"655 0 LINE",
"415 705 LINE",
"379 705 LINE",
"16 0 LINE"
);
},
{
closed = 1;
nodes = (
"409 685 LINE",
"383 685 LINE",
"539 228 LINE",
"560 232 LINE",
"153 232 LINE",
"174 228 LINE"
);
}
);
width = 713.93976;
}
);
leftKerningGroup = A;
rightKerningGroup = A;
unicode = 0041;
userData = {
anchors = (
);
b = {
};
com.typemytype.robofont.layerData = {
b = {
anchors = (
);
components = (
);
contours = (
{
points = (
{
segmentType = line;
smooth = 0;
x = 403;
y = 502;
},
{
segmentType = line;
smooth = 0;
x = 703;
y = 1275;
},
{
segmentType = line;
smooth = 0;
x = 705;
y = 1275;
},
{
segmentType = line;
smooth = 0;
x = 1004;
y = 502;
}
);
},
{
points = (
{
segmentType = curve;
smooth = 1;
x = 150;
y = 0;
},
{
smooth = 0;
x = 181;
y = 0;
},
{
smooth = 0;
x = 214;
y = 15;
},
{
segmentType = curve;
smooth = 1;
x = 229;
y = 53;
},
{
segmentType = line;
smooth = 0;
x = 356;
y = 373;
},
{
segmentType = line;
smooth = 0;
x = 1051;
y = 373;
},
{
segmentType = line;
smooth = 1;
x = 1179;
y = 53;
},
{
smooth = 0;
x = 1193;
y = 17;
},
{
smooth = 0;
x = 1228;
y = 0;
},
{
segmentType = curve;
smooth = 1;
x = 1260;
y = 0;
},
{
smooth = 0;
x = 1306;
y = 0;
},
{
smooth = 0;
x = 1354;
y = 31;
},
{
segmentType = curve;
smooth = 1;
x = 1354;
y = 80;
},
{
smooth = 0;
x = 1354;
y = 87;
},
{
smooth = 0;
x = 1352;
y = 97;
},
{
segmentType = curve;
smooth = 0;
x = 1349;
y = 108;
},
{
segmentType = line;
smooth = 1;
x = 871;
y = 1288;
},
{
smooth = 0;
x = 817;
y = 1420;
},
{
smooth = 0;
x = 777;
y = 1430;
},
{
segmentType = curve;
smooth = 1;
x = 710;
y = 1430;
},
{
smooth = 0;
x = 644;
y = 1430;
},
{
smooth = 0;
x = 596;
y = 1413;
},
{
segmentType = curve;
smooth = 1;
x = 542;
y = 1280;
},
{
segmentType = line;
smooth = 1;
x = 66;
y = 108;
},
{
smooth = 0;
x = 62;
y = 97;
},
{
smooth = 0;
x = 60;
y = 87;
},
{
segmentType = curve;
smooth = 1;
x = 60;
y = 78;
},
{
smooth = 0;
x = 60;
y = 32;
},
{
smooth = 0;
x = 106;
y = 0;
}
);
}
);
lib = {
};
name = A;
unicodes = (
);
width = 1414;
};
};
components = (
);
contours = {
};
lib = {
};
name = A;
points = {
};
segmentType = line;
unicodes = (
);
width = 1445;
x = 718;
y = 1232;
};
},
{
color = 1;
glyphname = AE;
lastChange = "2019-08-05 14:22:11 +0000";
layers = (
{
anchors = (
{
name = bottom;
position = "{466, 0}";
},
{
name = top;
position = "{526, 705}";
}
);
background = {
anchors = (
{
name = bottom;
position = "{466, 0}";
},
{
name = top;
position = "{526, 705}";
}
);
guideLines = (
{
angle = 101.863;
position = "{524, 338}";
}
);
paths = (
{
closed = 1;
nodes = (
"28 0 LINE",
"169 208 LINE",
"139 195 LINE",
"544 195 LINE",
"524 207 LINE",
"549 0 LINE",
"900 0 LINE",
"903 39 LINE",
"568 39 LINE",
"587 20 LINE",
"547 348 LINE",
"533 338 LINE",
"909 338 LINE",
"913 377 LINE",
"529 377 LINE",
"545 366 LINE",
"505 690 LINE",
"496 666 LINE",
"958 666 LINE",
"961 705 LINE",
"462 705 LINE",
"-20 0 LINE"
);
},
{
closed = 1;
nodes = (
"181 225 LINE",
"488 676 LINE",
"466 676 LINE",
"522 225 LINE",
"529 234 LINE",
"172 234 LINE"
);
}
);
};
guideLines = (
{
angle = 101.863;
position = "{524, 338}";
}
);
layerId = "F1F93986-3ED8-4AAE-84C4-CA3EEECDDFA0";
paths = (
{
closed = 1;
nodes = (
"28 0 LINE",
"169 208 LINE",
"139 195 LINE",
"544 195 LINE",
"524 207 LINE",
"549 0 LINE",
"900 0 LINE",
"903 39 LINE",
"568 39 LINE",
"587 20 LINE",
"547 348 LINE",
"533 338 LINE",
"909 338 LINE",
"913 377 LINE",
"529 377 LINE",
"545 366 LINE",
"505 690 LINE",
"496 666 LINE",
"958 666 LINE",
"961 705 LINE",
"462 705 LINE",
"-20 0 LINE"
);
},
{
closed = 1;
nodes = (
"181 225 LINE",
"488 676 LINE",
"466 676 LINE",
"522 225 LINE",
"529 234 LINE",
"172 234 LINE"
);
}
);
width = 971;
},
{
anchors = (
{
name = bottom;
position = "{467, 0}";
},
{
name = top;
position = "{529, 705}";
}
);
background = {
anchors = (
{
name = bottom;
position = "{467, 0}";
},
{
name = top;
position = "{529, 705}";
}
);
guideLines = (
{
angle = 102.61;
position = "{480, 262}";
},
{
angle = 102.61;
position = "{674, 261}";
}
);
paths = (
{
closed = 1;
nodes = (
"139 0 LINE",
"264 186 LINE",
"173 131 LINE",
"550 131 LINE",
"487 194 LINE",
"514 0 LINE",
"939 0 LINE",
"953 164 LINE",
"629 164 LINE",
"694 109 LINE",
"661 335 LINE",
"614 276 LINE",
"940 276 LINE",
"954 440 LINE",
"593 440 LINE",
"656 381 LINE",
"628 584 LINE",
"570 541 LINE",
"986 541 LINE",
"1000 705 LINE",
"420 705 LINE",
"-97 0 LINE"
);
},
{
closed = 1;
nodes = (
"305 243 LINE",
"493 523 LINE",
"443 523 LINE",
"484 235 LINE",
"536 295 LINE",
"289 295 LINE"
);
}
);
};
guideLines = (
{
angle = 102.61;
position = "{480, 262}";
},
{
angle = 102.61;
position = "{674, 261}";
}
);
layerId = "4121B50C-FD42-45C5-8FBE-41E76D98F91E";
paths = (
{
closed = 1;
nodes = (
"139 0 LINE",
"264 186 LINE",
"173 131 LINE",
"550 131 LINE",
"487 194 LINE",
"514 0 LINE",
"939 0 LINE",
"953 164 LINE",
"629 164 LINE",
"694 109 LINE",
"661 335 LINE",
"614 276 LINE",
"940 276 LINE",
"954 440 LINE",
"593 440 LINE",
"656 381 LINE",
"628 584 LINE",
"570 541 LINE",
"986 541 LINE",
"1000 705 LINE",
"420 705 LINE",
"-97 0 LINE"
);
},
{
closed = 1;
nodes = (
"305 243 LINE",
"493 523 LINE",
"443 523 LINE",
"484 235 LINE",
"536 295 LINE",
"289 295 LINE"
);
}
);
width = 1014;
},
{
anchors = (
{
name = bottom;
position = "{467, 0}";
},
{
name = top;
position = "{529, 705}";
}
);
layerId = "3836173C-3D8C-4FCA-AE22-DACC53398F6F";
paths = (
{
closed = 1;
nodes = (
"126 0 LINE",
"253 189 LINE",
"169 139 LINE",
"549 139 LINE",
"491 196 LINE",
"518 0 LINE",
"934 0 LINE",
"947 149 LINE",
"622 149 LINE",
"681 98 LINE",
"647 337 LINE",
"604 283 LINE",
"936 283 LINE",
"949 432 LINE",
"585 432 LINE",
"643 379 LINE",
"613 597 LINE",
"561 556 LINE",
"983 556 LINE",
"995 705 LINE",
"425 705 LINE",
"-88 0 LINE"
);
},
{
closed = 1;
nodes = (
"290 241 LINE",
"492 541 LINE",
"446 541 LINE",
"489 234 LINE",
"535 288 LINE",
"275 288 LINE"
);
}
);
width = 1008.81928;
},
{
anchors = (
{
name = bottom;
position = "{467, 0}";
},
{
name = top;
position = "{528, 705}";
}
);
layerId = "2739B000-4AFC-4B52-A42C-DF57BA9D87B1";
paths = (
{
closed = 1;
nodes = (
"119 0 LINE",
"247 190 LINE",
"167 143 LINE",
"549 143 LINE",
"494 196 LINE",
"520 0 LINE",
"932 0 LINE",
"944 141 LINE",
"618 141 LINE",
"675 93 LINE",
"640 337 LINE",
"599 287 LINE",
"934 287 LINE",
"947 429 LINE",
"581 429 LINE",
"636 378 LINE",
"606 603 LINE",
"557 564 LINE",
"981 564 LINE",
"993 705 LINE",
"428 705 LINE",
"-83 0 LINE"
);
},
{
closed = 1;
nodes = (
"283 240 LINE",
"492 551 LINE",
"447 551 LINE",
"491 233 LINE",
"535 284 LINE",
"268 284 LINE"
);
}
);
width = 1006.22892;
},
{
anchors = (
{
name = bottom;
position = "{466, 0}";
},
{
name = top;
position = "{526, 705}";
}
);
layerId = "6493C7B7-8C70-4036-9BD9-52D201B9B030";
paths = (
{
closed = 1;
nodes = (
"25 0 LINE",
"167 209 LINE",
"138 197 LINE",
"544 197 LINE",
"525 207 LINE",
"550 0 LINE",
"899 0 LINE",
"902 36 LINE",
"567 36 LINE",
"584 18 LINE",
"544 348 LINE",
"531 339 LINE",
"908 339 LINE",
"912 375 LINE",
"527 375 LINE",
"542 366 LINE",
"502 693 LINE",
"494 669 LINE",
"957 669 LINE",
"960 705 LINE",
"463.006 705 LINE",
"-18 0 LINE"
);
},
{
closed = 1;
nodes = (
"178 225 LINE",
"488 680 LINE",
"467 680 LINE",
"523 225 LINE",
"529 233 LINE",
"169 233 LINE"
);
}
);
width = 969.96386;
},
{
anchors = (
{
name = bottom;
position = "{466, 0}";
},
{
name = top;
position = "{526, 705}";
}
);
layerId = "79B82BF0-C835-43CE-9365-7A5C6C681BA7";
paths = (
{
closed = 1;
nodes = (
"24 0 LINE",
"166 209 LINE",
"138 197 LINE",
"544 197 LINE",
"525 207 LINE",
"550 0 LINE",
"899 0 LINE",
"901 34 LINE",
"566 34 LINE",
"583 17 LINE",
"543 348 LINE",
"530 340 LINE",
"908 340 LINE",
"912 375 LINE",
"527 375 LINE",
"541 365 LINE",
"501 694 LINE",
"493 671 LINE",
"957 671 LINE",
"960 705 LINE",
"464 705 LINE",
"-17 0 LINE"
);
},
{
closed = 1;
nodes = (
"177 224 LINE",
"488 682 LINE",
"467 682 LINE",
"523 225 LINE",
"529 232 LINE",
"168 232 LINE"
);
}
);
width = 969.44578;
}
);
leftKerningGroup = A;
rightKerningGroup = E;
rightMetricsKey = E;
unicode = 00C6;
userData = {
com.typemytype.robofont.layerData = {
b = {
anchors = (
);
components = (
);
contours = (
);
lib = {
};
name = AE;
unicodes = (
);
width = 1976;
};
};
};
},
{
color = 1;
glyphname = B;
lastChange = "2019-08-05 14:22:11 +0000";
layers = (
{
anchors = (
{
name = bottom;
position = "{316, 0}";
},
{
name = top;
position = "{376, 705}";
}
);
background = {
anchors = (
{
name = bottom;
position = "{316, 0}";
},
{
name = top;
position = "{376, 705}";
}
);
paths = (
{
closed = 1;
nodes = (
"540 371 OFFCURVE",
"604 439 OFFCURVE",
"604 539 CURVE SMOOTH",
"604 646 OFFCURVE",
"529 705 OFFCURVE",
"394 705 CURVE SMOOTH",
"136 705 LINE",
"75 0 LINE",
"346 0 LINE SMOOTH",
"623 0 OFFCURVE",
"690 340 OFFCURVE",
"441 365 CURVE",
"441 351 LINE"
);
},
{
closed = 1;
nodes = (
"501 666 OFFCURVE",
"560 622 OFFCURVE",
"560 540 CURVE SMOOTH",
"560 435 OFFCURVE",
"490 376 OFFCURVE",
"362 376 CURVE SMOOTH",
"150 376 LINE",
"175 666 LINE",
"389 666 LINE SMOOTH"
);
},
{
closed = 1;
nodes = (
"120 39 LINE",
"146 337 LINE",
"375 337 LINE SMOOTH",
"490 337 OFFCURVE",
"547 297 OFFCURVE",
"547 209 CURVE SMOOTH",
"547 93 OFFCURVE",
"478 39 OFFCURVE",
"347 39 CURVE SMOOTH"
);
}
);
};
layerId = "F1F93986-3ED8-4AAE-84C4-CA3EEECDDFA0";
paths = (
{
closed = 1;
nodes = (
"540 371 OFFCURVE",
"604 439 OFFCURVE",
"604 539 CURVE SMOOTH",
"604 646 OFFCURVE",
"529 705 OFFCURVE",
"394 705 CURVE SMOOTH",
"136 705 LINE",
"75 0 LINE",
"346 0 LINE SMOOTH",
"623 0 OFFCURVE",
"690 340 OFFCURVE",
"441 365 CURVE",
"441 351 LINE"
);
},
{
closed = 1;
nodes = (
"501 666 OFFCURVE",
"560 622 OFFCURVE",
"560 540 CURVE SMOOTH",
"560 435 OFFCURVE",
"490 376 OFFCURVE",
"362 376 CURVE SMOOTH",
"150 376 LINE",
"175 666 LINE",
"389 666 LINE SMOOTH"
);
},
{
closed = 1;
nodes = (
"120 39 LINE",
"146 337 LINE",
"375 337 LINE SMOOTH",
"490 337 OFFCURVE",
"547 297 OFFCURVE",
"547 209 CURVE SMOOTH",
"547 93 OFFCURVE",
"478 39 OFFCURVE",
"347 39 CURVE SMOOTH"
);
}
);
width = 666;
},
{
anchors = (
{
name = bottom;
position = "{331, 0}";
},
{
name = top;
position = "{392, 705}";
}
);
background = {
anchors = (
{
name = bottom;
position = "{331, 0}";
},
{
name = top;
position = "{392, 705}";
}
);
paths = (
{
closed = 1;
nodes = (
"627 380 OFFCURVE",
"681 446 OFFCURVE",
"681 534 CURVE SMOOTH",
"681 637 OFFCURVE",
"598 705 OFFCURVE",
"452 705 CURVE SMOOTH",
"96 705 LINE",
"35 0 LINE",
"404 0 LINE SMOOTH",
"567 0 OFFCURVE",
"672 83 OFFCURVE",
"672 215 CURVE SMOOTH",
"672 299 OFFCURVE",
"623 355 OFFCURVE",
"537 374 CURVE",
"541 357 LINE"
);
},
{
closed = 1;
nodes = (
"455 549 OFFCURVE",
"475 539 OFFCURVE",
"475 507 CURVE SMOOTH",
"475 459 OFFCURVE",
"447 437 OFFCURVE",
"388 437 CURVE SMOOTH",
"278 437 LINE",
"288 549 LINE",
"403 549 LINE SMOOTH"
);
},
{
closed = 1;
nodes = (
"253 156 LINE",
"264 279 LINE",
"399 279 LINE SMOOTH",
"450 279 OFFCURVE",
"471 266 OFFCURVE",
"471 234 CURVE SMOOTH",
"471 184 OFFCURVE",
"443 156 OFFCURVE",
"383 156 CURVE SMOOTH"
);
}
);
};
layerId = "4121B50C-FD42-45C5-8FBE-41E76D98F91E";
paths = (
{
closed = 1;
nodes = (
"627 380 OFFCURVE",
"681 446 OFFCURVE",
"681 534 CURVE SMOOTH",
"681 637 OFFCURVE",
"598 705 OFFCURVE",
"452 705 CURVE SMOOTH",
"96 705 LINE",
"35 0 LINE",
"404 0 LINE SMOOTH",
"567 0 OFFCURVE",
"672 83 OFFCURVE",
"672 215 CURVE SMOOTH",
"672 299 OFFCURVE",
"623 355 OFFCURVE",
"537 374 CURVE",
"541 357 LINE"
);
},
{
closed = 1;
nodes = (
"455 549 OFFCURVE",
"475 539 OFFCURVE",
"475 507 CURVE SMOOTH",
"475 459 OFFCURVE",
"447 437 OFFCURVE",
"388 437 CURVE SMOOTH",
"278 437 LINE",
"288 549 LINE",
"403 549 LINE SMOOTH"
);
},
{
closed = 1;
nodes = (
"253 156 LINE",
"264 279 LINE",
"399 279 LINE SMOOTH",
"450 279 OFFCURVE",
"471 266 OFFCURVE",
"471 234 CURVE SMOOTH",
"471 184 OFFCURVE",
"443 156 OFFCURVE",
"383 156 CURVE SMOOTH"
);
}
);
width = 710;
},
{
layerId = "3836173C-3D8C-4FCA-AE22-DACC53398F6F";
width = 704.6988;
},
{
layerId = "2739B000-4AFC-4B52-A42C-DF57BA9D87B1";
width = 702.04819;
},
{
layerId = "6493C7B7-8C70-4036-9BD9-52D201B9B030";
width = 664.93976;
},
{
layerId = "79B82BF0-C835-43CE-9365-7A5C6C681BA7";
width = 664.40964;
}
);
leftKerningGroup = H;
leftMetricsKey = H;
rightKerningGroup = B;
unicode = 0042;
userData = {
anchors = (
);
b = {
};
com.typemytype.robofont.layerData = {
b = {
anchors = (
);
components = (
);
contours = (
{
points = (
{
segmentType = curve;
smooth = 1;
x = 266;
y = 0;
},
{
segmentType = line;
smooth = 1;
x = 1035;
y = 0;
},
{
smooth = 0;
x = 1084;
y = 0;
},
{
smooth = 0;
x = 1108;
y = 36;
},
{
segmentType = curve;
smooth = 1;
x = 1108;
y = 73;
},
{
smooth = 0;
x = 1108;
y = 109;
},
{
smooth = 0;
x = 1084;
y = 145;
},
{
segmentType = curve;
smooth = 1;
x = 1035;
y = 145;
},
{
segmentType = line;
smooth = 0;
x = 353;
y = 145;
},
{
segmentType = line;
smooth = 0;
x = 353;
y = 662;
},
{
segmentType = line;
smooth = 1;
x = 975;
y = 662;
},
{
smooth = 0;
x = 1024;
y = 662;
},
{
smooth = 0;
x = 1049;
y = 698;
},
{
segmentType = curve;
smooth = 1;
x = 1049;
y = 734;
},
{
smooth = 0;
x = 1049;
y = 770;
},
{
smooth = 0;
x = 1026;
y = 806;
},
{
segmentType = curve;
smooth = 1;
x = 975;
y = 806;
},
{
segmentType = line;
smooth = 0;
x = 353;
y = 806;
},
{
segmentType = line;
smooth = 0;
x = 353;
y = 1281;
},
{
segmentType = line;
smooth = 1;
x = 1007;
y = 1281;
},
{
smooth = 0;
x = 1056;
y = 1281;
},
{
smooth = 0;
x = 1080;
y = 1317;
},
{
segmentType = curve;
smooth = 1;
x = 1080;
y = 1354;
},
{
smooth = 0;
x = 1080;
y = 1390;
},
{
smooth = 0;
x = 1056;
y = 1426;
},
{
segmentType = curve;
smooth = 1;
x = 1007;
y = 1426;
},
{
segmentType = line;
smooth = 1;
x = 261;
y = 1426;
},
{
smooth = 0;
x = 213;
y = 1426;
},
{
smooth = 0;
x = 178;
y = 1383;
},
{
segmentType = curve;
smooth = 1;
x = 178;
y = 1340;
},
{
segmentType = line;
smooth = 1;
x = 178;
y = 86;
},
{
smooth = 0;
x = 178;
y = 41;
},
{
smooth = 0;
x = 222;
y = 0;
}
);
}
);
lib = {
};
name = B;
unicodes = (
);
width = 1292;
};
};
components = (
);
contours = {
};
lib = {
};
name = B;
points = {
};
segmentType = curve;
unicodes = (
);
width = 1395;
x = 676;
y = 1260;
};
},
{
color = 1;
glyphname = C;
lastChange = "2019-08-05 14:22:11 +0000";
layers = (
{
anchors = (
{
name = bottom;
position = "{359, 0}";
},
{
name = top;
position = "{422, 705}";
}
);
background = {
anchors = (
{
name = bottom;
position = "{359, 0}";
},
{
name = top;
position = "{422, 705}";
}
);
paths = (
{
closed = 1;
nodes = (
"458 -8 OFFCURVE",
"542 23 OFFCURVE",
"606 86 CURVE",
"586 123 LINE",
"517 60 OFFCURVE",
"449 33 OFFCURVE",
"360 33 CURVE SMOOTH",
"203 33 OFFCURVE",
"119 130 OFFCURVE",
"119 303 CURVE SMOOTH",
"119 423 OFFCURVE",
"161 672 OFFCURVE",
"419 672 CURVE SMOOTH",
"506 672 OFFCURVE",
"570 647 OFFCURVE",
"627 584 CURVE",
"651 617 LINE",
"599 680 OFFCURVE",
"519 713 OFFCURVE",
"421 713 CURVE SMOOTH",
"127 713 OFFCURVE",
"75 436 OFFCURVE",
"75 301 CURVE SMOOTH",
"75 109 OFFCURVE",
"178.006 -8 OFFCURVE",
"360 -8 CURVE SMOOTH"
);
}
);
};
layerId = "F1F93986-3ED8-4AAE-84C4-CA3EEECDDFA0";
paths = (
{
closed = 1;
nodes = (
"458 -8 OFFCURVE",
"542 23 OFFCURVE",
"606 86 CURVE",
"586 123 LINE",
"517 60 OFFCURVE",
"449 33 OFFCURVE",
"360 33 CURVE SMOOTH",
"203 33 OFFCURVE",
"119 130 OFFCURVE",
"119 303 CURVE SMOOTH",
"119 423 OFFCURVE",
"161 672 OFFCURVE",
"419 672 CURVE SMOOTH",
"506 672 OFFCURVE",
"570 647 OFFCURVE",
"627 584 CURVE",
"651 617 LINE",
"599 680 OFFCURVE",
"519 713 OFFCURVE",
"421 713 CURVE SMOOTH",
"127 713 OFFCURVE",
"75 436 OFFCURVE",
"75 301 CURVE SMOOTH",
"75 109 OFFCURVE",
"178.006 -8 OFFCURVE",
"360 -8 CURVE SMOOTH"
);
}
);
width = 667;
},
{
anchors = (
{
name = bottom;
position = "{380, 0}";
},
{
name = top;
position = "{440, 705}";
}
);
background = {
anchors = (
{
name = bottom;
position = "{380, 0}";
},
{
name = top;
position = "{440, 705}";
}
);
paths = (
{
closed = 1;
nodes = (
"500 -12 OFFCURVE",
"598 17 OFFCURVE",
"654 61 CURVE",
"602 234 LINE",
"542 195 OFFCURVE",
"483 175 OFFCURVE",
"425 175 CURVE SMOOTH",
"323 175 OFFCURVE",
"275 223 OFFCURVE",
"275 318 CURVE SMOOTH",
"275 453 OFFCURVE",
"341 530 OFFCURVE",
"466 530 CURVE SMOOTH",
"520 530 OFFCURVE",
"574 514 OFFCURVE",
"629 475 CURVE",
"701 640 LINE",
"653 684 OFFCURVE",
"559 717 OFFCURVE",
"464 717 CURVE SMOOTH",
"225 717 OFFCURVE",
"69 576 OFFCURVE",
"50 360 CURVE SMOOTH",
"49 346 OFFCURVE",
"48 333 OFFCURVE",
"48 319 CURVE SMOOTH",
"48 119 OFFCURVE",
"181 -12 OFFCURVE",
"411 -12 CURVE SMOOTH"
);
}
);
};
layerId = "4121B50C-FD42-45C5-8FBE-41E76D98F91E";
paths = (
{
closed = 1;
nodes = (
"500 -12 OFFCURVE",
"598 17 OFFCURVE",
"654 61 CURVE",
"602 234 LINE",
"542 195 OFFCURVE",
"483 175 OFFCURVE",
"425 175 CURVE SMOOTH",
"323 175 OFFCURVE",
"275 223 OFFCURVE",
"275 318 CURVE SMOOTH",
"275 453 OFFCURVE",
"341 530 OFFCURVE",
"466 530 CURVE SMOOTH",
"520 530 OFFCURVE",
"574 514 OFFCURVE",
"629 475 CURVE",
"701 640 LINE",
"653 684 OFFCURVE",
"559 717 OFFCURVE",
"464 717 CURVE SMOOTH",
"107 717 OFFCURVE",
"48 434 OFFCURVE",
"48 319 CURVE SMOOTH",
"48 119 OFFCURVE",
"181 -12 OFFCURVE",
"411 -12 CURVE SMOOTH"
);
}
);
width = 692;
},
{
anchors = (
{
name = bottom;
position = "{377, 0}";
},
{
name = top;
position = "{438, 705}";
}
);
layerId = "3836173C-3D8C-4FCA-AE22-DACC53398F6F";
paths = (
{
closed = 1;
nodes = (
"495 -12 OFFCURVE",
"591 18 OFFCURVE",
"648 64 CURVE",
"600 221 LINE",
"539 179 OFFCURVE",
"479 158 OFFCURVE",
"417 158 CURVE SMOOTH",
"309 158 OFFCURVE",
"256 212 OFFCURVE",
"256 316 CURVE SMOOTH",
"256 449 OFFCURVE",
"319 547 OFFCURVE",
"460 547 CURVE SMOOTH",
"518 547 OFFCURVE",
"574 530 OFFCURVE",
"629 488 CURVE",
"695 637 LINE",
"646 684 OFFCURVE",
"554 717 OFFCURVE",
"459 717 CURVE SMOOTH",
"109 717 OFFCURVE",
"51 434 OFFCURVE",
"51 317 CURVE SMOOTH",
"51 118 OFFCURVE",
"181 -12 OFFCURVE",
"405 -12 CURVE SMOOTH"
);
}
);
width = 688.98795;
},
{
anchors = (
{
name = bottom;
position = "{376, 0}";
},
{
name = top;
position = "{437, 705}";
}
);
layerId = "2739B000-4AFC-4B52-A42C-DF57BA9D87B1";
paths = (
{
closed = 1;
nodes = (
"492 -11 OFFCURVE",
"588 18 OFFCURVE",
"645 66 CURVE",
"599 214 LINE",
"537 171 OFFCURVE",
"477 149 OFFCURVE",
"413 149 CURVE SMOOTH",
"301 149 OFFCURVE",
"247 206 OFFCURVE",
"247 315 CURVE SMOOTH",
"247 448 OFFCURVE",
"308 556 OFFCURVE",
"458 556 CURVE SMOOTH",
"517 556 OFFCURVE",
"573 538 OFFCURVE",
"629 495 CURVE",
"692 636 LINE",
"643 683 OFFCURVE",
"552 716 OFFCURVE",
"456 716 CURVE SMOOTH",
"111 716 OFFCURVE",
"53 434 OFFCURVE",
"53 316 CURVE SMOOTH",
"53 117 OFFCURVE",
"180 -11 OFFCURVE",
"402 -11 CURVE SMOOTH"
);
}
);
width = 687.48193;
},
{
anchors = (
{
name = bottom;
position = "{358, 0}";
},
{
name = top;
position = "{422, 705}";
}
);
layerId = "6493C7B7-8C70-4036-9BD9-52D201B9B030";
paths = (
{
closed = 1;
nodes = (
"457 -8 OFFCURVE",
"541 23 OFFCURVE",
"605 87 CURVE",
"586 120 LINE",
"516 57 OFFCURVE",
"448 30 OFFCURVE",
"358 30 CURVE SMOOTH",
"200 30 OFFCURVE",
"115 128 OFFCURVE",
"115 303 CURVE SMOOTH",
"115 422 OFFCURVE",
"157 675 OFFCURVE",
"418 675 CURVE SMOOTH",
"506 675 OFFCURVE",
"570 650 OFFCURVE",
"627 587 CURVE",
"650 616 LINE",
"598 680 OFFCURVE",
"518 713 OFFCURVE",
"420 713 CURVE SMOOTH",
"127 713 OFFCURVE",
"76 436 OFFCURVE",
"76 301 CURVE SMOOTH",
"76 109 OFFCURVE",
"178 -8 OFFCURVE",
"359 -8 CURVE SMOOTH"
);
}
);
width = 666.39759;
},
{
anchors = (
{
name = bottom;
position = "{358, 0}";
},
{
name = top;
position = "{421, 705}";
}
);
layerId = "79B82BF0-C835-43CE-9365-7A5C6C681BA7";
paths = (
{
closed = 1;
nodes = (
"456 -8 OFFCURVE",
"540 23 OFFCURVE",
"604 87 CURVE",
"585 119 LINE",
"516 55 OFFCURVE",
"448 28 OFFCURVE",
"358 28 CURVE SMOOTH",
"199 28 OFFCURVE",
"113 127 OFFCURVE",
"113 302 CURVE SMOOTH",
"113 422 OFFCURVE",
"155 677 OFFCURVE",
"417 677 CURVE SMOOTH",
"506 677 OFFCURVE",
"570 652 OFFCURVE",
"627 588 CURVE",
"649 616 LINE",
"597 680 OFFCURVE",
"518 713 OFFCURVE",
"419 713 CURVE SMOOTH",
"128 713 OFFCURVE",
"76 436 OFFCURVE",
"76 300 CURVE SMOOTH",
"76 109 OFFCURVE",
"178 -8 OFFCURVE",
"358 -8 CURVE SMOOTH"
);
}
);
width = 666.09639;
}
);
leftKerningGroup = O;
leftMetricsKey = O;
rightKerningGroup = C;
unicode = 0043;
userData = {
anchors = (
);
b = {
};
com.typemytype.robofont.layerData = {
b = {
anchors = (
);
components = (
);
contours = (
);
lib = {
};
name = C;
unicodes = (
);
width = 1353.89001;
};
};
components = (
);
contours = (
);
lib = {
};
name = C;
unicodes = (
);
width = 1354;
};
},
{
color = 1;
glyphname = D;
lastChange = "2019-08-05 14:22:11 +0000";
layers = (
{
anchors = (
{
name = bottom;
position = "{342, 0}";
},
{
name = center;
position = "{183, 358}";
},
{
name = top;
position = "{402, 705}";
}
);
background = {
anchors = (
{
name = bottom;
position = "{342, 0}";
},
{
name = center;
position = "{183, 358}";
},
{
name = top;
position = "{402, 705}";
}
);
paths = (
{
closed = 1;
nodes = (
"292 0 LINE SMOOTH",
"624 0 OFFCURVE",
"669 266 OFFCURVE",
"669 404 CURVE SMOOTH",
"669 601 OFFCURVE",
"557 705 OFFCURVE",
"353 705 CURVE SMOOTH",
"136 705 LINE",
"75 0 LINE"
);
},
{
closed = 1;
nodes = (
"175 666 LINE",
"347 666 LINE SMOOTH",
"533 666 OFFCURVE",
"625 578 OFFCURVE",
"625 403 CURVE SMOOTH",
"625 287 OFFCURVE",
"596 39 OFFCURVE",
"290 39 CURVE SMOOTH",
"120 39 LINE"
);
}
);
};
layerId = "F1F93986-3ED8-4AAE-84C4-CA3EEECDDFA0";
paths = (
{
closed = 1;
nodes = (
"292 0 LINE SMOOTH",
"624 0 OFFCURVE",
"669 266 OFFCURVE",
"669 404 CURVE SMOOTH",
"669 601 OFFCURVE",
"557 705 OFFCURVE",
"353 705 CURVE SMOOTH",
"136 705 LINE",
"75 0 LINE"
);
},
{
closed = 1;
nodes = (
"175 666 LINE",
"347 666 LINE SMOOTH",
"533 666 OFFCURVE",
"625 578 OFFCURVE",
"625 403 CURVE SMOOTH",
"625 287 OFFCURVE",
"596 39 OFFCURVE",
"290 39 CURVE SMOOTH",
"120 39 LINE"
);
}
);
width = 725;
},
{
anchors = (
{
name = bottom;
position = "{373, 0}";
},
{
name = center;
position = "{223, 358}";
},
{
name = top;
position = "{434, 705}";
}
);
background = {
anchors = (
{
name = bottom;
position = "{373, 0}";
},
{
name = center;
position = "{223, 358}";
},
{
name = top;
position = "{434, 705}";
}
);
paths = (
{
closed = 1;
nodes = (
"345 0 LINE SMOOTH",
"595 0 OFFCURVE",
"748 126 OFFCURVE",
"767 346 CURVE SMOOTH",
"768 361 OFFCURVE",
"769 375 OFFCURVE",
"769 389 CURVE SMOOTH",
"769 588 OFFCURVE",
"636 705 OFFCURVE",
"402 705 CURVE SMOOTH",
"96 705 LINE",
"35 0 LINE"
);
},
{
closed = 1;
nodes = (
"296 531 LINE",
"379 531 LINE SMOOTH",
"492 531 OFFCURVE",
"546 488 OFFCURVE",
"546 389 CURVE SMOOTH",
"546 380 OFFCURVE",
"546 370 OFFCURVE",
"545 360 CURVE SMOOTH",
"534 235 OFFCURVE",
"467 174 OFFCURVE",
"342 174 CURVE SMOOTH",
"265 174 LINE"
);
}
);
};
layerId = "4121B50C-FD42-45C5-8FBE-41E76D98F91E";
paths = (
{
closed = 1;
nodes = (
"345 0 LINE SMOOTH",
"722 0 OFFCURVE",
"769 271 OFFCURVE",
"769 389 CURVE SMOOTH",
"769 588 OFFCURVE",
"636 705 OFFCURVE",
"402 705 CURVE SMOOTH",
"96 705 LINE",
"35 0 LINE"
);
},
{
closed = 1;
nodes = (
"296 531 LINE",
"379 531 LINE SMOOTH",
"492 531 OFFCURVE",
"546 488 OFFCURVE",
"546 389 CURVE SMOOTH",
"546 319 OFFCURVE",
"531 174 OFFCURVE",
"342 174 CURVE SMOOTH",
"265 174 LINE"
);
}
);
width = 800;
},
{
anchors = (
{
name = bottom;
position = "{369, 0}";
},
{
name = center;
position = "{218, 358}";
},
{
name = top;
position = "{430, 705}";
}
);
layerId = "3836173C-3D8C-4FCA-AE22-DACC53398F6F";
paths = (
{
closed = 1;
nodes = (
"339 0 LINE SMOOTH",
"710 0 OFFCURVE",
"757 270 OFFCURVE",
"757 391 CURVE SMOOTH",
"757 590 OFFCURVE",
"626 705 OFFCURVE",
"396 705 CURVE SMOOTH",
"101 705 LINE",
"40 0 LINE"
);
},
{
closed = 1;
nodes = (
"281 547 LINE",
"375 547 LINE SMOOTH",
"497 547 OFFCURVE",
"556 499 OFFCURVE",
"556 391 CURVE SMOOTH",
"556 315 OFFCURVE",
"539 158 OFFCURVE",
"336 158 CURVE SMOOTH",
"248 158 LINE"
);
}
);
width = 790.96386;
},
{
anchors = (
{
name = bottom;
position = "{367, 0}";
},
{
name = center;
position = "{216, 358}";
},
{
name = top;
position = "{428, 705}";
}
);
layerId = "2739B000-4AFC-4B52-A42C-DF57BA9D87B1";
paths = (
{
closed = 1;
nodes = (
"335 0 LINE SMOOTH",
"704 0 OFFCURVE",
"751 270 OFFCURVE",
"751 392 CURVE SMOOTH",
"751 590 OFFCURVE",
"622 705 OFFCURVE",
"393 705 CURVE SMOOTH",
"103 705 LINE",
"42 0 LINE"
);
},
{
closed = 1;
nodes = (
"274 555 LINE",
"373 555 LINE SMOOTH",
"499 555 OFFCURVE",
"560 504 OFFCURVE",
"560 392 CURVE SMOOTH",
"560 313 OFFCURVE",
"543 150 OFFCURVE",
"333 150 CURVE SMOOTH",
"239 150 LINE"
);
}
);
width = 786.44578;
},
{
anchors = (
{
name = bottom;
position = "{341, 0}";
},
{
name = center;
position = "{182, 358}";
},
{
name = top;
position = "{401, 705}";
}
);
layerId = "6493C7B7-8C70-4036-9BD9-52D201B9B030";
paths = (
{
closed = 1;
nodes = (
"291 0 LINE SMOOTH",
"622 0 OFFCURVE",
"667 266 OFFCURVE",
"667 404 CURVE SMOOTH",
"667 601 OFFCURVE",
"555 705 OFFCURVE",
"352 705 CURVE SMOOTH",
"137 705 LINE",
"76 0 LINE"
);
},
{
closed = 1;
nodes = (
"172 669 LINE",
"346 669 LINE SMOOTH",
"534 669 OFFCURVE",
"627 580 OFFCURVE",
"627 403 CURVE SMOOTH",
"627 286 OFFCURVE",
"598 36 OFFCURVE",
"289 36 CURVE SMOOTH",
"117 36 LINE"
);
}
);
width = 723.19277;
},
{
anchors = (
{
name = bottom;
position = "{341, 0}";
},
{
name = center;
position = "{182, 358}";
},
{
name = top;
position = "{401, 705}";
}
);
layerId = "79B82BF0-C835-43CE-9365-7A5C6C681BA7";
paths = (
{
closed = 1;
nodes = (
"290 0 LINE SMOOTH",
"620 0 OFFCURVE",
"665 266 OFFCURVE",
"665 405 CURVE SMOOTH",
"665 601 OFFCURVE",
"554 705 OFFCURVE",
"351 705 CURVE SMOOTH",
"137 705 LINE",
"76 0 LINE"
);
},
{
closed = 1;
nodes = (
"171 671 LINE",
"346 671 LINE SMOOTH",
"534 671 OFFCURVE",
"628 581 OFFCURVE",
"628 403 CURVE SMOOTH",
"628 286 OFFCURVE",
"598 34 OFFCURVE",
"288 34 CURVE SMOOTH",
"115 34 LINE"
);
}
);
width = 722.28916;
}
);
leftKerningGroup = H;
leftMetricsKey = H;
rightKerningGroup = O;
rightMetricsKey = O;
unicode = 0044;
userData = {
anchors = (
);
b = {
};
com.typemytype.robofont.layerData = {
b = {
anchors = (
);
components = (
);
contours = (
{
points = (
{
segmentType = curve;
smooth = 1;
x = 266;
y = 0;
},
{
segmentType = line;
smooth = 1;
x = 1035;
y = 0;
},
{
smooth = 0;
x = 1084;
y = 0;
},
{
smooth = 0;
x = 1108;
y = 34;
},
{
segmentType = curve;
smooth = 1;
x = 1108;
y = 71;
},
{
smooth = 0;
x = 1108;
y = 107;
},
{
smooth = 0;
x = 1084;
y = 141;
},
{
segmentType = curve;
smooth = 1;
x = 1035;
y = 141;
},
{
segmentType = line;
smooth = 0;
x = 356;
y = 141;
},
{
segmentType = line;
smooth = 0;
x = 356;
y = 665;
},
{
segmentType = line;
smooth = 1;
x = 975;
y = 665;
},
{
smooth = 0;
x = 1024;
y = 665;
},
{
smooth = 0;
x = 1049;
y = 698;
},
{
segmentType = curve;
smooth = 1;
x = 1049;
y = 734;
},
{
smooth = 0;
x = 1049;
y = 770;
},
{
smooth = 0;
x = 1026;
y = 803;
},
{
segmentType = curve;
smooth = 1;
x = 975;
y = 803;
},
{
segmentType = line;
smooth = 0;
x = 356;
y = 803;
},
{
segmentType = line;
smooth = 0;
x = 356;
y = 1285;
},
{
segmentType = line;
smooth = 1;
x = 1007;
y = 1285;
},
{
smooth = 0;
x = 1056;
y = 1285;
},
{
smooth = 0;
x = 1080;
y = 1319;
},
{
segmentType = curve;
smooth = 1;
x = 1080;
y = 1356;
},
{
smooth = 0;
x = 1080;
y = 1392;
},
{
smooth = 0;
x = 1056;
y = 1426;
},
{
segmentType = curve;
smooth = 1;
x = 1007;
y = 1426;
},
{
segmentType = line;
smooth = 1;
x = 261;
y = 1426;
},
{
smooth = 0;
x = 213;
y = 1426;
},
{
smooth = 0;
x = 178;
y = 1383;
},
{
segmentType = curve;
smooth = 1;
x = 178;
y = 1340;
},
{
segmentType = line;
smooth = 1;
x = 178;
y = 86;
},
{
smooth = 0;
x = 178;
y = 41;
},
{
smooth = 0;
x = 222;
y = 0;
}
);
}
);
lib = {
};
name = D;
unicodes = (
);
width = 1499;
};
};
components = (
);
contours = (
);
lib = {
};
name = D;
unicodes = (
);
width = 1535;
};
},
{
color = 1;
glyphname = E;
lastChange = "2019-08-05 14:22:11 +0000";
layers = (
{
anchors = (
{
name = bottom;
position = "{299, 0}";
},
{
name = ogonek;
position = "{469, 0}";
},
{
name = top;
position = "{360, 705}";
},
{
name = topleft;
position = "{67, 705}";
}
);
background = {
anchors = (
{
name = bottom;
position = "{299, 0}";
},
{
name = ogonek;
position = "{469, 0}";
},
{
name = top;
position = "{360, 705}";
},
{
name = topleft;
position = "{67, 705}";
}
);
guideLines = (
{
angle = 270;
position = "{549, 353}";
}
);
paths = (
{
closed = 1;
nodes = (
"560 705 LINE",
"136 705 LINE",
"75 0 LINE",
"499 0 LINE",
"502 39 LINE",
"120 39 LINE",
"146 338 LINE",
"508 338 LINE",
"512 377 LINE",
"150 377 LINE",
"175 666 LINE",
"557 666 LINE"
);
}
);
};
guideLines = (
{
angle = 270;
position = "{549, 353}";
}
);
layerId = "F1F93986-3ED8-4AAE-84C4-CA3EEECDDFA0";
paths = (
{
closed = 1;
nodes = (
"560 705 LINE",
"136 705 LINE",
"75 0 LINE",
"499 0 LINE",
"502 39 LINE",
"120 39 LINE",
"146 338 LINE",
"508 338 LINE",
"512 377 LINE",
"150 377 LINE",
"175 666 LINE",
"557 666 LINE"
);
}
);
width = 570;
},
{
anchors = (
{
name = bottom;
position = "{314, 0}";
},
{
name = ogonek;
position = "{519, 0}";
},
{
name = top;
position = "{375, 705}";
},
{
name = topleft;
position = "{57, 705}";
}
);
background = {
anchors = (
{
name = bottom;
position = "{314, 0}";
},
{
name = ogonek;
position = "{519, 0}";
},
{
name = top;
position = "{375, 705}";
},
{
name = topleft;
position = "{57, 705}";
}
);
guideLines = (
{
angle = 270;
position = "{601, 353}";
}
);
paths = (
{
closed = 1;
nodes = (
"610 705 LINE",
"96 705 LINE",
"35 0 LINE",
"549 0 LINE",
"563 164 LINE",
"254 164 LINE",
"264 276 LINE",
"550 276 LINE",
"564 440 LINE",
"278 440 LINE",
"287 541 LINE",
"596 541 LINE"
);
}
);
};
guideLines = (
{
angle = 270;
position = "{601, 353}";
}
);
layerId = "4121B50C-FD42-45C5-8FBE-41E76D98F91E";
paths = (
{
closed = 1;
nodes = (
"610 705 LINE",
"96 705 LINE",
"35 0 LINE",
"549 0 LINE",
"563 164 LINE",
"254 164 LINE",
"264 276 LINE",
"550 276 LINE",
"564 440 LINE",
"278 440 LINE",
"287 541 LINE",
"596 541 LINE"
);
}
);
width = 624;
},
{
anchors = (
{
name = bottom;
position = "{312, 0}";
},
{
name = ogonek;
position = "{513, 0}";
},
{
name = top;
position = "{373, 705}";
},
{
name = topleft;
position = "{58, 705}";
}
);
layerId = "3836173C-3D8C-4FCA-AE22-DACC53398F6F";
paths = (
{
closed = 1;
nodes = (
"604 705 LINE",
"101 705 LINE",
"40 0 LINE",
"543 0 LINE",
"556 149 LINE",
"238 149 LINE",
"250 283 LINE",
"545 283 LINE",
"558 432 LINE",
"263 432 LINE",
"274 556 LINE",
"591 556 LINE"
);
}
);
width = 617.49398;
},
{
anchors = (
{
name = bottom;
position = "{311, 0}";
},
{
name = ogonek;
position = "{510, 0}";
},
{
name = top;
position = "{372, 705}";
},
{
name = topleft;
position = "{59, 705}";
}
);
layerId = "2739B000-4AFC-4B52-A42C-DF57BA9D87B1";
paths = (
{
closed = 1;
nodes = (
"601 705 LINE",
"103 705 LINE",
"42 0 LINE",
"540 0 LINE",
"552 141 LINE",
"230 141 LINE",
"243 287 LINE",
"542 287 LINE",
"555 429 LINE",
"255 429 LINE",
"267 564 LINE",
"589 564 LINE"
);
}
);
width = 614.24096;
},
{
anchors = (
{
name = bottom;
position = "{299, 0}";
},
{
name = ogonek;
position = "{468, 0}";
},
{
name = top;
position = "{360, 705}";
},
{
name = topleft;
position = "{67, 705}";
}
);
layerId = "6493C7B7-8C70-4036-9BD9-52D201B9B030";
paths = (
{
closed = 1;
nodes = (
"559 705 LINE",
"137 705 LINE",
"76 0 LINE",
"498 0 LINE",
"501 36 LINE",
"117 36 LINE",
"143 339 LINE",
"507 339 LINE",
"511 375 LINE",
"147 375 LINE",
"172 669 LINE",
"556 669 LINE"
);
}
);
width = 568.6988;
},
{
anchors = (
{
name = bottom;
position = "{298, 0}";
},
{
name = ogonek;
position = "{467, 0}";
},
{
name = top;
position = "{359, 705}";
},
{
name = topleft;
position = "{67, 705}";
}
);
layerId = "79B82BF0-C835-43CE-9365-7A5C6C681BA7";
paths = (
{
closed = 1;
nodes = (
"558 705 LINE",
"137 705 LINE",
"76 0 LINE",
"497 0 LINE",
"500 34 LINE",
"115 34 LINE",
"142 340 LINE",
"506 340 LINE",
"510 375 LINE",
"145 375 LINE",
"171 671 LINE",
"556 671 LINE"
);
}
);
width = 568.04819;
}
);
leftKerningGroup = H;
leftMetricsKey = H;
rightKerningGroup = E;
unicode = 0045;
userData = {
anchors = (
);
b = {
};
com.typemytype.robofont.layerData = {
b = {
anchors = (
);
components = (
);
contours = (
);
lib = {
};
name = E;
unicodes = (
);
width = 1234;
};
};
components = (
);
contours = (
);
lib = {
};
name = E;
unicodes = (
);
width = 1258;
};
},
{
color = 1;
glyphname = F;
lastChange = "2019-08-05 14:22:11 +0000";
layers = (
{
anchors = (
{
name = bottom;
position = "{272, 0}";
},
{
name = top;
position = "{333, 705}";
}
);
background = {
anchors = (
{
name = bottom;
position = "{272, 0}";
},
{
name = top;
position = "{333, 705}";
}
);
paths = (
{
closed = 1;
nodes = (
"550 705 LINE",
"136 705 LINE",
"75 0 LINE",
"117 0 LINE",
"146 338 LINE",
"498 338 LINE",
"502 377 LINE",
"150 377 LINE",
"175 666 LINE",
"547 666 LINE"
);
}
);
};
layerId = "F1F93986-3ED8-4AAE-84C4-CA3EEECDDFA0";
paths = (
{
closed = 1;
nodes = (
"550 705 LINE",
"136 705 LINE",
"75 0 LINE",
"117 0 LINE",
"146 338 LINE",
"498 338 LINE",
"502 377 LINE",
"150 377 LINE",
"175 666 LINE",
"547 666 LINE"
);
}
);
width = 536;
},
{
anchors = (
{
name = bottom;
position = "{280, 0}";
},
{
name = top;
position = "{341, 705}";
}
);
background = {
anchors = (
{
name = bottom;
position = "{280, 0}";
},
{
name = top;
position = "{341, 705}";
}
);
paths = (
{
closed = 1;
nodes = (
"601 705 LINE",
"96 705 LINE",
"35 0 LINE",
"246 0 LINE",
"269 267 LINE",
"540 267 LINE",
"554 431 LINE",
"283 431 LINE",
"293 541 LINE",
"587 541 LINE"
);
}
);
};
layerId = "4121B50C-FD42-45C5-8FBE-41E76D98F91E";
paths = (
{
closed = 1;
nodes = (
"601 705 LINE",
"96 705 LINE",
"35 0 LINE",
"246 0 LINE",
"269 267 LINE",
"540 267 LINE",
"554 431 LINE",
"283 431 LINE",
"293 541 LINE",
"587 541 LINE"
);
}
);
width = 584;
},
{
anchors = (
{
name = bottom;
position = "{279, 0}";
},
{
name = top;
position = "{340, 705}";
}
);
layerId = "3836173C-3D8C-4FCA-AE22-DACC53398F6F";
paths = (
{
closed = 1;
nodes = (
"595 705 LINE",
"101 705 LINE",
"40 0 LINE",
"230 0 LINE",
"254 276 LINE",
"535 276 LINE",
"548 424 LINE",
"267 424 LINE",
"279 556 LINE",
"582 556 LINE"
);
}
);
width = 578.21687;
},
{
anchors = (
{
name = bottom;
position = "{279, 0}";
},
{
name = top;
position = "{340, 705}";
}
);
layerId = "2739B000-4AFC-4B52-A42C-DF57BA9D87B1";
paths = (
{
closed = 1;
nodes = (
"592 705 LINE",
"103 705 LINE",
"42 0 LINE",
"223 0 LINE",
"247 280 LINE",
"532 280 LINE",
"545 421 LINE",
"259 421 LINE",
"272 564 LINE",
"580 564 LINE"
);
}
);
width = 575.3253;
},
{
anchors = (
{
name = bottom;
position = "{272, 0}";
},
{
name = top;
position = "{333, 705}";
}
);
layerId = "6493C7B7-8C70-4036-9BD9-52D201B9B030";
paths = (
{
closed = 1;
nodes = (
"549 705 LINE",
"137 705 LINE",
"76 0 LINE",
"114 0 LINE",
"143 340 LINE",
"497 340 LINE",
"501 376 LINE",
"147 376 LINE",
"172 669 LINE",
"546 669 LINE"
);
}
);
width = 534.84337;
},
{
anchors = (
{
name = bottom;
position = "{272, 0}";
},
{
name = top;
position = "{333, 705}";
}
);
layerId = "79B82BF0-C835-43CE-9365-7A5C6C681BA7";
paths = (
{
closed = 1;
nodes = (
"548 705 LINE",
"137 705 LINE",
"76 0 LINE",
"112 0 LINE",
"142 341 LINE",
"496 341 LINE",
"500 375 LINE",
"145 375 LINE",
"171 671 LINE",
"546 671 LINE"
);
}
);
width = 534.26506;
}
);
leftKerningGroup = H;
leftMetricsKey = H;
rightKerningGroup = F;
unicode = 0046;
userData = {
anchors = (
);
b = {
};
com.typemytype.robofont.layerData = {
b = {
anchors = (
);
components = (
);
contours = (
{
points = (
{
segmentType = curve;
smooth = 1;
x = 266;
y = 0;
},
{
segmentType = line;
smooth = 1;
x = 1035;
y = 0;
},
{
smooth = 0;
x = 1084;
y = 0;
},
{
smooth = 0;
x = 1108;
y = 34;
},
{
segmentType = curve;
smooth = 1;
x = 1108;
y = 71;
},
{
smooth = 0;
x = 1108;
y = 107;
},
{
smooth = 0;
x = 1084;
y = 141;
},
{
segmentType = curve;
smooth = 1;
x = 1035;
y = 141;
},
{
segmentType = line;
smooth = 0;
x = 353;
y = 141;
},
{
segmentType = line;
smooth = 0;
x = 353;
y = 665;
},
{
segmentType = line;
smooth = 1;
x = 975;
y = 665;
},
{
smooth = 0;
x = 1024;
y = 665;
},
{
smooth = 0;
x = 1049;
y = 698;
},
{
segmentType = curve;
smooth = 1;
x = 1049;
y = 734;
},
{
smooth = 0;
x = 1049;
y = 770;
},
{
smooth = 0;
x = 1026;
y = 803;
},
{
segmentType = curve;
smooth = 1;
x = 975;
y = 803;
},
{
segmentType = line;
smooth = 0;
x = 353;
y = 803;
},
{
segmentType = line;
smooth = 0;
x = 353;
y = 1285;
},
{
segmentType = line;
smooth = 1;
x = 1007;
y = 1285;
},
{
smooth = 0;
x = 1056;
y = 1285;
},
{
smooth = 0;
x = 1080;
y = 1319;
},
{
segmentType = curve;
smooth = 1;
x = 1080;
y = 1356;
},
{
smooth = 0;
x = 1080;
y = 1392;
},
{
smooth = 0;
x = 1056;
y = 1426;
},
{
segmentType = curve;
smooth = 1;
x = 1007;
y = 1426;
},
{
segmentType = line;
smooth = 1;
x = 261;
y = 1426;
},
{
smooth = 0;
x = 213;
y = 1426;
},
{
smooth = 0;
x = 178;
y = 1383;
},
{
segmentType = curve;
smooth = 1;
x = 178;
y = 1340;
},
{
segmentType = line;
smooth = 1;
x = 178;
y = 86;
},
{
smooth = 0;
x = 178;
y = 41;
},
{
smooth = 0;
x = 222;
y = 0;
}
);
}
);
lib = {
};
name = F;
unicodes = (
);
width = 1142;
};
};
components = (
);
contours = (
);
lib = {
};
name = F;
unicodes = (
);
width = 1175;
};
},
{
color = 1;
glyphname = G;
lastChange = "2019-08-05 14:22:11 +0000";
layers = (
{
anchors = (
{
name = bottom;
position = "{369, 0}";
},
{
name = top;
position = "{423, 705}";
}
);
background = {
anchors = (
{
name = bottom;
position = "{369, 0}";
},
{
name = top;
position = "{423, 705}";
}
);
paths = (
{
closed = 1;
nodes = (
"461 -8 OFFCURVE",
"559 13 OFFCURVE",
"611 40 CURVE",
"638 355 LINE",
"404 355 LINE",
"400 316 LINE",
"594 316 LINE",
"570 35 LINE",
"585 73 LINE",
"525 47 OFFCURVE",
"456 33 OFFCURVE",
"381 33 CURVE SMOOTH",
"206 33 OFFCURVE",
"119 126 OFFCURVE",
"119 300 CURVE SMOOTH",
"119 424 OFFCURVE",
"161 672 OFFCURVE",
"419 672 CURVE SMOOTH",
"508 672 OFFCURVE",
"573 647 OFFCURVE",
"632 584 CURVE",
"656 617 LINE",
"602 680 OFFCURVE",
"521 713 OFFCURVE",
"421 713 CURVE SMOOTH",
"127 713 OFFCURVE",
"75 436 OFFCURVE",
"75 301 CURVE SMOOTH",
"75 105 OFFCURVE",
"180 -8 OFFCURVE",
"381 -8 CURVE SMOOTH"
);
}
);
};
layerId = "F1F93986-3ED8-4AAE-84C4-CA3EEECDDFA0";
paths = (
{
closed = 1;
nodes = (
"461 -8 OFFCURVE",
"559 13 OFFCURVE",
"611 40 CURVE",
"638 355 LINE",
"404 355 LINE",
"400 316 LINE",
"594 316 LINE",
"570 35 LINE",
"585 73 LINE",
"525 47 OFFCURVE",
"456 33 OFFCURVE",
"381 33 CURVE SMOOTH",
"206 33 OFFCURVE",
"119 126 OFFCURVE",
"119 300 CURVE SMOOTH",
"119 424 OFFCURVE",
"161 672 OFFCURVE",
"419 672 CURVE SMOOTH",
"508 672 OFFCURVE",
"573 647 OFFCURVE",
"632 584 CURVE",
"656 617 LINE",
"602 680 OFFCURVE",
"521 713 OFFCURVE",
"421 713 CURVE SMOOTH",
"127 713 OFFCURVE",
"75 436 OFFCURVE",
"75 301 CURVE SMOOTH",
"75 105 OFFCURVE",
"180 -8 OFFCURVE",
"381 -8 CURVE SMOOTH"
);
}
);
width = 718;
},
{
anchors = (
{
name = bottom;
position = "{404, 0}";
},
{
name = top;
position = "{458, 705}";
}
);
background = {
anchors = (
{
name = bottom;
position = "{404, 0}";
},
{
name = top;
position = "{458, 705}";
}
);
paths = (
{
closed = 1;
nodes = (
"504 -12 OFFCURVE",
"602 5 OFFCURVE",
"685 42 CURVE",
"714 406 LINE",
"410 406 LINE",
"397 258 LINE",
"527 258 LINE",
"515 110 LINE",
"558 188 LINE",
"510 175 OFFCURVE",
"465 167 OFFCURVE",
"429 167 CURVE SMOOTH",
"325 167 OFFCURVE",
"271 215 OFFCURVE",
"271 313 CURVE SMOOTH",
"271 322 OFFCURVE",
"271 331 OFFCURVE",
"272 341 CURVE SMOOTH",
"283 466 OFFCURVE",
"350 534 OFFCURVE",
"480 534 CURVE SMOOTH",
"543 534 OFFCURVE",
"601 521 OFFCURVE",
"659 486 CURVE",
"732 647 LINE",
"681 687 OFFCURVE",
"584 717 OFFCURVE",
"483 717 CURVE SMOOTH",
"230 717 OFFCURVE",
"69 576 OFFCURVE",
"50 355 CURVE SMOOTH",
"49 341 OFFCURVE",
"48 328 OFFCURVE",
"48 314 CURVE SMOOTH",
"48 121 OFFCURVE",
"176 -12 OFFCURVE",
"411 -12 CURVE SMOOTH"
);
}
);
};
layerId = "4121B50C-FD42-45C5-8FBE-41E76D98F91E";
paths = (
{
closed = 1;
nodes = (
"504 -12 OFFCURVE",
"602 5 OFFCURVE",
"685 42 CURVE",
"714 406 LINE",
"410 406 LINE",
"397 258 LINE",
"527 258 LINE",
"515 110 LINE",
"558 188 LINE",
"510 175 OFFCURVE",
"465 167 OFFCURVE",
"429 167 CURVE SMOOTH",
"325 167 OFFCURVE",
"271 215 OFFCURVE",
"271 313 CURVE SMOOTH",
"271 374 OFFCURVE",
"283 534 OFFCURVE",
"480 534 CURVE SMOOTH",
"543 534 OFFCURVE",
"601 521 OFFCURVE",
"659 486 CURVE",
"732 647 LINE",
"681 687 OFFCURVE",
"584 717 OFFCURVE",
"483 717 CURVE SMOOTH",
"104 717 OFFCURVE",
"48 429 OFFCURVE",
"48 314 CURVE SMOOTH",
"48 121 OFFCURVE",
"176 -12 OFFCURVE",
"411 -12 CURVE SMOOTH"
);
}
);
width = 754;
},
{
anchors = (
{
name = bottom;
position = "{400, 0}";
},
{
name = top;
position = "{454, 705}";
}
);
layerId = "3836173C-3D8C-4FCA-AE22-DACC53398F6F";
paths = (
{
closed = 1;
nodes = (
"499 -12 OFFCURVE",
"597 6 OFFCURVE",
"676 42 CURVE",
"705 400 LINE",
"409 400 LINE",
"397 265 LINE",
"535 265 LINE",
"522 101 LINE",
"561 174 LINE",
"512 160 OFFCURVE",
"464 151 OFFCURVE",
"423 151 CURVE SMOOTH",
"311 151 OFFCURVE",
"253 204 OFFCURVE",
"253 311 CURVE SMOOTH",
"253 380 OFFCURVE",
"268 551 OFFCURVE",
"473 551 CURVE SMOOTH",
"539 551 OFFCURVE",
"598 536 OFFCURVE",
"656 498 CURVE",
"723 643 LINE",
"671 686 OFFCURVE",
"576 717 OFFCURVE",
"476 717 CURVE SMOOTH",
"107 717 OFFCURVE",
"51 430 OFFCURVE",
"51 312 CURVE SMOOTH",
"51 119 OFFCURVE",
"176 -12 OFFCURVE",
"407 -12 CURVE SMOOTH"
);
}
);
width = 749.66265;
},
{
anchors = (
{
name = bottom;
position = "{398, 0}";
},
{
name = top;
position = "{452, 705}";
}
);
layerId = "2739B000-4AFC-4B52-A42C-DF57BA9D87B1";
paths = (
{
closed = 1;
nodes = (
"496 -11 OFFCURVE",
"594 6 OFFCURVE",
"672 42 CURVE",
"700 397 LINE",
"409 397 LINE",
"398 268 LINE",
"539 268 LINE",
"525 96 LINE",
"563 167 LINE",
"513 152 OFFCURVE",
"463 143 OFFCURVE",
"420 143 CURVE SMOOTH",
"303 143 OFFCURVE",
"244 199 OFFCURVE",
"244 311 CURVE SMOOTH",
"244 383 OFFCURVE",
"261 559 OFFCURVE",
"469 559 CURVE SMOOTH",
"537 559 OFFCURVE",
"596 544 OFFCURVE",
"654 504 CURVE",
"718 642 LINE",
"667 686 OFFCURVE",
"573 716 OFFCURVE",
"472 716 CURVE SMOOTH",
"108 716 OFFCURVE",
"53 430 OFFCURVE",
"53 312 CURVE SMOOTH",
"53 118 OFFCURVE",
"177 -11 OFFCURVE",
"406 -11 CURVE SMOOTH"
);
}
);
width = 747.49398;
},
{
anchors = (
{
name = bottom;
position = "{368, 0}";
},
{
name = top;
position = "{422, 705}";
}
);
layerId = "6493C7B7-8C70-4036-9BD9-52D201B9B030";
paths = (
{
closed = 1;
nodes = (
"460 -8 OFFCURVE",
"558 13 OFFCURVE",
"609 40 CURVE",
"636 354 LINE",
"404 354 LINE",
"400 317 LINE",
"596 317 LINE",
"571 33 LINE",
"586 70 LINE",
"525 44 OFFCURVE",
"456 30 OFFCURVE",
"380 30 CURVE SMOOTH",
"203 30 OFFCURVE",
"115 124 OFFCURVE",
"115 300 CURVE SMOOTH",
"115 425 OFFCURVE",
"158 675 OFFCURVE",
"418 675 CURVE SMOOTH",
"507 675 OFFCURVE",
"572 650 OFFCURVE",
"631 586 CURVE",
"654 616 LINE",
"600 680 OFFCURVE",
"519 713 OFFCURVE",
"420 713 CURVE SMOOTH",
"128 713 OFFCURVE",
"76 436 OFFCURVE",
"76 301 CURVE SMOOTH",
"76 105 OFFCURVE",
"180 -8 OFFCURVE",
"380 -8 CURVE SMOOTH"
);
}
);
width = 717.13253;
},
{
anchors = (
{
name = bottom;
position = "{368, 0}";
},
{
name = top;
position = "{422, 705}";
}
);
layerId = "79B82BF0-C835-43CE-9365-7A5C6C681BA7";
paths = (
{
closed = 1;
nodes = (
"459 -8 OFFCURVE",
"557 13 OFFCURVE",
"608 40 CURVE",
"635 353 LINE",
"404 353 LINE",
"400 318 LINE",
"596 318 LINE",
"572 32 LINE",
"586 69 LINE",
"526 42 OFFCURVE",
"456 28 OFFCURVE",
"379 28 CURVE SMOOTH",
"202 28 OFFCURVE",
"113 123 OFFCURVE",
"113 300 CURVE SMOOTH",
"113 426 OFFCURVE",
"157 677 OFFCURVE",
"417 677 CURVE SMOOTH",
"507 677 OFFCURVE",
"572 652 OFFCURVE",
"631 588 CURVE",
"653 616 LINE",
"599 680 OFFCURVE",
"519 713 OFFCURVE",
"419 713 CURVE SMOOTH",
"128 713 OFFCURVE",
"76 436 OFFCURVE",
"76 301 CURVE SMOOTH",
"76 104 OFFCURVE",
"180 -8 OFFCURVE",
"380 -8 CURVE SMOOTH"
);
}
);
width = 716.6988;
}
);
leftKerningGroup = O;
leftMetricsKey = O;
rightKerningGroup = G;
unicode = 0047;
userData = {
anchors = (
);
b = {
};
com.typemytype.robofont.layerData = {
b = {
anchors = (
);
components = (
);
contours = (
{
points = (
{
segmentType = curve;
smooth = 1;
x = 783;
y = "-22";
},
{
smooth = 0;
x = 965;
y = "-22";
},
{
smooth = 0;
x = 1086;
y = 34;
},
{
segmentType = curve;
smooth = 1;
x = 1166;
y = 86;
},
{
smooth = 0;
x = 1270;
y = 154;
},
{
smooth = 0;
x = 1186;
y = 258;
},
{
segmentType = curve;
smooth = 1;
x = 1112;
y = 214;
},
{
smooth = 0;
x = 1024;
y = 162;
},
{
smooth = 0;
x = 939;
y = 120;
},
{
segmentType = curve;
smooth = 1;
x = 806;
y = 120;
},
{
smooth = 0;
x = 446;
y = 120;
},
{
smooth = 0;
x = 316;
y = 406;
},
{
segmentType = curve;
smooth = 1;
x = 316;
y = 706;
},
{
smooth = 0;
x = 316;
y = 1005;
},
{
smooth = 0;
x = 450;
y = 1296;
},
{
segmentType = curve;
smooth = 1;
x = 801;
y = 1296;
},
{
smooth = 0;
x = 980;
y = 1296;
},
{
smooth = 0;
x = 1053;
y = 1246;
},
{
segmentType = curve;
smooth = 1;
x = 1094;
y = 1225;
},
{
smooth = 0;
x = 1174;
y = 1184;
},
{
smooth = 0;
x = 1231;
y = 1300;
},
{
segmentType = curve;
smooth = 1;
x = 1156;
y = 1343;
},
{
smooth = 0;
x = 1106;
y = 1372;
},
{
smooth = 0;
x = 995;
y = 1438;
},
{
segmentType = curve;
smooth = 1;
x = 797;
y = 1438;
},
{
smooth = 0;
x = 359;
y = 1438;
},
{
smooth = 0;
x = 128;
y = 1093;
},
{
segmentType = curve;
smooth = 1;
x = 128;
y = 704;
},
{
smooth = 0;
x = 128;
y = 307;
},
{
smooth = 0;
x = 350;
y = "-22";
}
);
}
);
lib = {
};
name = G;
unicodes = (
);
width = 1448;
};
};
components = (
);
contours = (
);
lib = {
};
name = G;
unicodes = (
);
width = 1538;
};
},
{
color = 1;
glyphname = H;
lastChange = "2019-08-05 14:24:41 +0000";
layers = (
{
anchors = (
{
name = bottom;
position = "{355, 0}";
},
{
name = center;
position = "{402, 546}";
},
{
name = top;
position = "{415, 705}";
},
{
name = topleft;
position = "{67, 705}";
}
);
background = {
anchors = (
{
name = bottom;
position = "{355, 0}";
},
{
name = center;
position = "{402, 546}";
},
{
name = top;
position = "{415, 705}";
},
{
name = topleft;
position = "{67, 705}";
}
);
paths = (
{
closed = 1;
nodes = (
"626 377 LINE",
"150 377 LINE",
"178 705 LINE",
"136 705 LINE",
"75 0 LINE",
"117 0 LINE",
"146 338 LINE",
"622 338 LINE",
"593 0 LINE",
"635 0 LINE",
"696 705 LINE",
"654 705 LINE"
);
}
);
};
layerId = "F1F93986-3ED8-4AAE-84C4-CA3EEECDDFA0";
paths = (
{
closed = 1;
nodes = (
"626 377 LINE",
"150 377 LINE",
"178 705 LINE",
"136 705 LINE",
"75 0 LINE",
"117 0 LINE",
"146 338 LINE",
"622 338 LINE",
"593 0 LINE",
"635 0 LINE",
"696 705 LINE",
"654 705 LINE"
);
}
);
width = 751;
},
{
anchors = (
{
name = bottom;
position = "{375, 0}";
},
{
name = center;
position = "{425, 575}";
},
{
name = top;
position = "{436, 705}";
},
{
name = topleft;
position = "{57, 705}";
}
);
background = {
anchors = (
{
name = bottom;
position = "{375, 0}";
},
{
name = center;
position = "{425, 575}";
},
{
name = top;
position = "{436, 705}";
},
{
name = topleft;
position = "{57, 705}";
}
);
paths = (
{
closed = 1;
nodes = (
"539 445 LINE",
"289 445 LINE",
"311 705 LINE",
"96 705 LINE",
"35 0 LINE",
"250 0 LINE",
"273 269 LINE",
"523 269 LINE",
"500 0 LINE",
"715 0 LINE",
"776 705 LINE",
"561 705 LINE"
);
}
);
};
layerId = "4121B50C-FD42-45C5-8FBE-41E76D98F91E";
paths = (
{
closed = 1;
nodes = (
"540 445 LINE",
"289 445 LINE",
"311 705 LINE",
"96 705 LINE",
"35 0 LINE",
"250 0 LINE",
"273 269 LINE",
"524 269 LINE",
"501 0 LINE",
"716 0 LINE",
"777 705 LINE",
"562 705 LINE"
);
}
);
width = 794;
},
{
anchors = (
{
name = bottom;
position = "{369, 0}";
},
{
name = center;
position = "{418, 572}";
},
{
name = top;
position = "{429, 705}";
},
{
name = topleft;
position = "{54, 705}";
}
);
layerId = "3836173C-3D8C-4FCA-AE22-DACC53398F6F";
paths = (
{
closed = 1;
nodes = (
"546 437 LINE",
"268 437 LINE",
"291 705 LINE",
"97 705 LINE",
"36 0 LINE",
"230 0 LINE",
"254 277 LINE",
"532 277 LINE",
"508 0 LINE",
"702 0 LINE",
"763 705 LINE",
"569 705 LINE"
);
}
);
width = 781;
},
{
anchors = (
{
name = bottom;
position = "{365, 0}";
},
{
name = center;
position = "{415, 570}";
},
{
name = top;
position = "{426, 705}";
},
{
name = topleft;
position = "{53, 705}";
}
);
layerId = "2739B000-4AFC-4B52-A42C-DF57BA9D87B1";
paths = (
{
closed = 1;
nodes = (
"550 433 LINE",
"258 433 LINE",
"281 705 LINE",
"97 705 LINE",
"36 0 LINE",
"220 0 LINE",
"244 281 LINE",
"536 281 LINE",
"512 0 LINE",
"695 0 LINE",
"756 705 LINE",
"573 705 LINE"
);
}
);
width = 774;
},
{
anchors = (
{
name = bottom;
position = "{355, 0}";
},
{
name = center;
position = "{402, 545}";
},
{
name = top;
position = "{415, 705}";
},
{
name = topleft;
position = "{67, 705}";
}
);
layerId = "6493C7B7-8C70-4036-9BD9-52D201B9B030";
paths = (
{
closed = 1;
nodes = (
"628 375 LINE",
"147 375 LINE",
"175 705 LINE",
"137 705 LINE",
"76 0 LINE",
"114 0 LINE",
"143 340 LINE",
"624 340 LINE",
"595 0 LINE",
"633 0 LINE",
"694 705 LINE",
"656 705 LINE"
);
}
);
width = 750.13774;
},
{
anchors = (
{
name = bottom;
position = "{353, 0}";
},
{
name = center;
position = "{400, 545}";
},
{
name = top;
position = "{413, 705}";
},
{
name = topleft;
position = "{66, 705}";
}
);
layerId = "79B82BF0-C835-43CE-9365-7A5C6C681BA7";
paths = (
{
closed = 1;
nodes = (
"628 375 LINE",
"144 375 LINE",
"172 705 LINE",
"137 705 LINE",
"76 0 LINE",
"111 0 LINE",
"141 341 LINE",
"625 341 LINE",
"595 0 LINE",
"631 0 LINE",
"692 705 LINE",
"656 705 LINE"
);
}
);
width = 748;
}
);
leftKerningGroup = H;
rightKerningGroup = H;
rightMetricsKey = "=|";
unicode = 0048;
userData = {
anchors = (
);
b = {
};
com.typemytype.robofont.layerData = {
b = {
anchors = (
);
components = (
);
contours = (
);
lib = {
};
name = H;
unicodes = (
);
width = 1464;
};
};
components = (
);
contours = (
);
lib = {
};
name = H;
unicodes = (
);
width = 1524;
};
},
{
glyphname = I;
lastChange = "2019-08-05 14:22:11 +0000";
layers = (
{
anchors = (
{
name = bottom;
position = "{96, 0}";
},
{
name = ogonek;
position = "{117, 0}";
},
{
name = top;
position = "{157, 705}";
},
{
name = topleft;
position = "{68, 705}";
}
);
background = {
anchors = (
{
name = bottom;
position = "{96, 0}";
},
{
name = ogonek;
position = "{117, 0}";
},
{
name = top;
position = "{157, 705}";
},
{
name = topleft;
position = "{68, 705}";
}
);
paths = (
{
closed = 1;
nodes = (
"117 0 LINE",
"178 705 LINE",
"136 705 LINE",
"75 0 LINE"
);
}
);
};
layerId = "F1F93986-3ED8-4AAE-84C4-CA3EEECDDFA0";
paths = (
{
closed = 1;
nodes = (
"117 0 LINE",
"178 705 LINE",
"136 705 LINE",
"75 0 LINE"
);
}
);
width = 234;
},
{
anchors = (
{
name = bottom;
position = "{142, 0}";
},
{
name = ogonek;
position = "{193, 0}";
},
{
name = top;
position = "{203, 705}";
},
{
name = topleft;
position = "{57, 705}";
}
);
background = {
anchors = (
{
name = bottom;
position = "{142, 0}";
},
{
name = ogonek;
position = "{193, 0}";
},
{
name = top;
position = "{203, 705}";
},
{
name = topleft;
position = "{57, 705}";
}
);
paths = (
{
closed = 1;
nodes = (
"250 0 LINE",
"311 705 LINE",
"96 705 LINE",
"35 0 LINE"
);
}
);
};
layerId = "4121B50C-FD42-45C5-8FBE-41E76D98F91E";
paths = (
{
closed = 1;
nodes = (
"250 0 LINE",
"311 705 LINE",
"96 705 LINE",
"35 0 LINE"
);
}
);
width = 329;
},
{
anchors = (
{
name = bottom;
position = "{136, 0}";
},
{
name = ogonek;
position = "{184, 0}";
},
{
name = top;
position = "{197, 705}";
},
{
name = topleft;
position = "{58, 705}";
}
);
layerId = "3836173C-3D8C-4FCA-AE22-DACC53398F6F";
paths = (
{
closed = 1;
nodes = (
"234 0 LINE",
"295 705 LINE",
"101 705 LINE",
"40 0 LINE"
);
}
);
width = 317.55422;
},
{
anchors = (
{
name = bottom;
position = "{134, 0}";
},
{
name = ogonek;
position = "{179, 0}";
},
{
name = top;
position = "{195, 705}";
},
{
name = topleft;
position = "{59, 705}";
}
);
layerId = "2739B000-4AFC-4B52-A42C-DF57BA9D87B1";
paths = (
{
closed = 1;
nodes = (
"226 0 LINE",
"287 705 LINE",
"103 705 LINE",
"42 0 LINE"
);
}
);
width = 311.83133;
},
{
anchors = (
{
name = bottom;
position = "{95, 0}";
},
{
name = ogonek;
position = "{115, 0}";
},
{
name = top;
position = "{156, 705}";
},
{
name = topleft;
position = "{68, 705}";
}
);
layerId = "6493C7B7-8C70-4036-9BD9-52D201B9B030";
paths = (
{
closed = 1;
nodes = (
"114 0 LINE",
"175 705 LINE",
"137 705 LINE",
"76 0 LINE"
);
}
);
width = 231.71084;
},
{
anchors = (
{
name = bottom;
position = "{94, 0}";
},
{
name = ogonek;
position = "{114, 0}";
},
{
name = top;
position = "{155, 705}";
},
{
name = topleft;
position = "{68, 705}";
}
);
layerId = "79B82BF0-C835-43CE-9365-7A5C6C681BA7";
paths = (
{
closed = 1;
nodes = (
"112 0 LINE",
"173 705 LINE",
"137 705 LINE",
"76 0 LINE"
);
}
);
width = 230.56627;
}
);
leftKerningGroup = H;
leftMetricsKey = H;
rightKerningGroup = H;
rightMetricsKey = H;
unicode = 0049;
userData = {
anchors = (
);
b = {
};
com.typemytype.robofont.layerData = {
b = {
anchors = (
);
components = (
);
contours = (
);
lib = {
};
name = I;
unicodes = (
);
width = 592;
};
};
components = (
);
contours = (
);
lib = {
};
name = I;
unicodes = (
);
width = 637;
};
},
{
glyphname = J;
lastChange = "2019-08-05 14:22:11 +0000";
layers = (
{
anchors = (
{
name = bottom;
position = "{160, 0}";
},
{
name = top;
position = "{220, 705}";
}
);
background = {
anchors = (
{
name = bottom;
position = "{160, 0}";
},
{
name = top;
position = "{220, 705}";
}
);
paths = (
{
closed = 1;
nodes = (
"23 -2 LINE SMOOTH",
"125 5 OFFCURVE",
"186 69 OFFCURVE",
"195 176 CURVE SMOOTH",
"241 705 LINE",
"199 705 LINE",
"153 180 LINE SMOOTH",
"146 97 OFFCURVE",
"98 42 OFFCURVE",
"22 36 CURVE SMOOTH",
"-28 32 LINE",
"-28 -6 LINE"
);
}
);
};
layerId = "F1F93986-3ED8-4AAE-84C4-CA3EEECDDFA0";
paths = (
{
closed = 1;
nodes = (
"23 -2 LINE SMOOTH",
"125 5 OFFCURVE",
"186 69 OFFCURVE",
"195 176 CURVE SMOOTH",
"241 705 LINE",
"199 705 LINE",
"153 180 LINE SMOOTH",
"146 97 OFFCURVE",
"98 42 OFFCURVE",
"22 36 CURVE SMOOTH",
"-28 32 LINE",
"-28 -6 LINE"
);
}
);
width = 297;
},
{
anchors = (
{
name = bottom;
position = "{224, 0}";
},
{
name = top;
position = "{285, 705}";
}
);
background = {
anchors = (
{
name = bottom;
position = "{224, 0}";
},
{
name = top;
position = "{285, 705}";
}
);
paths = (
{
closed = 1;
nodes = (
"97 -7 LINE SMOOTH",
"258 2 OFFCURVE",
"338 72 OFFCURVE",
"351 217 CURVE SMOOTH",
"393 705 LINE",
"178 705 LINE",
"136 221 LINE SMOOTH",
"133 181 OFFCURVE",
"113 166 OFFCURVE",
"69 164 CURVE SMOOTH",
"-17 159 LINE",
"-19 -12 LINE"
);
}
);
};
layerId = "4121B50C-FD42-45C5-8FBE-41E76D98F91E";
paths = (
{
closed = 1;
nodes = (
"97 -7 LINE SMOOTH",
"258 2 OFFCURVE",
"338 72 OFFCURVE",
"351 217 CURVE SMOOTH",
"393 705 LINE",
"178 705 LINE",
"136 221 LINE SMOOTH",
"133 181 OFFCURVE",
"113 166 OFFCURVE",
"69 164 CURVE SMOOTH",
"-17 159 LINE",
"-19 -12 LINE"
);
}
);
width = 411;
},
{
anchors = (
{
name = bottom;
position = "{216, 0}";
},
{
name = top;
position = "{277, 705}";
}
);
layerId = "3836173C-3D8C-4FCA-AE22-DACC53398F6F";
paths = (
{
closed = 1;
nodes = (
"88 -6 LINE SMOOTH",
"242 2 OFFCURVE",
"320 72 OFFCURVE",
"332 212 CURVE SMOOTH",
"375 705 LINE",
"181 705 LINE",
"138 216 LINE SMOOTH",
"135 171 OFFCURVE",
"111 151 OFFCURVE",
"63 149 CURVE SMOOTH",
"-18 144 LINE",
"-20 -11 LINE"
);
}
);
width = 397.26506;
},
{
anchors = (
{
name = bottom;
position = "{212, 0}";
},
{
name = top;
position = "{273, 705}";
}
);
layerId = "2739B000-4AFC-4B52-A42C-DF57BA9D87B1";
paths = (
{
closed = 1;
nodes = (
"84 -6 LINE SMOOTH",
"234 3 OFFCURVE",
"311 71 OFFCURVE",
"323 210 CURVE SMOOTH",
"366 705 LINE",
"182 705 LINE",
"139 214 LINE SMOOTH",
"135 166 OFFCURVE",
"110 144 OFFCURVE",
"61 141 CURVE SMOOTH",
"-19 136 LINE",
"-21 -11 LINE"
);
}
);
width = 390.39759;
},
{
anchors = (
{
name = bottom;
position = "{158, 0}";
},
{
name = top;
position = "{218, 705}";
}
);
layerId = "6493C7B7-8C70-4036-9BD9-52D201B9B030";
paths = (
{
closed = 1;
nodes = (
"21 -2 LINE SMOOTH",
"122 5 OFFCURVE",
"182 69 OFFCURVE",
"191 175 CURVE SMOOTH",
"237 705 LINE",
"200 705 LINE",
"153 179 LINE SMOOTH",
"146 95 OFFCURVE",
"98 39 OFFCURVE",
"21 33 CURVE SMOOTH",
"-28 29 LINE",
"-28 -6 LINE"
);
}
);
width = 294.25301;
},
{
anchors = (
{
name = bottom;
position = "{158, 0}";
},
{
name = top;
position = "{218, 705}";
}
);
layerId = "79B82BF0-C835-43CE-9365-7A5C6C681BA7";
paths = (
{
closed = 1;
nodes = (
"20 -2 LINE SMOOTH",
"120 5 OFFCURVE",
"180 69 OFFCURVE",
"189 175 CURVE SMOOTH",
"235 705 LINE",
"200 705 LINE",
"154 179 LINE SMOOTH",
"146 94 OFFCURVE",
"97 38 OFFCURVE",
"20 31 CURVE SMOOTH",
"-28 27 LINE",
"-28 -6 LINE"
);
}
);
width = 292.87952;
}
);
leftKerningGroup = J;
rightKerningGroup = J;
rightMetricsKey = H;
unicode = 004A;
userData = {
anchors = (
);
b = {
};
com.typemytype.robofont.layerData = {
b = {
anchors = (
);
components = (
);
contours = (
);
lib = {
};
name = J;
unicodes = (
);
width = 1003;
};
};
components = (
);
contours = (
);
lib = {
};
name = J;
unicodes = (
);
width = 1126;
};
},
{
color = 1;
glyphname = K;
lastChange = "2019-08-05 14:22:11 +0000";
layers = (
{
anchors = (
{
name = bottom;
position = "{281, 0}";
},
{
name = top;
position = "{341, 705}";
},
{
name = topleft;
position = "{67, 705}";
}
);
background = {
anchors = (
{
name = bottom;
position = "{281, 0}";
},
{
name = top;
position = "{341, 705}";
},
{
name = topleft;
position = "{67, 705}";
}
);
paths = (
{
closed = 1;
nodes = (
"170 374 LINE",
"168 342 LINE",
"610 705 LINE",
"549 705 LINE",
"151 377 LINE",
"150 377 LINE",
"178 705 LINE",
"136 705 LINE",
"75 0 LINE",
"117 0 LINE",
"146 338 LINE",
"148 338 LINE",
"511 0 LINE",
"571 0 LINE"
);
}
);
};
layerId = "F1F93986-3ED8-4AAE-84C4-CA3EEECDDFA0";
paths = (
{
closed = 1;
nodes = (
"170 374 LINE",
"168 342 LINE",
"610 705 LINE",
"549 705 LINE",
"151 377 LINE",
"150 377 LINE",
"178 705 LINE",
"136 705 LINE",
"75 0 LINE",
"117 0 LINE",
"146 338 LINE",
"148 338 LINE",
"511 0 LINE",
"571 0 LINE"
);
}
);
width = 590;
},
{
anchors = (
{
name = bottom;
position = "{340, 0}";
},
{
name = top;
position = "{401, 705}";
},
{
name = topleft;
position = "{57, 705}";
}
);
background = {
anchors = (
{
name = bottom;
position = "{340, 0}";
},
{
name = top;
position = "{401, 705}";
},
{
name = topleft;
position = "{57, 705}";
}
);
paths = (
{
closed = 1;
nodes = (
"459 416 LINE",
"454 331 LINE",
"820 705 LINE",
"565 705 LINE",
"286 408 LINE",
"285 408 LINE",
"311 705 LINE",
"96 705 LINE",
"35 0 LINE",
"250 0 LINE",
"277 314 LINE",
"280 314 LINE",
"513 0 LINE",
"765 0 LINE"
);
}
);
};
layerId = "4121B50C-FD42-45C5-8FBE-41E76D98F91E";
paths = (
{
closed = 1;
nodes = (
"459 416 LINE",
"454 331 LINE",
"820 705 LINE",
"565 705 LINE",
"286 408 LINE",
"285 408 LINE",
"311 705 LINE",
"96 705 LINE",
"35 0 LINE",
"250 0 LINE",
"277 314 LINE",
"280 314 LINE",
"513 0 LINE",
"765 0 LINE"
);
}
);
width = 739;
},
{
anchors = (
{
name = bottom;
position = "{333, 0}";
},
{
name = top;
position = "{394, 705}";
},
{
name = topleft;
position = "{58, 705}";
}
);
layerId = "3836173C-3D8C-4FCA-AE22-DACC53398F6F";
paths = (
{
closed = 1;
nodes = (
"424 411 LINE",
"420 332 LINE",
"795 705 LINE",
"563 705 LINE",
"270 404 LINE",
"269 404 LINE",
"295 705 LINE",
"101 705 LINE",
"40 0 LINE",
"234 0 LINE",
"261 317 LINE",
"264 317 LINE",
"513 0 LINE",
"742 0 LINE"
);
}
);
width = 721.04819;
},
{
anchors = (
{
name = bottom;
position = "{329, 0}";
},
{
name = top;
position = "{390, 705}";
},
{
name = topleft;
position = "{59, 705}";
}
);
layerId = "2739B000-4AFC-4B52-A42C-DF57BA9D87B1";
paths = (
{
closed = 1;
nodes = (
"407 408 LINE",
"402 333 LINE",
"782 705 LINE",
"562 705 LINE",
"262 402 LINE",
"261 402 LINE",
"287 705 LINE",
"103 705 LINE",
"42 0 LINE",
"226 0 LINE",
"253 318 LINE",
"256 318 LINE",
"513 0 LINE",
"730 0 LINE"
);
}
);
width = 712.07229;
},
{
anchors = (
{
name = bottom;
position = "{280, 0}";
},
{
name = top;
position = "{340, 705}";
},
{
name = topleft;
position = "{67, 705}";
}
);
layerId = "6493C7B7-8C70-4036-9BD9-52D201B9B030";
paths = (
{
closed = 1;
nodes = (
"163 373 LINE",
"161 342 LINE",
"605 705 LINE",
"549 705 LINE",
"148 376 LINE",
"147 376 LINE",
"175 705 LINE",
"137 705 LINE",
"76 0 LINE",
"114 0 LINE",
"143 339 LINE",
"145 339 LINE",
"511 0 LINE",
"566 0 LINE"
);
}
);
width = 586.40964;
},
{
anchors = (
{
name = bottom;
position = "{279, 0}";
},
{
name = top;
position = "{339, 705}";
},
{
name = topleft;
position = "{67, 705}";
}
);
layerId = "79B82BF0-C835-43CE-9365-7A5C6C681BA7";
paths = (
{
closed = 1;
nodes = (
"160 372 LINE",
"158 342 LINE",
"602 705 LINE",
"548 705 LINE",
"146 376 LINE",
"145 376 LINE",
"173 705 LINE",
"137 705 LINE",
"76 0 LINE",
"112 0 LINE",
"141 339 LINE",
"143 339 LINE",
"511 0 LINE",
"564 0 LINE"
);
}
);
width = 584.61446;
}
);
leftKerningGroup = H;
leftMetricsKey = H;
rightKerningGroup = K;
unicode = 004B;
userData = {
anchors = (
);
b = {
};
com.typemytype.robofont.layerData = {
b = {
anchors = (
);
components = (
);
contours = (
);
lib = {
};
name = K;
unicodes = (
);
width = 1210;
};
};
components = (
);
contours = (
);
lib = {
};
name = K;
unicodes = (
);
width = 1329;
};
},
{
color = 1;
glyphname = L;
lastChange = "2019-08-05 14:22:11 +0000";
layers = (
{
anchors = (
{
name = bottom;
position = "{284, 0}";
},
{
name = center;
position = "{174, 387}";
},
{
name = dot;
position = "{396, 386}";
},
{
name = top;
position = "{157, 705}";
},
{
name = topright;
position = "{300, 705}";
}
);
background = {
anchors = (
{
name = bottom;
position = "{284, 0}";
},
{
name = center;
position = "{174, 387}";
},
{
name = dot;
position = "{396, 386}";
},
{
name = top;
position = "{157, 705}";
},
{
name = topright;
position = "{300, 705}";
}
);
paths = (
{
closed = 1;
nodes = (
"493 0 LINE",
"496 39 LINE",
"120 39 LINE",
"178 705 LINE",
"136 705 LINE",
"75 0 LINE"
);
}
);
};
layerId = "F1F93986-3ED8-4AAE-84C4-CA3EEECDDFA0";
paths = (
{
closed = 1;
nodes = (
"493 0 LINE",
"496 39 LINE",
"120 39 LINE",
"178 705 LINE",
"136 705 LINE",
"75 0 LINE"
);
}
);
width = 527;
},
{
anchors = (
{
name = bottom;
position = "{293, 0}";
},
{
name = center;
position = "{224, 387}";
},
{
name = dot;
position = "{478, 402}";
},
{
name = top;
position = "{203, 705}";
},
{
name = topright;
position = "{401, 705}";
}
);
background = {
anchors = (
{
name = bottom;
position = "{293, 0}";
},
{
name = center;
position = "{224, 387}";
},
{
name = dot;
position = "{478, 402}";
},
{
name = top;
position = "{203, 705}";
},
{
name = topright;
position = "{401, 705}";
}
);
paths = (
{
closed = 1;
nodes = (
"550 0 LINE",
"565 178 LINE",
"265 178 LINE",
"311 705 LINE",
"96 705 LINE",
"35 0 LINE"
);
}
);
};
layerId = "4121B50C-FD42-45C5-8FBE-41E76D98F91E";
paths = (
{
closed = 1;
nodes = (
"550 0 LINE",
"565 178 LINE",
"265 178 LINE",
"311 705 LINE",
"96 705 LINE",
"35 0 LINE"
);
}
);
width = 598;
},
{
anchors = (
{
name = bottom;
position = "{292, 0}";
},
{
name = center;
position = "{218, 387}";
},
{
name = dot;
position = "{468, 400}";
},
{
name = top;
position = "{197, 705}";
},
{
name = topright;
position = "{389, 705}";
}
);
layerId = "3836173C-3D8C-4FCA-AE22-DACC53398F6F";
paths = (
{
closed = 1;
nodes = (
"543 0 LINE",
"557 161 LINE",
"248 161 LINE",
"295 705 LINE",
"101 705 LINE",
"40 0 LINE"
);
}
);
width = 589.44578;
},
{
anchors = (
{
name = bottom;
position = "{291, 0}";
},
{
name = center;
position = "{215, 387}";
},
{
name = dot;
position = "{463, 399}";
},
{
name = top;
position = "{195, 705}";
},
{
name = topright;
position = "{383, 705}";
}
);
layerId = "2739B000-4AFC-4B52-A42C-DF57BA9D87B1";
paths = (
{
closed = 1;
nodes = (
"540 0 LINE",
"553 153 LINE",
"239 153 LINE",
"287 705 LINE",
"103 705 LINE",
"42 0 LINE"
);
}
);
width = 585.16867;
},
{
anchors = (
{
name = bottom;
position = "{284, 0}";
},
{
name = center;
position = "{173, 387}";
},
{
name = dot;
position = "{394, 386}";
},
{
name = top;
position = "{156, 705}";
},
{
name = topright;
position = "{298, 705}";
}
);
layerId = "6493C7B7-8C70-4036-9BD9-52D201B9B030";
paths = (
{
closed = 1;
nodes = (
"492 0 LINE",
"494 36 LINE",
"117 36 LINE",
"175 705 LINE",
"137 705 LINE",
"76 0 LINE"
);
}
);
width = 525.28916;
},
{
anchors = (
{
name = bottom;
position = "{284, 0}";
},
{
name = center;
position = "{172, 387}";
},
{
name = dot;
position = "{393, 385}";
},
{
name = top;
position = "{155, 705}";
},
{
name = topright;
position = "{296, 705}";
}
);
layerId = "79B82BF0-C835-43CE-9365-7A5C6C681BA7";
paths = (
{
closed = 1;
nodes = (
"491 0 LINE",
"493 34 LINE",
"115 34 LINE",
"173 705 LINE",
"137 705 LINE",
"76 0 LINE"
);
}
);
width = 524.43373;
}
);
leftKerningGroup = H;
leftMetricsKey = H;
rightKerningGroup = L;
unicode = 004C;
userData = {
anchors = (
);
b = {
};
com.typemytype.robofont.layerData = {
b = {
anchors = (
);
components = (
);
contours = (
{
points = (
{
segmentType = curve;
smooth = 1;
x = 266;
y = 0;
},
{
segmentType = line;
smooth = 1;
x = 1035;
y = 0;
},
{
smooth = 0;
x = 1084;
y = 0;
},
{
smooth = 0;
x = 1108;
y = 34;
},
{
segmentType = curve;
smooth = 1;
x = 1108;
y = 71;
},
{
smooth = 0;
x = 1108;
y = 107;
},
{
smooth = 0;
x = 1084;
y = 141;
},
{
segmentType = curve;
smooth = 1;
x = 1035;
y = 141;
},
{
segmentType = line;
smooth = 0;
x = 356;
y = 141;
},
{
segmentType = line;
smooth = 0;
x = 356;
y = 665;
},
{
segmentType = line;
smooth = 1;
x = 975;
y = 665;
},
{
smooth = 0;
x = 1024;
y = 665;
},
{
smooth = 0;
x = 1049;
y = 698;
},
{
segmentType = curve;
smooth = 1;
x = 1049;
y = 734;
},
{
smooth = 0;
x = 1049;
y = 770;
},
{
smooth = 0;
x = 1026;
y = 803;
},
{
segmentType = curve;
smooth = 1;
x = 975;
y = 803;
},
{
segmentType = line;
smooth = 0;
x = 356;
y = 803;
},
{
segmentType = line;
smooth = 0;
x = 356;
y = 1285;
},
{
segmentType = line;
smooth = 1;
x = 1007;
y = 1285;
},
{
smooth = 0;
x = 1056;
y = 1285;
},
{
smooth = 0;
x = 1080;
y = 1319;
},
{
segmentType = curve;
smooth = 1;
x = 1080;
y = 1356;
},
{
smooth = 0;
x = 1080;
y = 1392;
},
{
smooth = 0;
x = 1056;
y = 1426;
},
{
segmentType = curve;
smooth = 1;
x = 1007;
y = 1426;
},
{
segmentType = line;
smooth = 1;
x = 261;
y = 1426;
},
{
smooth = 0;
x = 213;
y = 1426;
},
{
smooth = 0;
x = 178;
y = 1383;
},
{
segmentType = curve;
smooth = 1;
x = 178;
y = 1340;
},
{
segmentType = line;
smooth = 1;
x = 178;
y = 86;
},
{
smooth = 0;
x = 178;
y = 41;
},
{
smooth = 0;
x = 222;
y = 0;
}
);
}
);
lib = {
};
name = L;
unicodes = (
);
width = 1095;
};
};
components = (
);
contours = (
);
lib = {
};
name = L;
unicodes = (
);
width = 1169;
};
},
{
color = 1;
glyphname = M;
lastChange = "2019-08-05 14:22:11 +0000";
layers = (
{
anchors = (
{
name = bottom;
position = "{401, 0}";
},
{
name = top;
position = "{462, 705}";
}
);
background = {
anchors = (
{
name = bottom;
position = "{401, 0}";
},
{
name = top;
position = "{462, 705}";
}
);
paths = (
{
closed = 1;
nodes = (
"116 0 LINE",
"174 666 LINE",
"149 666 LINE",
"395 110 LINE",
"430 110 LINE",
"768 665 LINE",
"744 665 LINE",
"686 0 LINE",
"725 0 LINE",
"786 705 LINE",
"750 705 LINE",
"399 127 LINE",
"427 127 LINE",
"174 705 LINE",
"138 705 LINE",
"77 0 LINE"
);
}
);
};
layerId = "F1F93986-3ED8-4AAE-84C4-CA3EEECDDFA0";
paths = (
{
closed = 1;
nodes = (
"116 0 LINE",
"174 666 LINE",
"149 666 LINE",
"395 110 LINE",
"430 110 LINE",
"768 665 LINE",
"744 665 LINE",
"686 0 LINE",
"725 0 LINE",
"786 705 LINE",
"750 705 LINE",
"399 127 LINE",
"427 127 LINE",
"174 705 LINE",
"138 705 LINE",
"77 0 LINE"
);
}
);
width = 844;
},
{
anchors = (
{
name = bottom;
position = "{425, 0}";
},
{
name = top;
position = "{486, 705}";
}
);
background = {
anchors = (
{
name = bottom;
position = "{425, 0}";
},
{
name = top;
position = "{486, 705}";
}
);
paths = (
{
closed = 1;
nodes = (
"231 0 LINE",
"263 365 LINE",
"241 365 LINE",
"376 103 LINE",
"490 103 LINE",
"671 365 LINE",
"650 365 LINE",
"618 0 LINE",
"812 0 LINE",
"873 705 LINE",
"698 705 LINE",
"434 301 LINE",
"470 301 LINE",
"276 705 LINE",
"98 705 LINE",
"37 0 LINE"
);
}
);
};
layerId = "4121B50C-FD42-45C5-8FBE-41E76D98F91E";
paths = (
{
closed = 1;
nodes = (
"231 0 LINE",
"263 365 LINE",
"241 365 LINE",
"376 103 LINE",
"490 103 LINE",
"671 365 LINE",
"650 365 LINE",
"618 0 LINE",
"812 0 LINE",
"873 705 LINE",
"698 705 LINE",
"434 301 LINE",
"470 301 LINE",
"276 705 LINE",
"98 705 LINE",
"37 0 LINE"
);
}
);
width = 893;
},
{
anchors = (
{
name = bottom;
position = "{422, 0}";
},
{
name = top;
position = "{483, 705}";
}
);
layerId = "3836173C-3D8C-4FCA-AE22-DACC53398F6F";
paths = (
{
closed = 1;
nodes = (
"217 0 LINE",
"252 401 LINE",
"230 401 LINE",
"378 104 LINE",
"483 104 LINE",
"683 401 LINE",
"661 401 LINE",
"626 0 LINE",
"802 0 LINE",
"863 705 LINE",
"704 705 LINE",
"430 280 LINE",
"465 280 LINE",
"264 705 LINE",
"103 705 LINE",
"42 0 LINE"
);
}
);
width = 887.09639;
},
{
anchors = (
{
name = bottom;
position = "{421, 0}";
},
{
name = top;
position = "{482, 705}";
}
);
layerId = "2739B000-4AFC-4B52-A42C-DF57BA9D87B1";
paths = (
{
closed = 1;
nodes = (
"210 0 LINE",
"247 419 LINE",
"224 419 LINE",
"379 104 LINE",
"479 104 LINE",
"689 419 LINE",
"667 419 LINE",
"630 0 LINE",
"796 0 LINE",
"857 705 LINE",
"707 705 LINE",
"428 270 LINE",
"462 270 LINE",
"258 705 LINE",
"105 705 LINE",
"44 0 LINE"
);
}
);
width = 884.14458;
},
{
anchors = (
{
name = bottom;
position = "{400, 0}";
},
{
name = top;
position = "{461, 705}";
}
);
layerId = "6493C7B7-8C70-4036-9BD9-52D201B9B030";
paths = (
{
closed = 1;
nodes = (
"113 0 LINE",
"172 673 LINE",
"147 673 LINE",
"395 110 LINE",
"429 110 LINE",
"770 672 LINE",
"746 672 LINE",
"688 0 LINE",
"723 0 LINE",
"784 705 LINE",
"751 705 LINE",
"398 123 LINE",
"426 123 LINE",
"172 705 LINE",
"139 705 LINE",
"78 0 LINE"
);
}
);
width = 842.81928;
},
{
anchors = (
{
name = bottom;
position = "{400, 0}";
},
{
name = top;
position = "{461, 705}";
}
);
layerId = "79B82BF0-C835-43CE-9365-7A5C6C681BA7";
paths = (
{
closed = 1;
nodes = (
"112 0 LINE",
"171 677 LINE",
"146 677 LINE",
"396 110 LINE",
"428 110 LINE",
"771 676 LINE",
"747 676 LINE",
"688 0 LINE",
"722 0 LINE",
"783 705 LINE",
"752 705 LINE",
"398 121 LINE",
"425 121 LINE",
"170 705 LINE",
"139 705 LINE",
"78 0 LINE"
);
}
);
width = 842.22892;
}
);
leftKerningGroup = H;
leftMetricsKey = "=H+2";
rightKerningGroup = H;
rightMetricsKey = "=H+2";
unicode = 004D;
userData = {
anchors = (
);
b = {
};
com.typemytype.robofont.layerData = {
b = {
anchors = (
);
components = (
);
contours = (
);
lib = {
};
name = M;
unicodes = (
);
width = 1899;
};
};
components = (
);
contours = (
);
lib = {
};
name = M;
unicodes = (
);
width = 1984;
};
},
{
color = 1;
glyphname = N;
lastChange = "2019-08-05 14:22:11 +0000";
layers = (
{
anchors = (
{
name = bottom;
position = "{345, 0}";
},
{
name = top;
position = "{406, 705}";
}
);
background = {
anchors = (
{
name = bottom;
position = "{345, 0}";
},
{
name = top;
position = "{406, 705}";
}
);
paths = (
{
closed = 1;
nodes = (
"114 0 LINE",
"172 663 LINE",
"151 663 LINE",
"581 0 LINE",
"615 0 LINE",
"676 705 LINE",
"637 705 LINE",
"579 42 LINE",
"601 42 LINE",
"171 705 LINE",
"136 705 LINE",
"75 0 LINE"
);
}
);
};
layerId = "F1F93986-3ED8-4AAE-84C4-CA3EEECDDFA0";
paths = (
{
closed = 1;
nodes = (
"114 0 LINE",
"172 663 LINE",
"151 663 LINE",
"581 0 LINE",
"615 0 LINE",
"676 705 LINE",
"637 705 LINE",
"579 42 LINE",
"601 42 LINE",
"171 705 LINE",
"136 705 LINE",
"75 0 LINE"
);
}
);
width = 732;
},
{
anchors = (
{
name = bottom;
position = "{360, 0}";
},
{
name = top;
position = "{420, 705}";
}
);
background = {
anchors = (
{
name = bottom;
position = "{360, 0}";
},
{
name = top;
position = "{420, 705}";
}
);
paths = (
{
closed = 1;
nodes = (
"235 0 LINE",
"269 390 LINE",
"240 390 LINE",
"528 0 LINE",
"684 0 LINE",
"745 705 LINE",
"545 705 LINE",
"511 315 LINE",
"540 315 LINE",
"252 705 LINE",
"96 705 LINE",
"35 0 LINE"
);
}
);
};
layerId = "4121B50C-FD42-45C5-8FBE-41E76D98F91E";
paths = (
{
closed = 1;
nodes = (
"235 0 LINE",
"269 390 LINE",
"240 390 LINE",
"528 0 LINE",
"684 0 LINE",
"745 705 LINE",
"545 705 LINE",
"511 315 LINE",
"540 315 LINE",
"252 705 LINE",
"96 705 LINE",
"35 0 LINE"
);
}
);
width = 763;
},
{
anchors = (
{
name = bottom;
position = "{358, 0}";
},
{
name = top;
position = "{418, 705}";
}
);
layerId = "3836173C-3D8C-4FCA-AE22-DACC53398F6F";
paths = (
{
closed = 1;
nodes = (
"220 0 LINE",
"257 423 LINE",
"229 423 LINE",
"534 0 LINE",
"676 0 LINE",
"737 705 LINE",
"556 705 LINE",
"519 282 LINE",
"547 282 LINE",
"242 705 LINE",
"101 705 LINE",
"40 0 LINE"
);
}
);
width = 759.26506;
},
{
anchors = (
{
name = bottom;
position = "{357, 0}";
},
{
name = top;
position = "{417, 705}";
}
);
layerId = "2739B000-4AFC-4B52-A42C-DF57BA9D87B1";
paths = (
{
closed = 1;
nodes = (
"213 0 LINE",
"251 439 LINE",
"224 439 LINE",
"538 0 LINE",
"672 0 LINE",
"733 705 LINE",
"562 705 LINE",
"523 266 LINE",
"551 266 LINE",
"237 705 LINE",
"103 705 LINE",
"42 0 LINE"
);
}
);
width = 757.39759;
},
{
anchors = (
{
name = bottom;
position = "{345, 0}";
},
{
name = top;
position = "{406, 705}";
}
);
layerId = "6493C7B7-8C70-4036-9BD9-52D201B9B030";
paths = (
{
closed = 1;
nodes = (
"111 0 LINE",
"170 670 LINE",
"149 670 LINE",
"582 0 LINE",
"613 0 LINE",
"674 705 LINE",
"639 705 LINE",
"581 35 LINE",
"602 35 LINE",
"169 705 LINE",
"137 705 LINE",
"76 0 LINE"
);
}
);
width = 731.25301;
},
{
anchors = (
{
name = bottom;
position = "{344, 0}";
},
{
name = top;
position = "{406, 705}";
}
);
layerId = "79B82BF0-C835-43CE-9365-7A5C6C681BA7";
paths = (
{
closed = 1;
nodes = (
"110 0 LINE",
"169 673 LINE",
"148 673 LINE",
"583 0 LINE",
"612 0 LINE",
"673 705 LINE",
"640 705 LINE",
"581 32 LINE",
"603 32 LINE",
"168 705 LINE",
"137 705 LINE",
"76 0 LINE"
);
}
);
width = 730.87952;
}
);
leftKerningGroup = H;
leftMetricsKey = H;
rightKerningGroup = H;
rightMetricsKey = H;
unicode = 004E;
userData = {
anchors = (
);
b = {
};
com.typemytype.robofont.layerData = {
b = {
anchors = (
);
components = (
);
contours = (
);
lib = {
};
name = N;
unicodes = (
);
width = 1499;
};
};
components = (
);
contours = (
);
lib = {
};
name = N;
unicodes = (
);
width = 1557;
};
},
{
color = 1;
glyphname = Eng;
lastChange = "2019-08-05 14:22:11 +0000";
layers = (
{
anchors = (
{
name = bottom;
position = "{345, 0}";
},
{
name = top;
position = "{406, 705}";
}
);
background = {
anchors = (
{
name = bottom;
position = "{345, 0}";
},
{
name = top;
position = "{406, 705}";
}
);
paths = (
{
closed = 1;
nodes = (
"676 705 LINE",
"637 705 LINE",
"579 42 LINE",
"601 42 LINE",
"171 705 LINE",
"136 705 LINE",
"75 0 LINE",
"114 0 LINE",
"172 663 LINE",
"151 663 LINE",
"581 0 LINE",
"578 25 LINE",
"574 -21 LINE SMOOTH",
"567 -101 OFFCURVE",
"524 -147 OFFCURVE",
"454 -152 CURVE SMOOTH",
"413 -155 LINE",
"413 -193 LINE",
"457 -190 LINE SMOOTH",
"547 -184 OFFCURVE",
"604 -125 OFFCURVE",
"613 -22 CURVE SMOOTH"
);
}
);
};
layerId = "F1F93986-3ED8-4AAE-84C4-CA3EEECDDFA0";
paths = (
{
closed = 1;
nodes = (
"676 705 LINE",
"637 705 LINE",
"579 42 LINE",
"601 42 LINE",
"171 705 LINE",
"136 705 LINE",
"75 0 LINE",
"114 0 LINE",
"172 663 LINE",
"151 663 LINE",
"581 0 LINE",
"578 25 LINE",
"574 -21 LINE SMOOTH",
"567 -101 OFFCURVE",
"524 -147 OFFCURVE",
"454 -152 CURVE SMOOTH",
"413 -155 LINE",
"413 -193 LINE",
"457 -190 LINE SMOOTH",
"547 -184 OFFCURVE",
"604 -125 OFFCURVE",
"613 -22 CURVE SMOOTH"
);
}
);
width = 732;
},
{
anchors = (
{
name = bottom;
position = "{360, 0}";
},
{
name = top;
position = "{420, 705}";
}
);
background = {
anchors = (
{
name = bottom;
position = "{360, 0}";
},
{
name = top;
position = "{420, 705}";
}
);
paths = (
{
closed = 1;
nodes = (
"745 705 LINE",
"545 705 LINE",
"511 315 LINE",
"540 315 LINE",
"252 705 LINE",
"96 705 LINE",
"35 0 LINE",
"235 0 LINE",
"269 390 LINE",
"240 390 LINE",
"527 0 LINE",
"490 76 LINE",
"486 12 LINE SMOOTH",
"483 -20 OFFCURVE",
"462 -38 OFFCURVE",
"426 -42 CURVE SMOOTH",
"373 -48 LINE",
"374 -193 LINE",
"421 -190 LINE SMOOTH",
"612 -177 OFFCURVE",
"673 -124 OFFCURVE",
"687 35 CURVE SMOOTH"
);
}
);
};
layerId = "4121B50C-FD42-45C5-8FBE-41E76D98F91E";
paths = (
{
closed = 1;
nodes = (
"745 705 LINE",
"545 705 LINE",
"511 315 LINE",
"540 315 LINE",
"252 705 LINE",
"96 705 LINE",
"35 0 LINE",
"235 0 LINE",
"269 390 LINE",
"240 390 LINE",
"527 0 LINE",
"490 76 LINE",
"486 12 LINE SMOOTH",
"483 -20 OFFCURVE",
"462 -38 OFFCURVE",
"426 -42 CURVE SMOOTH",
"373 -48 LINE",
"374 -193 LINE",
"421 -190 LINE SMOOTH",
"612 -177 OFFCURVE",
"673 -124 OFFCURVE",
"687 35 CURVE SMOOTH"
);
}
);
width = 763;
},
{
anchors = (
{
name = bottom;
position = "{358, 0}";
},
{
name = top;
position = "{418, 705}";
}
);
layerId = "3836173C-3D8C-4FCA-AE22-DACC53398F6F";
paths = (
{
closed = 1;
nodes = (
"737 705 LINE",
"556 705 LINE",
"519 282 LINE",
"547 282 LINE",
"242 705 LINE",
"101 705 LINE",
"40 0 LINE",
"220 0 LINE",
"257 423 LINE",
"229 423 LINE",
"534 0 LINE",
"501 70 LINE",
"497 8 LINE SMOOTH",
"493 -30 OFFCURVE",
"469 -51 OFFCURVE",
"429 -55 CURVE SMOOTH",
"378 -61 LINE",
"379 -193 LINE",
"425 -190 LINE SMOOTH",
"604 -178 OFFCURVE",
"665 -124 OFFCURVE",
"678 28 CURVE SMOOTH"
);
}
);
width = 759.26506;
},
{
anchors = (
{
name = bottom;
position = "{357, 0}";
},
{
name = top;
position = "{417, 705}";
}
);
layerId = "2739B000-4AFC-4B52-A42C-DF57BA9D87B1";
paths = (
{
closed = 1;
nodes = (
"733 705 LINE",
"562 705 LINE",
"523 266 LINE",
"551 266 LINE",
"237 705 LINE",
"103 705 LINE",
"42 0 LINE",
"213 0 LINE",
"251 439 LINE",
"224 439 LINE",
"537 0 LINE",
"506 67 LINE",
"502 6 LINE SMOOTH",
"498 -35 OFFCURVE",
"473 -58 OFFCURVE",
"431 -62 CURVE SMOOTH",
"380 -67 LINE",
"381 -193 LINE",
"428 -190 LINE SMOOTH",
"600 -178 OFFCURVE",
"661 -124 OFFCURVE",
"674 25 CURVE SMOOTH"
);
}
);
width = 757.39759;
},
{
anchors = (
{
name = bottom;
position = "{345, 0}";
},
{
name = top;
position = "{406, 705}";
}
);
layerId = "6493C7B7-8C70-4036-9BD9-52D201B9B030";
paths = (
{
closed = 1;
nodes = (
"674 705 LINE",
"639 705 LINE",
"581 35 LINE",
"602 35 LINE",
"169 705 LINE",
"137 705 LINE",
"76 0 LINE",
"111 0 LINE",
"170 670 LINE",
"149 670 LINE",
"582 0 LINE",
"580 24 LINE",
"576 -22 LINE SMOOTH",
"569 -103 OFFCURVE",
"525 -150 OFFCURVE",
"455 -155 CURVE SMOOTH",
"414 -158 LINE",
"414 -193 LINE",
"458 -190 LINE SMOOTH",
"545 -184 OFFCURVE",
"602 -125 OFFCURVE",
"611 -23 CURVE SMOOTH"
);
}
);
width = 731.25301;
},
{
anchors = (
{
name = bottom;
position = "{344, 0}";
},
{
name = top;
position = "{406, 705}";
}
);
layerId = "79B82BF0-C835-43CE-9365-7A5C6C681BA7";
paths = (
{
closed = 1;
nodes = (
"673 705 LINE",
"640 705 LINE",
"581 32 LINE",
"603 32 LINE",
"168 705 LINE",
"137 705 LINE",
"76 0 LINE",
"110 0 LINE",
"169 673 LINE",
"148 673 LINE",
"583 0 LINE",
"581 23 LINE",
"577 -22 LINE SMOOTH",
"570 -104 OFFCURVE",
"526 -151 OFFCURVE",
"455 -156 CURVE SMOOTH",
"414 -159 LINE",
"414 -193 LINE",
"458 -190 LINE SMOOTH",
"545 -184 OFFCURVE",
"601 -125 OFFCURVE",
"610 -24 CURVE SMOOTH"
);
}
);
width = 730.87952;
}
);
leftKerningGroup = H;
leftMetricsKey = N;
widthMetricsKey = N;
rightKerningGroup = H;
unicode = 014A;
userData = {
com.typemytype.robofont.layerData = {
b = {
anchors = (
);
components = (
);
contours = (
);
lib = {
};
name = Eng;
unicodes = (
);
width = 1495;
};
};
};
},
{
color = 1;
glyphname = O;
lastChange = "2019-08-05 14:24:49 +0000";
layers = (
{
anchors = (
{
name = Qtail;
position = "{353, -8}";
},
{
name = bottom;
position = "{354, 0}";
},
{
name = center;
position = "{386, 353}";
},
{
name = ogonek;
position = "{409, 0}";
},
{
name = top;
position = "{415, 705}";
},
{
name = topleft;
position = "{66, 705}";
},
{
name = topright;
position = "{488, 705}";
}
);
background = {
anchors = (
{
name = Qtail;
position = "{353, -8}";
},
{
name = bottom;
position = "{354, 0}";
},
{
name = center;
position = "{386, 353}";
},
{
name = ogonek;
position = "{409, 0}";
},
{
name = top;
position = "{415, 705}";
},
{
name = topleft;
position = "{66, 705}";
},
{
name = topright;
position = "{488, 705}";
}
);
paths = (
{
closed = 1;
nodes = (
"208.216 713 OFFCURVE",
"75 551 OFFCURVE",
"75 304 CURVE SMOOTH",
"75 107 OFFCURVE",
"179.253 -8 OFFCURVE",
"354 -8 CURVE SMOOTH",
"560.784 -8 OFFCURVE",
"694 154 OFFCURVE",
"694 401 CURVE SMOOTH",
"694 598 OFFCURVE",
"589.747 713 OFFCURVE",
"415 713 CURVE SMOOTH"
);
},
{
closed = 1;
nodes = (
"203.291 33 OFFCURVE",
"120 128 OFFCURVE",
"120 304 CURVE SMOOTH",
"120 530 OFFCURVE",
"232.236 672 OFFCURVE",
"414 672 CURVE SMOOTH",
"565.709 672 OFFCURVE",
"649 577 OFFCURVE",
"649 401 CURVE SMOOTH",
"649 175 OFFCURVE",
"536.763 33 OFFCURVE",
"355 33 CURVE SMOOTH"
);
}
);
};
layerId = "F1F93986-3ED8-4AAE-84C4-CA3EEECDDFA0";
paths = (
{
closed = 1;
nodes = (
"560.784 -8 OFFCURVE",
"694 154 OFFCURVE",
"694 401 CURVE SMOOTH",
"694 598 OFFCURVE",
"589.747 713 OFFCURVE",
"415 713 CURVE SMOOTH",
"208.216 713 OFFCURVE",
"75 551 OFFCURVE",
"75 304 CURVE SMOOTH",
"75 107 OFFCURVE",
"179.253 -8 OFFCURVE",
"354 -8 CURVE SMOOTH"
);
},
{
closed = 1;
nodes = (
"203 33 OFFCURVE",
"120 128 OFFCURVE",
"120 304 CURVE SMOOTH",
"120 530 OFFCURVE",
"232 672 OFFCURVE",
"414 672 CURVE SMOOTH",
"566 672 OFFCURVE",
"649 577 OFFCURVE",
"649 401 CURVE SMOOTH",
"649 175 OFFCURVE",
"537 33 OFFCURVE",
"355 33 CURVE SMOOTH"
);
}
);
width = 750;
},
{
anchors = (
{
name = Qtail;
position = "{386, -12}";
},
{
name = bottom;
position = "{387, 0}";
},
{
name = center;
position = "{418, 353}";
},
{
name = ogonek;
position = "{451, 0}";
},
{
name = top;
position = "{447, 705}";
},
{
name = topleft;
position = "{65, 705}";
},
{
name = topright;
position = "{512, 705}";
}
);
background = {
anchors = (
{
name = Qtail;
position = "{386, -12}";
},
{
name = bottom;
position = "{387, 0}";
},
{
name = center;
position = "{418, 353}";
},
{
name = ogonek;
position = "{451, 0}";
},
{
name = top;
position = "{447, 705}";
},
{
name = topleft;
position = "{65, 705}";
},
{
name = topright;
position = "{512, 705}";
}
);
paths = (
{
closed = 1;
nodes = (
"608 -12 OFFCURVE",
"768 131 OFFCURVE",
"787 347 CURVE SMOOTH",
"788 361 OFFCURVE",
"789 375 OFFCURVE",
"789 388 CURVE SMOOTH",
"789 586 OFFCURVE",
"653 717 OFFCURVE",
"445 717 CURVE SMOOTH",
"229 717 OFFCURVE",
"69 576 OFFCURVE",
"50 361 CURVE SMOOTH",
"49 348 OFFCURVE",
"48 334 OFFCURVE",
"48 321 CURVE SMOOTH",
"48 122 OFFCURVE",
"184 -12 OFFCURVE",
"392 -12 CURVE SMOOTH"
);
},
{
closed = 1;
nodes = (
"317 167 OFFCURVE",
"271 221 OFFCURVE",
"271 317 CURVE SMOOTH",
"271 326 OFFCURVE",
"271 336 OFFCURVE",
"272 346 CURVE SMOOTH",
"283 466 OFFCURVE",
"347 538 OFFCURVE",
"440 538 CURVE SMOOTH",
"521 538 OFFCURVE",
"566 484 OFFCURVE",
"566 389 CURVE SMOOTH",
"566 253 OFFCURVE",
"498 167 OFFCURVE",
"397 167 CURVE SMOOTH"
);
}
);
};
layerId = "4121B50C-FD42-45C5-8FBE-41E76D98F91E";
paths = (
{
closed = 1;
nodes = (
"624 -12 OFFCURVE",
"789 154 OFFCURVE",
"789 388 CURVE SMOOTH",
"789 586 OFFCURVE",
"653 717 OFFCURVE",
"445 717 CURVE SMOOTH",
"213 717 OFFCURVE",
"48 552 OFFCURVE",
"48 321 CURVE SMOOTH",
"48 121 OFFCURVE",
"185 -12 OFFCURVE",
"392 -12 CURVE SMOOTH"
);
},
{
closed = 1;
nodes = (
"317 167 OFFCURVE",
"271 221 OFFCURVE",
"271 317 CURVE SMOOTH",
"271 445 OFFCURVE",
"342 538 OFFCURVE",
"440 538 CURVE SMOOTH",
"521 538 OFFCURVE",
"566 484 OFFCURVE",
"566 389 CURVE SMOOTH",
"566 255 OFFCURVE",
"499 167 OFFCURVE",
"397 167 CURVE SMOOTH"
);
}
);
width = 819;
},
{
anchors = (
{
name = Qtail;
position = "{380, -12}";
},
{
name = bottom;
position = "{381, 0}";
},
{
name = center;
position = "{412, 353}";
},
{
name = ogonek;
position = "{444, 0}";
},
{
name = top;
position = "{441, 705}";
},
{
name = topleft;
position = "{63, 705}";
},
{
name = topright;
position = "{507, 705}";
}
);
layerId = "3836173C-3D8C-4FCA-AE22-DACC53398F6F";
paths = (
{
closed = 1;
nodes = (
"614 -12 OFFCURVE",
"776 154 OFFCURVE",
"776 390 CURVE SMOOTH",
"776 587 OFFCURVE",
"643 717 OFFCURVE",
"439 717 CURVE SMOOTH",
"210 717 OFFCURVE",
"49 552 OFFCURVE",
"49 319 CURVE SMOOTH",
"49 119 OFFCURVE",
"182 -12 OFFCURVE",
"385 -12 CURVE SMOOTH"
);
},
{
closed = 1;
nodes = (
"301 151 OFFCURVE",
"251 210 OFFCURVE",
"251 315 CURVE SMOOTH",
"251 455 OFFCURVE",
"327 554 OFFCURVE",
"435 554 CURVE SMOOTH",
"524 554 OFFCURVE",
"574 495 OFFCURVE",
"574 390 CURVE SMOOTH",
"574 245 OFFCURVE",
"502 151 OFFCURVE",
"390 151 CURVE SMOOTH"
);
}
);
width = 806;
},
{
anchors = (
{
name = Qtail;
position = "{376, -11}";
},
{
name = bottom;
position = "{377, 0}";
},
{
name = center;
position = "{408, 353}";
},
{
name = ogonek;
position = "{439, 0}";
},
{
name = top;
position = "{437, 705}";
},
{
name = topleft;
position = "{61, 705}";
},
{
name = topright;
position = "{504, 705}";
}
);
layerId = "2739B000-4AFC-4B52-A42C-DF57BA9D87B1";
paths = (
{
closed = 1;
nodes = (
"609 -11 OFFCURVE",
"768 154 OFFCURVE",
"768 390 CURVE SMOOTH",
"768 588 OFFCURVE",
"638 716 OFFCURVE",
"436 716 CURVE SMOOTH",
"208 716 OFFCURVE",
"49 552 OFFCURVE",
"49 318 CURVE SMOOTH",
"49 118 OFFCURVE",
"180 -11 OFFCURVE",
"381 -11 CURVE SMOOTH"
);
},
{
closed = 1;
nodes = (
"292 143 OFFCURVE",
"240 204 OFFCURVE",
"240 315 CURVE SMOOTH",
"240 460 OFFCURVE",
"318 562 OFFCURVE",
"431 562 CURVE SMOOTH",
"525 562 OFFCURVE",
"577 501 OFFCURVE",
"577 391 CURVE SMOOTH",
"577 241 OFFCURVE",
"502 143 OFFCURVE",
"385 143 CURVE SMOOTH"
);
}
);
width = 798;
},
{
anchors = (
{
name = Qtail;
position = "{351, -8}";
},
{
name = bottom;
position = "{352, 0}";
},
{
name = center;
position = "{384, 353}";
},
{
name = ogonek;
position = "{407, 0}";
},
{
name = top;
position = "{413, 705}";
},
{
name = topleft;
position = "{65, 705}";
},
{
name = topright;
position = "{486, 705}";
}
);
layerId = "6493C7B7-8C70-4036-9BD9-52D201B9B030";
paths = (
{
closed = 1;
nodes = (
"558 -8 OFFCURVE",
"691 154 OFFCURVE",
"691 401 CURVE SMOOTH",
"691 598 OFFCURVE",
"587 713 OFFCURVE",
"413 713 CURVE SMOOTH",
"207 713 OFFCURVE",
"75 551 OFFCURVE",
"75 304 CURVE SMOOTH",
"75 107 OFFCURVE",
"178 -8 OFFCURVE",
"352 -8 CURVE SMOOTH"
);
},
{
closed = 1;
nodes = (
"199 30 OFFCURVE",
"115 126 OFFCURVE",
"115 304 CURVE SMOOTH",
"115 532 OFFCURVE",
"228 675 OFFCURVE",
"412 675 CURVE SMOOTH",
"566 675 OFFCURVE",
"650 579 OFFCURVE",
"650 401 CURVE SMOOTH",
"650 173 OFFCURVE",
"537 30 OFFCURVE",
"353 30 CURVE SMOOTH"
);
}
);
width = 747;
},
{
anchors = (
{
name = Qtail;
position = "{351, -8}";
},
{
name = bottom;
position = "{352, 0}";
},
{
name = center;
position = "{384, 353}";
},
{
name = ogonek;
position = "{407, 0}";
},
{
name = top;
position = "{413, 705}";
},
{
name = topleft;
position = "{65, 705}";
},
{
name = topright;
position = "{486, 705}";
}
);
layerId = "79B82BF0-C835-43CE-9365-7A5C6C681BA7";
paths = (
{
closed = 1;
nodes = (
"558 -8 OFFCURVE",
"690 154 OFFCURVE",
"690 401 CURVE SMOOTH",
"690 598 OFFCURVE",
"587 713 OFFCURVE",
"413 713 CURVE SMOOTH",
"207 713 OFFCURVE",
"75 551 OFFCURVE",
"75 303 CURVE SMOOTH",
"75 107 OFFCURVE",
"178 -8 OFFCURVE",
"352 -8 CURVE SMOOTH"
);
},
{
closed = 1;
nodes = (
"198 28 OFFCURVE",
"114 125 OFFCURVE",
"114 304 CURVE SMOOTH",
"114 533 OFFCURVE",
"227 677 OFFCURVE",
"412 677 CURVE SMOOTH",
"567 677 OFFCURVE",
"651 580 OFFCURVE",
"651 401 CURVE SMOOTH",
"651 172 OFFCURVE",
"537 28 OFFCURVE",
"353 28 CURVE SMOOTH"
);
}
);
width = 746;
}
);
leftKerningGroup = O;
rightKerningGroup = O;
rightMetricsKey = "=|";
unicode = 004F;
userData = {
anchors = (
);
b = {
};
com.typemytype.robofont.guides = (
);
com.typemytype.robofont.layerData = {
b = {
anchors = (
);
components = (
);
contours = (
);
lib = {
};
name = O;
unicodes = (
);
width = 1597;
};
};
components = (
);
contours = (
);
lib = {
};
name = O;
unicodes = (
);
width = 1604;
};
},
{
color = 1;
glyphname = OE;
lastChange = "2019-08-05 14:22:11 +0000";
layers = (
{
anchors = (
{
name = bottom;
position = "{564, 0}";
},
{
name = top;
position = "{625, 705}";
}
);
background = {
anchors = (
{
name = bottom;
position = "{564, 0}";
},
{
name = top;
position = "{625, 705}";
}
);
paths = (
{
closed = 1;
nodes = (
"1028 705 LINE",
"452 705 LINE SMOOTH",
"120 705 OFFCURVE",
"75 439 OFFCURVE",
"75 302 CURVE SMOOTH",
"75 105 OFFCURVE",
"187 0 OFFCURVE",
"391 0 CURVE SMOOTH",
"967 0 LINE",
"970 39 LINE",
"588 39 LINE",
"614 338 LINE",
"976 338 LINE",
"980 377 LINE",
"618 377 LINE",
"643 666 LINE",
"1025 666 LINE"
);
},
{
closed = 1;
nodes = (
"397 39 LINE SMOOTH",
"211 39 OFFCURVE",
"119 127 OFFCURVE",
"119 303 CURVE SMOOTH",
"119 420 OFFCURVE",
"148 666 OFFCURVE",
"454 666 CURVE SMOOTH",
"601 666 LINE",
"546 39 LINE"
);
}
);
};
layerId = "F1F93986-3ED8-4AAE-84C4-CA3EEECDDFA0";
paths = (
{
closed = 1;
nodes = (
"1028 705 LINE",
"452 705 LINE SMOOTH",
"120 705 OFFCURVE",
"75 439 OFFCURVE",
"75 302 CURVE SMOOTH",
"75 105 OFFCURVE",
"187 0 OFFCURVE",
"391 0 CURVE SMOOTH",
"967 0 LINE",
"970 39 LINE",
"588 39 LINE",
"614 338 LINE",
"976 338 LINE",
"980 377 LINE",
"618 377 LINE",
"643 666 LINE",
"1025 666 LINE"
);
},
{
closed = 1;
nodes = (
"397 39 LINE SMOOTH",
"211 39 OFFCURVE",
"119 127 OFFCURVE",
"119 303 CURVE SMOOTH",
"119 420 OFFCURVE",
"148 666 OFFCURVE",
"454 666 CURVE SMOOTH",
"601 666 LINE",
"546 39 LINE"
);
}
);
width = 1038;
},
{
anchors = (
{
name = bottom;
position = "{588, 0}";
},
{
name = top;
position = "{649, 705}";
}
);
background = {
anchors = (
{
name = bottom;
position = "{588, 0}";
},
{
name = top;
position = "{649, 705}";
}
);
paths = (
{
closed = 1;
nodes = (
"1060 705 LINE",
"472 705 LINE SMOOTH",
"222 705 OFFCURVE",
"69 579 OFFCURVE",
"50 360 CURVE SMOOTH",
"49 345 OFFCURVE",
"48 331 OFFCURVE",
"48 317 CURVE SMOOTH",
"48 117 OFFCURVE",
"181 0 OFFCURVE",
"415 0 CURVE SMOOTH",
"999 0 LINE",
"1013 164 LINE",
"704 164 LINE",
"714 276 LINE",
"1000 276 LINE",
"1014 440 LINE",
"728 440 LINE",
"737 541 LINE",
"1046 541 LINE"
);
},
{
closed = 1;
nodes = (
"437 174 LINE SMOOTH",
"323 174 OFFCURVE",
"271 219 OFFCURVE",
"271 318 CURVE SMOOTH",
"271 327 OFFCURVE",
"271 336 OFFCURVE",
"272 346 CURVE SMOOTH",
"283 471 OFFCURVE",
"351 531 OFFCURVE",
"474 531 CURVE SMOOTH",
"531 531 LINE",
"500 174 LINE"
);
}
);
};
layerId = "4121B50C-FD42-45C5-8FBE-41E76D98F91E";
paths = (
{
closed = 1;
nodes = (
"1060 705 LINE",
"472 705 LINE SMOOTH",
"95 705 OFFCURVE",
"48 434 OFFCURVE",
"48 317 CURVE SMOOTH",
"48 117 OFFCURVE",
"181 0 OFFCURVE",
"415 0 CURVE SMOOTH",
"999 0 LINE",
"1013 164 LINE",
"704 164 LINE",
"714 276 LINE",
"1000 276 LINE",
"1014 440 LINE",
"728 440 LINE",
"737 541 LINE",
"1046 541 LINE"
);
},
{
closed = 1;
nodes = (
"437 174 LINE SMOOTH",
"323 174 OFFCURVE",
"271 219 OFFCURVE",
"271 318 CURVE SMOOTH",
"271 388 OFFCURVE",
"288 531 OFFCURVE",
"474 531 CURVE SMOOTH",
"531 531 LINE",
"500 174 LINE"
);
}
);
width = 1074;
},
{
anchors = (
{
name = bottom;
position = "{585, 0}";
},
{
name = top;
position = "{646, 705}";
}
);
layerId = "3836173C-3D8C-4FCA-AE22-DACC53398F6F";
paths = (
{
closed = 1;
nodes = (
"1056 705 LINE",
"470 705 LINE SMOOTH",
"98 705 OFFCURVE",
"51 435 OFFCURVE",
"51 315 CURVE SMOOTH",
"51 116 OFFCURVE",
"182 0 OFFCURVE",
"412 0 CURVE SMOOTH",
"995 0 LINE",
"1008 149 LINE",
"690 149 LINE",
"702 283 LINE",
"997 283 LINE",
"1010 432 LINE",
"715 432 LINE",
"726 556 LINE",
"1043 556 LINE"
);
},
{
closed = 1;
nodes = (
"432 158 LINE SMOOTH",
"310 158 OFFCURVE",
"253 208 OFFCURVE",
"253 316 CURVE SMOOTH",
"253 392 OFFCURVE",
"271 547 OFFCURVE",
"472 547 CURVE SMOOTH",
"539 547 LINE",
"506 158 LINE"
);
}
);
width = 1069.66265;
},
{
anchors = (
{
name = bottom;
position = "{584, 0}";
},
{
name = top;
position = "{645, 705}";
}
);
layerId = "2739B000-4AFC-4B52-A42C-DF57BA9D87B1";
paths = (
{
closed = 1;
nodes = (
"1054 705 LINE",
"468 705 LINE SMOOTH",
"100 705 OFFCURVE",
"53 435 OFFCURVE",
"53 314 CURVE SMOOTH",
"53 115 OFFCURVE",
"182 0 OFFCURVE",
"411 0 CURVE SMOOTH",
"993 0 LINE",
"1005 141 LINE",
"683 141 LINE",
"696 287 LINE",
"996 287 LINE",
"1008 429 LINE",
"708 429 LINE",
"720 564 LINE",
"1042 564 LINE"
);
},
{
closed = 1;
nodes = (
"430 150 LINE SMOOTH",
"303 150 OFFCURVE",
"244 202 OFFCURVE",
"244 315 CURVE SMOOTH",
"244 394 OFFCURVE",
"263 555 OFFCURVE",
"470 555 CURVE SMOOTH",
"544 555 LINE",
"508 150 LINE"
);
}
);
width = 1067.49398;
},
{
anchors = (
{
name = bottom;
position = "{563, 0}";
},
{
name = top;
position = "{624, 705}";
}
);
layerId = "6493C7B7-8C70-4036-9BD9-52D201B9B030";
paths = (
{
closed = 1;
nodes = (
"1027 705 LINE",
"452 705 LINE SMOOTH",
"121 705 OFFCURVE",
"76 439 OFFCURVE",
"76 302 CURVE SMOOTH",
"76 105 OFFCURVE",
"187 0 OFFCURVE",
"390 0 CURVE SMOOTH",
"966 0 LINE",
"969 36 LINE",
"585 36 LINE",
"612 339 LINE",
"975 339 LINE",
"979 375 LINE",
"615 375 LINE",
"641 669 LINE",
"1024 669 LINE"
);
},
{
closed = 1;
nodes = (
"396 36 LINE SMOOTH",
"208 36 OFFCURVE",
"115 125 OFFCURVE",
"115 303 CURVE SMOOTH",
"115 421 OFFCURVE",
"145 669 OFFCURVE",
"454 669 CURVE SMOOTH",
"603 669 LINE",
"547 36 LINE"
);
}
);
width = 1037.13253;
},
{
anchors = (
{
name = bottom;
position = "{563, 0}";
},
{
name = top;
position = "{624, 705}";
}
);
layerId = "79B82BF0-C835-43CE-9365-7A5C6C681BA7";
paths = (
{
closed = 1;
nodes = (
"1027 705 LINE",
"451 705 LINE SMOOTH",
"121 705 OFFCURVE",
"76 439 OFFCURVE",
"76 301 CURVE SMOOTH",
"76 105 OFFCURVE",
"187 0 OFFCURVE",
"390 0 CURVE SMOOTH",
"966 0 LINE",
"968 34 LINE",
"584 34 LINE",
"610 340 LINE",
"975 340 LINE",
"979 375 LINE",
"614 375 LINE",
"640 671 LINE",
"1024 671 LINE"
);
},
{
closed = 1;
nodes = (
"396 34 LINE SMOOTH",
"207 34 OFFCURVE",
"113 124 OFFCURVE",
"113 302 CURVE SMOOTH",
"113 421 OFFCURVE",
"143 671 OFFCURVE",
"453 671 CURVE SMOOTH",
"604 671 LINE",
"548 34 LINE"
);
}
);
width = 1036.6988;
}
);
leftKerningGroup = O;
leftMetricsKey = O;
rightKerningGroup = E;
rightMetricsKey = E;
unicode = 0152;
},
{
color = 1;
glyphname = P;
lastChange = "2019-08-05 14:22:11 +0000";
layers = (
{
anchors = (
{
name = bottom;
position = "{295, 0}";
},
{
name = top;
position = "{356, 705}";
}
);
background = {
anchors = (
{
name = bottom;
position = "{295, 0}";
},
{
name = top;
position = "{356, 705}";
}
);
paths = (
{
closed = 1;
nodes = (
"136 705 LINE",
"75 0 LINE",
"117 0 LINE",
"143 297 LINE",
"356 297 LINE SMOOTH",
"514 297 OFFCURVE",
"603 379 OFFCURVE",
"603 526 CURVE SMOOTH",
"603 641 OFFCURVE",
"529 705 OFFCURVE",
"391 705 CURVE SMOOTH"
);
},
{
closed = 1;
nodes = (
"146 336 LINE",
"175 666 LINE",
"388 666 LINE SMOOTH",
"503 666 OFFCURVE",
"560 617 OFFCURVE",
"560 524 CURVE SMOOTH",
"560 469 OFFCURVE",
"545 336 OFFCURVE",
"357 336 CURVE SMOOTH"
);
}
);
};
layerId = "F1F93986-3ED8-4AAE-84C4-CA3EEECDDFA0";
paths = (
{
closed = 1;
nodes = (
"136 705 LINE",
"75 0 LINE",
"117 0 LINE",
"143 297 LINE",
"356 297 LINE SMOOTH",
"514 297 OFFCURVE",
"603 379 OFFCURVE",
"603 526 CURVE SMOOTH",
"603 641 OFFCURVE",
"529 705 OFFCURVE",
"391 705 CURVE SMOOTH"
);
},
{
closed = 1;
nodes = (
"146 336 LINE",
"175 666 LINE",
"388 666 LINE SMOOTH",
"503 666 OFFCURVE",
"560 617 OFFCURVE",
"560 524 CURVE SMOOTH",
"560 469 OFFCURVE",
"545 336 OFFCURVE",
"357 336 CURVE SMOOTH"
);
}
);
width = 616;
},
{
anchors = (
{
name = bottom;
position = "{326, 0}";
},
{
name = top;
position = "{386, 705}";
}
);
background = {
anchors = (
{
name = bottom;
position = "{326, 0}";
},
{
name = top;
position = "{386, 705}";
}
);
paths = (
{
closed = 1;
nodes = (
"96 705 LINE",
"35 0 LINE",
"250 0 LINE",
"270 231 LINE",
"416 231 LINE SMOOTH",
"588 231 OFFCURVE",
"689 328 OFFCURVE",
"689 490 CURVE SMOOTH",
"689 623 OFFCURVE",
"603 705 OFFCURVE",
"452 705 CURVE SMOOTH"
);
},
{
closed = 1;
nodes = (
"284 395 LINE",
"297 541 LINE",
"403 541 LINE SMOOTH",
"457 541 OFFCURVE",
"485 524 OFFCURVE",
"485 484 CURVE SMOOTH",
"485 425 OFFCURVE",
"446 395 OFFCURVE",
"385 395 CURVE SMOOTH"
);
}
);
};
layerId = "4121B50C-FD42-45C5-8FBE-41E76D98F91E";
paths = (
{
closed = 1;
nodes = (
"96 705 LINE",
"35 0 LINE",
"250 0 LINE",
"270 231 LINE",
"416 231 LINE SMOOTH",
"588 231 OFFCURVE",
"689 328 OFFCURVE",
"689 490 CURVE SMOOTH",
"689 623 OFFCURVE",
"603 705 OFFCURVE",
"452 705 CURVE SMOOTH"
);
},
{
closed = 1;
nodes = (
"284 395 LINE",
"297 541 LINE",
"403 541 LINE SMOOTH",
"457 541 OFFCURVE",
"485 524 OFFCURVE",
"485 484 CURVE SMOOTH",
"485 425 OFFCURVE",
"446 395 OFFCURVE",
"385 395 CURVE SMOOTH"
);
}
);
width = 689;
},
{
anchors = (
{
name = bottom;
position = "{322, 0}";
},
{
name = top;
position = "{382, 705}";
}
);
layerId = "3836173C-3D8C-4FCA-AE22-DACC53398F6F";
paths = (
{
closed = 1;
nodes = (
"101 705 LINE",
"40 0 LINE",
"234 0 LINE",
"255 239 LINE",
"409 239 LINE SMOOTH",
"579 239 OFFCURVE",
"679 334 OFFCURVE",
"679 494 CURVE SMOOTH",
"679 625 OFFCURVE",
"594 705 OFFCURVE",
"445 705 CURVE SMOOTH"
);
},
{
closed = 1;
nodes = (
"267 388 LINE",
"282 556 LINE",
"401 556 LINE SMOOTH",
"463 556 OFFCURVE",
"494 535 OFFCURVE",
"494 489 CURVE SMOOTH",
"494 430 OFFCURVE",
"458 388 OFFCURVE",
"382 388 CURVE SMOOTH"
);
}
);
width = 680.20482;
},
{
anchors = (
{
name = bottom;
position = "{320, 0}";
},
{
name = top;
position = "{381, 705}";
}
);
layerId = "2739B000-4AFC-4B52-A42C-DF57BA9D87B1";
paths = (
{
closed = 1;
nodes = (
"103 705 LINE",
"42 0 LINE",
"226 0 LINE",
"247 243 LINE",
"405 243 LINE SMOOTH",
"575 243 OFFCURVE",
"673 337 OFFCURVE",
"673 497 CURVE SMOOTH",
"673 626 OFFCURVE",
"590 705 OFFCURVE",
"441 705 CURVE SMOOTH"
);
},
{
closed = 1;
nodes = (
"259 384 LINE",
"275 564 LINE",
"400 564 LINE SMOOTH",
"465 564 OFFCURVE",
"499 541 OFFCURVE",
"499 491 CURVE SMOOTH",
"499 433 OFFCURVE",
"464 384 OFFCURVE",
"380 384 CURVE SMOOTH"
);
}
);
width = 675.80723;
},
{
anchors = (
{
name = bottom;
position = "{294, 0}";
},
{
name = top;
position = "{355, 705}";
}
);
layerId = "6493C7B7-8C70-4036-9BD9-52D201B9B030";
paths = (
{
closed = 1;
nodes = (
"137 705 LINE",
"76 0 LINE",
"114 0 LINE",
"140 299 LINE",
"355 299 LINE SMOOTH",
"512 299 OFFCURVE",
"601 380 OFFCURVE",
"601 527 CURVE SMOOTH",
"601 641 OFFCURVE",
"527 705 OFFCURVE",
"390 705 CURVE SMOOTH"
);
},
{
closed = 1;
nodes = (
"143 335 LINE",
"172 669 LINE",
"388 669 LINE SMOOTH",
"504 669 OFFCURVE",
"562 619 OFFCURVE",
"562 525 CURVE SMOOTH",
"562 470 OFFCURVE",
"547 335 OFFCURVE",
"356 335 CURVE SMOOTH"
);
}
);
width = 614.24096;
},
{
anchors = (
{
name = bottom;
position = "{294, 0}";
},
{
name = top;
position = "{355, 705}";
}
);
layerId = "79B82BF0-C835-43CE-9365-7A5C6C681BA7";
paths = (
{
closed = 1;
nodes = (
"137 705 LINE",
"76 0 LINE",
"112 0 LINE",
"138 299 LINE",
"354 299 LINE SMOOTH",
"511 299 OFFCURVE",
"600 381 OFFCURVE",
"600 527 CURVE SMOOTH",
"600 642 OFFCURVE",
"526 705 OFFCURVE",
"389 705 CURVE SMOOTH"
);
},
{
closed = 1;
nodes = (
"141 334 LINE",
"171 671 LINE",
"387 671 LINE SMOOTH",
"505 671 OFFCURVE",
"563 620 OFFCURVE",
"563 525 CURVE SMOOTH",
"563 471 OFFCURVE",
"549 334 OFFCURVE",
"356 334 CURVE SMOOTH"
);
}
);
width = 613.36145;
}
);
leftKerningGroup = H;
leftMetricsKey = H;
rightKerningGroup = P;
unicode = 0050;
userData = {
anchors = (
);
b = {
};
com.typemytype.robofont.layerData = {
b = {
anchors = (
);
components = (
);
contours = (
{
points = (
{
segmentType = curve;
smooth = 1;
x = 266;
y = 0;
},
{
segmentType = line;
smooth = 1;
x = 1035;
y = 0;
},
{
smooth = 0;
x = 1084;
y = 0;
},
{
smooth = 0;
x = 1108;
y = 34;
},
{
segmentType = curve;
smooth = 1;
x = 1108;
y = 71;
},
{
smooth = 0;
x = 1108;
y = 107;
},
{
smooth = 0;
x = 1084;
y = 141;
},
{
segmentType = curve;
smooth = 1;
x = 1035;
y = 141;
},
{
segmentType = line;
smooth = 0;
x = 356;
y = 141;
},
{
segmentType = line;
smooth = 0;
x = 356;
y = 665;
},
{
segmentType = line;
smooth = 1;
x = 975;
y = 665;
},
{
smooth = 0;
x = 1024;
y = 665;
},
{
smooth = 0;
x = 1049;
y = 698;
},
{
segmentType = curve;
smooth = 1;
x = 1049;
y = 734;
},
{
smooth = 0;
x = 1049;
y = 770;
},
{
smooth = 0;
x = 1026;
y = 803;
},
{
segmentType = curve;
smooth = 1;
x = 975;
y = 803;
},
{
segmentType = line;
smooth = 0;
x = 356;
y = 803;
},
{
segmentType = line;
smooth = 0;
x = 356;
y = 1285;
},
{
segmentType = line;
smooth = 1;
x = 1007;
y = 1285;
},
{
smooth = 0;
x = 1056;
y = 1285;
},
{
smooth = 0;
x = 1080;
y = 1319;
},
{
segmentType = curve;
smooth = 1;
x = 1080;
y = 1356;
},
{
smooth = 0;
x = 1080;
y = 1392;
},
{
smooth = 0;
x = 1056;
y = 1426;
},
{
segmentType = curve;
smooth = 1;
x = 1007;
y = 1426;
},
{
segmentType = line;
smooth = 1;
x = 261;
y = 1426;
},
{
smooth = 0;
x = 213;
y = 1426;
},
{
smooth = 0;
x = 178;
y = 1383;
},
{
segmentType = curve;
smooth = 1;
x = 178;
y = 1340;
},
{
segmentType = line;
smooth = 1;
x = 178;
y = 86;
},
{
smooth = 0;
x = 178;
y = 41;
},
{
smooth = 0;
x = 222;
y = 0;
}
);
}
);
lib = {
};
name = P;
unicodes = (
);
width = 1201;
};
};
components = (
);
contours = (
);
lib = {
};
name = P;
unicodes = (
);
width = 1319;
};
},
{
color = 1;
glyphname = Thorn;
lastChange = "2019-08-05 14:22:11 +0000";
layers = (
{
anchors = (
{
name = bottom;
position = "{295, 0}";
},
{
name = top;
position = "{356, 705}";
}
);
background = {
anchors = (
{
name = bottom;
position = "{295, 0}";
},
{
name = top;
position = "{356, 705}";
}
);
paths = (
{
closed = 1;
nodes = (
"166 569 LINE",
"178 705 LINE",
"136 705 LINE",
"75 0 LINE",
"117 0 LINE",
"131 161 LINE",
"344 161 LINE SMOOTH",
"502 161 OFFCURVE",
"591 243 OFFCURVE",
"591 390 CURVE SMOOTH",
"591 505 OFFCURVE",
"517 569 OFFCURVE",
"379 569 CURVE SMOOTH"
);
},
{
closed = 1;
nodes = (
"134 200 LINE",
"163 530 LINE",
"376 530 LINE SMOOTH",
"491 530 OFFCURVE",
"548 481 OFFCURVE",
"548 388 CURVE SMOOTH",
"548 337 OFFCURVE",
"536 200 OFFCURVE",
"346 200 CURVE SMOOTH"
);
}
);
};
layerId = "F1F93986-3ED8-4AAE-84C4-CA3EEECDDFA0";
paths = (
{
closed = 1;
nodes = (
"166 569 LINE",
"178 705 LINE",
"136 705 LINE",
"75 0 LINE",
"117 0 LINE",
"131 161 LINE",
"344 161 LINE SMOOTH",
"502 161 OFFCURVE",
"591 243 OFFCURVE",
"591 390 CURVE SMOOTH",
"591 505 OFFCURVE",
"517 569 OFFCURVE",
"379 569 CURVE SMOOTH"
);
},
{
closed = 1;
nodes = (
"134 200 LINE",
"163 530 LINE",
"376 530 LINE SMOOTH",
"491 530 OFFCURVE",
"548 481 OFFCURVE",
"548 388 CURVE SMOOTH",
"548 337 OFFCURVE",
"536 200 OFFCURVE",
"346 200 CURVE SMOOTH"
);
}
);
width = 616;
},
{
anchors = (
{
name = bottom;
position = "{326, 0}";
},
{
name = top;
position = "{386, 705}";
}
);
background = {
anchors = (
{
name = bottom;
position = "{326, 0}";
},
{
name = top;
position = "{386, 705}";
}
);
paths = (
{
closed = 1;
nodes = (
"299 605 LINE",
"307 705 LINE",
"96 705 LINE",
"35 0 LINE",
"246 0 LINE",
"257 131 LINE",
"407 131 LINE SMOOTH",
"569 131 OFFCURVE",
"667 217 OFFCURVE",
"679 361 CURVE SMOOTH",
"680 371 OFFCURVE",
"680 382 OFFCURVE",
"680 391 CURVE SMOOTH",
"680 524 OFFCURVE",
"594 605 OFFCURVE",
"443 605 CURVE SMOOTH"
);
},
{
closed = 1;
nodes = (
"272 295 LINE",
"284 441 LINE",
"394 441 LINE SMOOTH",
"448 441 OFFCURVE",
"477 424 OFFCURVE",
"477 383 CURVE SMOOTH",
"477 325 OFFCURVE",
"437 295 OFFCURVE",
"376 295 CURVE SMOOTH"
);
}
);
};
layerId = "4121B50C-FD42-45C5-8FBE-41E76D98F91E";
paths = (
{
closed = 1;
nodes = (
"299 605 LINE",
"307 705 LINE",
"96 705 LINE",
"35 0 LINE",
"246 0 LINE",
"257 131 LINE",
"407 131 LINE SMOOTH",
"651 131 OFFCURVE",
"680 313 OFFCURVE",
"680 391 CURVE SMOOTH",
"680 524 OFFCURVE",
"594 605 OFFCURVE",
"443 605 CURVE SMOOTH"
);
},
{
closed = 1;
nodes = (
"272 295 LINE",
"284 441 LINE",
"394 441 LINE SMOOTH",
"448 441 OFFCURVE",
"477 424 OFFCURVE",
"477 383 CURVE SMOOTH",
"477 325 OFFCURVE",
"437 295 OFFCURVE",
"376 295 CURVE SMOOTH"
);
}
);
width = 689;
},
{
anchors = (
{
name = bottom;
position = "{322, 0}";
},
{
name = top;
position = "{382, 705}";
}
);
layerId = "3836173C-3D8C-4FCA-AE22-DACC53398F6F";
paths = (
{
closed = 1;
nodes = (
"283 601 LINE",
"291 705 LINE",
"101 705 LINE",
"40 0 LINE",
"230 0 LINE",
"242 135 LINE",
"399 135 LINE SMOOTH",
"633 135 OFFCURVE",
"669 305 OFFCURVE",
"669 391 CURVE SMOOTH",
"669 522 OFFCURVE",
"585 601 OFFCURVE",
"435 601 CURVE SMOOTH"
);
},
{
closed = 1;
nodes = (
"255 284 LINE",
"269 452 LINE",
"392 452 LINE SMOOTH",
"453 452 OFFCURVE",
"486 431 OFFCURVE",
"486 384 CURVE SMOOTH",
"486 326 OFFCURVE",
"449 284 OFFCURVE",
"372 284 CURVE SMOOTH"
);
}
);
width = 680.20482;
},
{
anchors = (
{
name = bottom;
position = "{320, 0}";
},
{
name = top;
position = "{381, 705}";
}
);
layerId = "2739B000-4AFC-4B52-A42C-DF57BA9D87B1";
paths = (
{
closed = 1;
nodes = (
"275 598 LINE",
"284 705 LINE",
"103 705 LINE",
"42 0 LINE",
"223 0 LINE",
"234 136 LINE",
"396 136 LINE SMOOTH",
"624 136 OFFCURVE",
"664 300 OFFCURVE",
"664 391 CURVE SMOOTH",
"664 521 OFFCURVE",
"580 598 OFFCURVE",
"431 598 CURVE SMOOTH"
);
},
{
closed = 1;
nodes = (
"247 278 LINE",
"262 457 LINE",
"391 457 LINE SMOOTH",
"456 457 OFFCURVE",
"490 434 OFFCURVE",
"490 384 CURVE SMOOTH",
"490 327 OFFCURVE",
"455 278 OFFCURVE",
"371 278 CURVE SMOOTH"
);
}
);
width = 675.80723;
},
{
anchors = (
{
name = bottom;
position = "{294, 0}";
},
{
name = top;
position = "{355, 705}";
}
);
layerId = "6493C7B7-8C70-4036-9BD9-52D201B9B030";
paths = (
{
closed = 1;
nodes = (
"163 568 LINE",
"175 705 LINE",
"137 705 LINE",
"76 0 LINE",
"114 0 LINE",
"128 162 LINE",
"342 162 LINE SMOOTH",
"498 162 OFFCURVE",
"589 241 OFFCURVE",
"589 390 CURVE SMOOTH",
"589 505 OFFCURVE",
"515 568 OFFCURVE",
"377 568 CURVE SMOOTH"
);
},
{
closed = 1;
nodes = (
"131 198 LINE",
"160 532 LINE",
"376 532 LINE SMOOTH",
"492 532 OFFCURVE",
"550 482 OFFCURVE",
"550 388 CURVE SMOOTH",
"550 337 OFFCURVE",
"538 198 OFFCURVE",
"345 198 CURVE SMOOTH"
);
}
);
width = 614.24096;
},
{
anchors = (
{
name = bottom;
position = "{294, 0}";
},
{
name = top;
position = "{355, 705}";
}
);
layerId = "79B82BF0-C835-43CE-9365-7A5C6C681BA7";
paths = (
{
closed = 1;
nodes = (
"161 568 LINE",
"173 705 LINE",
"137 705 LINE",
"76 0 LINE",
"112 0 LINE",
"126 162 LINE",
"342 162 LINE SMOOTH",
"497 162 OFFCURVE",
"588 240 OFFCURVE",
"588 390 CURVE SMOOTH",
"588 504 OFFCURVE",
"514 568 OFFCURVE",
"377 568 CURVE SMOOTH"
);
},
{
closed = 1;
nodes = (
"129 197 LINE",
"159 533 LINE",
"375 533 LINE SMOOTH",
"493 533 OFFCURVE",
"551 483 OFFCURVE",
"551 388 CURVE SMOOTH",
"551 337 OFFCURVE",
"540 197 OFFCURVE",
"345 197 CURVE SMOOTH"
);
}
);
width = 613.36145;
}
);
leftKerningGroup = H;
leftMetricsKey = H;
rightKerningGroup = THORN;
unicode = 00DE;
},
{
color = 1;
glyphname = R;
lastChange = "2019-08-05 14:22:11 +0000";
layers = (
{
anchors = (
{
name = bottom;
position = "{313, 0}";
},
{
name = top;
position = "{374, 705}";
}
);
background = {
anchors = (
{
name = bottom;
position = "{313, 0}";
},
{
name = top;
position = "{374, 705}";
}
);
paths = (
{
closed = 1;
nodes = (
"117 0 LINE",
"144 312 LINE",
"302 312 LINE SMOOTH",
"380 312 OFFCURVE",
"418 296 OFFCURVE",
"449 227 CURVE SMOOTH",
"551 0 LINE",
"596 0 LINE",
"486 241 LINE SMOOTH",
"460 301 OFFCURVE",
"428 327 OFFCURVE",
"377 327 CURVE SMOOTH",
"369 327 LINE",
"358 315 LINE",
"511 315 OFFCURVE",
"604 393 OFFCURVE",
"604 531 CURVE SMOOTH",
"604 643 OFFCURVE",
"529 705 OFFCURVE",
"391 705 CURVE SMOOTH",
"136 705 LINE",
"75 0 LINE"
);
},
{
closed = 1;
nodes = (
"175 666 LINE",
"385 666 LINE SMOOTH",
"502 666 OFFCURVE",
"560 620 OFFCURVE",
"560 530 CURVE SMOOTH",
"560 413 OFFCURVE",
"490 351 OFFCURVE",
"356 351 CURVE SMOOTH",
"147 351 LINE"
);
}
);
};
layerId = "F1F93986-3ED8-4AAE-84C4-CA3EEECDDFA0";
paths = (
{
closed = 1;
nodes = (
"117 0 LINE",
"144 312 LINE",
"302 312 LINE SMOOTH",
"380 312 OFFCURVE",
"418 296 OFFCURVE",
"449 227 CURVE SMOOTH",
"551 0 LINE",
"596 0 LINE",
"486 241 LINE SMOOTH",
"460 301 OFFCURVE",
"428 327 OFFCURVE",
"377 327 CURVE SMOOTH",
"369 327 LINE",
"358 315 LINE",
"511 315 OFFCURVE",
"604 393 OFFCURVE",
"604 531 CURVE SMOOTH",
"604 643 OFFCURVE",
"529 705 OFFCURVE",
"391 705 CURVE SMOOTH",
"136 705 LINE",
"75 0 LINE"
);
},
{
closed = 1;
nodes = (
"175 666 LINE",
"385 666 LINE SMOOTH",
"502 666 OFFCURVE",
"560 620 OFFCURVE",
"560 530 CURVE SMOOTH",
"560 413 OFFCURVE",
"490 351 OFFCURVE",
"356 351 CURVE SMOOTH",
"147 351 LINE"
);
}
);
width = 654;
},
{
anchors = (
{
name = bottom;
position = "{341, 0}";
},
{
name = top;
position = "{401, 705}";
}
);
background = {
anchors = (
{
name = bottom;
position = "{341, 0}";
},
{
name = top;
position = "{401, 705}";
}
);
paths = (
{
closed = 1;
nodes = (
"250 0 LINE",
"272 252 LINE",
"307 252 LINE SMOOTH",
"328 252 OFFCURVE",
"349 246 OFFCURVE",
"358 227 CURVE SMOOTH",
"461 0 LINE",
"695 0 LINE",
"605 188 LINE SMOOTH",
"581 242 OFFCURVE",
"536 273 OFFCURVE",
"478 273 CURVE SMOOTH",
"423 273 LINE",
"417 254 LINE",
"591 254 OFFCURVE",
"690 347 OFFCURVE",
"690 499 CURVE SMOOTH",
"690 626 OFFCURVE",
"603 705 OFFCURVE",
"452 705 CURVE SMOOTH",
"96 705 LINE",
"35 0 LINE"
);
},
{
closed = 1;
nodes = (
"297 541 LINE",
"403 541 LINE SMOOTH",
"461 541 OFFCURVE",
"490 523 OFFCURVE",
"486 479 CURVE SMOOTH",
"481 428 OFFCURVE",
"443 402 OFFCURVE",
"385 402 CURVE SMOOTH",
"285 402 LINE"
);
}
);
};
layerId = "4121B50C-FD42-45C5-8FBE-41E76D98F91E";
paths = (
{
closed = 1;
nodes = (
"250 0 LINE",
"272 252 LINE",
"307 252 LINE SMOOTH",
"328 252 OFFCURVE",
"349 246 OFFCURVE",
"358 227 CURVE SMOOTH",
"461 0 LINE",
"695 0 LINE",
"605 188 LINE SMOOTH",
"581 242 OFFCURVE",
"536 273 OFFCURVE",
"478 273 CURVE SMOOTH",
"423 273 LINE",
"417 254 LINE",
"591 254 OFFCURVE",
"690 347 OFFCURVE",
"690 499 CURVE SMOOTH",
"690 626 OFFCURVE",
"603 705 OFFCURVE",
"452 705 CURVE SMOOTH",
"96 705 LINE",
"35 0 LINE"
);
},
{
closed = 1;
nodes = (
"297 541 LINE",
"403 541 LINE SMOOTH",
"530 541 OFFCURVE",
"508 402 OFFCURVE",
"385 402 CURVE SMOOTH",
"285 402 LINE"
);
}
);
width = 718;
},
{
layerId = "3836173C-3D8C-4FCA-AE22-DACC53398F6F";
width = 710.28916;
},
{
layerId = "2739B000-4AFC-4B52-A42C-DF57BA9D87B1";
width = 706.43373;
},
{
layerId = "6493C7B7-8C70-4036-9BD9-52D201B9B030";
width = 652.45783;
},
{
layerId = "79B82BF0-C835-43CE-9365-7A5C6C681BA7";
width = 651.68675;
}
);
leftKerningGroup = H;
leftMetricsKey = H;
rightKerningGroup = R;
unicode = 0052;
userData = {
anchors = (
);
b = {
};
com.typemytype.robofont.guides = (
);
com.typemytype.robofont.layerData = {
b = {
anchors = (
);
components = (
);
contours = (
{
points = (
{
segmentType = curve;
smooth = 1;
x = 267;
y = 0;
},
{
smooth = 0;
x = 311;
y = 0;
},
{
smooth = 0;
x = 356;
y = 27;
},
{
segmentType = curve;
smooth = 1;
x = 356;
y = 84;
},
{
segmentType = line;
smooth = 0;
x = 356;
y = 628;
},
{
segmentType = line;
smooth = 1;
x = 669;
y = 628;
},
{
smooth = 0;
x = 962;
y = 628;
},
{
smooth = 0;
x = 1182;
y = 722;
},
{
segmentType = curve;
smooth = 1;
x = 1182;
y = 1026;
},
{
smooth = 0;
x = 1182;
y = 1324;
},
{
smooth = 0;
x = 993;
y = 1426;
},
{
segmentType = curve;
smooth = 1;
x = 684;
y = 1426;
},
{
segmentType = line;
smooth = 1;
x = 268;
y = 1426;
},
{
smooth = 0;
x = 217;
y = 1426;
},
{
smooth = 0;
x = 178;
y = 1387;
},
{
segmentType = curve;
smooth = 1;
x = 178;
y = 1339;
},
{
segmentType = line;
smooth = 1;
x = 178;
y = 84;
},
{
smooth = 0;
x = 178;
y = 28;
},
{
smooth = 0;
x = 222;
y = 0;
}
);
},
{
points = (
{
segmentType = line;
smooth = 0;
x = 356;
y = 764;
},
{
segmentType = line;
smooth = 0;
x = 356;
y = 1285;
},
{
segmentType = line;
smooth = 1;
x = 684;
y = 1285;
},
{
smooth = 0;
x = 914;
y = 1285;
},
{
smooth = 0;
x = 1008;
y = 1210;
},
{
segmentType = curve;
smooth = 1;
x = 1008;
y = 1026;
},
{
smooth = 0;
x = 1008;
y = 838;
},
{
smooth = 0;
x = 901;
y = 764;
},
{
segmentType = curve;
smooth = 1;
x = 670;
y = 764;
}
);
}
);
lib = {
};
name = R;
unicodes = (
);
width = 1363;
};
};
components = (
);
contours = (
);
lib = {
};
name = R;
unicodes = (
);
width = 1408;
};
},
{
color = 1;
glyphname = S;
lastChange = "2019-08-05 14:22:11 +0000";
layers = (
{
anchors = (
{
name = bottom;
position = "{289, 0}";
},
{
name = top;
position = "{344, 705}";
}
);
background = {
anchors = (
{
name = bottom;
position = "{289, 0}";
},
{
name = top;
position = "{344, 705}";
}
);
paths = (
{
closed = 1;
nodes = (
"449 -8 OFFCURVE",
"549 76 OFFCURVE",
"549 197 CURVE SMOOTH",
"549 281 OFFCURVE",
"488 327 OFFCURVE",
"364 353 CURVE SMOOTH",
"267 373 LINE SMOOTH",
"174 392 OFFCURVE",
"133 429 OFFCURVE",
"133 497 CURVE SMOOTH",
"133 601 OFFCURVE",
"222 672 OFFCURVE",
"347 672 CURVE SMOOTH",
"431 672 OFFCURVE",
"492 648 OFFCURVE",
"549 587 CURVE",
"572 621 LINE",
"520 681 OFFCURVE",
"443 713 OFFCURVE",
"348 713 CURVE SMOOTH",
"199 713 OFFCURVE",
"92 624 OFFCURVE",
"92 494 CURVE SMOOTH",
"92 406 OFFCURVE",
"148 354 OFFCURVE",
"262 331 CURVE SMOOTH",
"360 311 LINE SMOOTH",
"462 290 OFFCURVE",
"507 257 OFFCURVE",
"507 194 CURVE SMOOTH",
"507 98 OFFCURVE",
"431 33 OFFCURVE",
"290 33 CURVE SMOOTH",
"186 33 OFFCURVE",
"125 58 OFFCURVE",
"60 115 CURVE",
"38 79 LINE",
"97 22 OFFCURVE",
"179 -8 OFFCURVE",
"289 -8 CURVE SMOOTH"
);
}
);
};
layerId = "F1F93986-3ED8-4AAE-84C4-CA3EEECDDFA0";
paths = (
{
closed = 1;
nodes = (
"449 -8 OFFCURVE",
"549 76 OFFCURVE",
"549 197 CURVE SMOOTH",
"549 281 OFFCURVE",
"488 327 OFFCURVE",
"364 353 CURVE SMOOTH",
"267 373 LINE SMOOTH",
"174 392 OFFCURVE",
"133 429 OFFCURVE",
"133 497 CURVE SMOOTH",
"133 601 OFFCURVE",
"222 672 OFFCURVE",
"347 672 CURVE SMOOTH",
"431 672 OFFCURVE",
"492 648 OFFCURVE",
"549 587 CURVE",
"572 621 LINE",
"520 681 OFFCURVE",
"443 713 OFFCURVE",
"348 713 CURVE SMOOTH",
"199 713 OFFCURVE",
"92 624 OFFCURVE",
"92 494 CURVE SMOOTH",
"92 406 OFFCURVE",
"148 354 OFFCURVE",
"262 331 CURVE SMOOTH",
"360 311 LINE SMOOTH",
"462 290 OFFCURVE",
"507 257 OFFCURVE",
"507 194 CURVE SMOOTH",
"507 98 OFFCURVE",
"431 33 OFFCURVE",
"290 33 CURVE SMOOTH",
"186 33 OFFCURVE",
"125 58 OFFCURVE",
"60 115 CURVE",
"38 79 LINE",
"97 22 OFFCURVE",
"179 -8 OFFCURVE",
"289 -8 CURVE SMOOTH"
);
}
);
width = 600;
},
{
anchors = (
{
name = bottom;
position = "{313, 0}";
},
{
name = top;
position = "{384, 705}";
}
);
background = {
anchors = (
{
name = bottom;
position = "{313, 0}";
},
{
name = top;
position = "{384, 705}";
}
);
paths = (
{
closed = 1;
nodes = (
"506 -12 OFFCURVE",
"638 86 OFFCURVE",
"638 238 CURVE SMOOTH",
"638 333 OFFCURVE",
"579 396 OFFCURVE",
"461 422 CURVE SMOOTH",
"343 448 LINE SMOOTH",
"291 459 OFFCURVE",
"280 469 OFFCURVE",
"281 484 CURVE SMOOTH",
"284 517 OFFCURVE",
"322 542 OFFCURVE",
"390 542 CURVE SMOOTH",
"462 542 OFFCURVE",
"530 523 OFFCURVE",
"575 490 CURVE",
"643 642 LINE",
"592 686 OFFCURVE",
"497 717 OFFCURVE",
"397 717 CURVE SMOOTH",
"204 717 OFFCURVE",
"70 617 OFFCURVE",
"70 465 CURVE SMOOTH",
"70 368 OFFCURVE",
"129 304 OFFCURVE",
"247 278 CURVE SMOOTH",
"365 252 LINE SMOOTH",
"412 242 OFFCURVE",
"426 232 OFFCURVE",
"426 216 CURVE SMOOTH",
"426 189 OFFCURVE",
"399 163 OFFCURVE",
"317 163 CURVE SMOOTH",
"239 163 OFFCURVE",
"149 188 OFFCURVE",
"92 225 CURVE",
"24 63 LINE",
"88 19 OFFCURVE",
"197 -12 OFFCURVE",
"312 -12 CURVE SMOOTH"
);
}
);
};
layerId = "4121B50C-FD42-45C5-8FBE-41E76D98F91E";
paths = (
{
closed = 1;
nodes = (
"506 -12 OFFCURVE",
"638 86 OFFCURVE",
"638 238 CURVE SMOOTH",
"638 333 OFFCURVE",
"579 396 OFFCURVE",
"461 422 CURVE SMOOTH",
"343 448 LINE SMOOTH",
"236 471 OFFCURVE",
"274 542 OFFCURVE",
"390 542 CURVE SMOOTH",
"462 542 OFFCURVE",
"530 523 OFFCURVE",
"575 490 CURVE",
"643 642 LINE",
"592 686 OFFCURVE",
"497 717 OFFCURVE",
"397 717 CURVE SMOOTH",
"204 717 OFFCURVE",
"70 617 OFFCURVE",
"70 465 CURVE SMOOTH",
"70 368 OFFCURVE",
"129 304 OFFCURVE",
"247 278 CURVE SMOOTH",
"365 252 LINE SMOOTH",
"412 242 OFFCURVE",
"426 232 OFFCURVE",
"426 216 CURVE SMOOTH",
"426 189 OFFCURVE",
"399 163 OFFCURVE",
"317 163 CURVE SMOOTH",
"239 163 OFFCURVE",
"149 188 OFFCURVE",
"92 225 CURVE",
"24 63 LINE",
"88 19 OFFCURVE",
"197 -12 OFFCURVE",
"312 -12 CURVE SMOOTH"
);
}
);
width = 663;
},
{
layerId = "3836173C-3D8C-4FCA-AE22-DACC53398F6F";
width = 655.40964;
},
{
layerId = "2739B000-4AFC-4B52-A42C-DF57BA9D87B1";
width = 651.61446;
},
{
layerId = "6493C7B7-8C70-4036-9BD9-52D201B9B030";
width = 598.48193;
},
{
layerId = "79B82BF0-C835-43CE-9365-7A5C6C681BA7";
width = 597.72289;
}
);
leftKerningGroup = S;
rightKerningGroup = S;
unicode = 0053;
userData = {
anchors = (
);
b = {
};
com.typemytype.robofont.layerData = {
b = {
anchors = (
);
components = (
);
contours = (
);
lib = {
};
name = S;
unicodes = (
);
width = 1274;
};
};
components = (
);
contours = (
);
lib = {
};
name = S;
unicodes = (
);
width = 1317;
};
},
{
color = 1;
glyphname = Germandbls;
lastChange = "2019-08-05 14:22:11 +0000";
layers = (
{
background = {
paths = (
{
closed = 1;
nodes = (
"117 0 LINE",
"157 466 LINE SMOOTH",
"169 603 OFFCURVE",
"253 673 OFFCURVE",
"398 673 CURVE SMOOTH",
"509 673 OFFCURVE",
"570 628 OFFCURVE",
"570 541 CURVE SMOOTH",
"570 434 OFFCURVE",
"495 374 OFFCURVE",
"386 374 CURVE SMOOTH",
"266 374 LINE",
"263 335 LINE",
"411 335 LINE SMOOTH",
"524 335 OFFCURVE",
"578 289 OFFCURVE",
"578 205 CURVE SMOOTH",
"578 100 OFFCURVE",
"511 33 OFFCURVE",
"393 33 CURVE SMOOTH",
"324 33 OFFCURVE",
"273 50 OFFCURVE",
"225 97 CURVE",
"200 63 LINE",
"243 18 OFFCURVE",
"311 -7 OFFCURVE",
"392 -7 CURVE SMOOTH",
"659 -7 OFFCURVE",
"713 336 OFFCURVE",
"466 367 CURVE",
"466 353 LINE",
"555 371 OFFCURVE",
"614 449 OFFCURVE",
"614 546 CURVE SMOOTH",
"614 649 OFFCURVE",
"531 713 OFFCURVE",
"398 713 CURVE SMOOTH",
"235 713 OFFCURVE",
"130 631 OFFCURVE",
"116 471 CURVE SMOOTH",
"75 0 LINE"
);
}
);
};
layerId = "F1F93986-3ED8-4AAE-84C4-CA3EEECDDFA0";
paths = (
{
closed = 1;
nodes = (
"117 0 LINE",
"157 466 LINE SMOOTH",
"169 603 OFFCURVE",
"253 673 OFFCURVE",
"398 673 CURVE SMOOTH",
"509 673 OFFCURVE",
"570 628 OFFCURVE",
"570 541 CURVE SMOOTH",
"570 434 OFFCURVE",
"495 374 OFFCURVE",
"386 374 CURVE SMOOTH",
"266 374 LINE",
"263 335 LINE",
"411 335 LINE SMOOTH",
"524 335 OFFCURVE",
"578 289 OFFCURVE",
"578 205 CURVE SMOOTH",
"578 100 OFFCURVE",
"511 33 OFFCURVE",
"393 33 CURVE SMOOTH",
"324 33 OFFCURVE",
"273 50 OFFCURVE",
"225 97 CURVE",
"200 63 LINE",
"243 18 OFFCURVE",
"311 -7 OFFCURVE",
"392 -7 CURVE SMOOTH",
"659 -7 OFFCURVE",
"713 336 OFFCURVE",
"466 367 CURVE",
"466 353 LINE",
"555 371 OFFCURVE",
"614 449 OFFCURVE",
"614 546 CURVE SMOOTH",
"614 649 OFFCURVE",
"531 713 OFFCURVE",
"398 713 CURVE SMOOTH",
"235 713 OFFCURVE",
"130 631 OFFCURVE",
"116 471 CURVE SMOOTH",
"75 0 LINE"
);
}
);
width = 697;
},
{
background = {
paths = (
{
closed = 1;
nodes = (
"250 0 LINE",
"287 426 LINE SMOOTH",
"294 507 OFFCURVE",
"339 548 OFFCURVE",
"427 548 CURVE SMOOTH",
"485 548 OFFCURVE",
"512 534 OFFCURVE",
"512 502 CURVE SMOOTH",
"512 458 OFFCURVE",
"479 432 OFFCURVE",
"425 432 CURVE SMOOTH",
"370 432 LINE",
"355 271 LINE",
"428 271 LINE SMOOTH",
"496 271 OFFCURVE",
"524 258 OFFCURVE",
"524 224 CURVE SMOOTH",
"524 184 OFFCURVE",
"493 154 OFFCURVE",
"450 154 CURVE SMOOTH",
"415 154 OFFCURVE",
"384 162 OFFCURVE",
"345 186 CURVE",
"281 40 LINE",
"336 3 OFFCURVE",
"388 -12 OFFCURVE",
"472 -12 CURVE SMOOTH",
"619 -12 OFFCURVE",
"713 63 OFFCURVE",
"724 188 CURVE SMOOTH",
"733 289 OFFCURVE",
"674 365 OFFCURVE",
"581 375 CURVE",
"584 353 LINE",
"671 385 OFFCURVE",
"718 449 OFFCURVE",
"718 530 CURVE SMOOTH",
"718 644 OFFCURVE",
"614 716 OFFCURVE",
"445 716 CURVE SMOOTH",
"218 716 OFFCURVE",
"89 621 OFFCURVE",
"73 434 CURVE SMOOTH",
"35 0 LINE"
);
}
);
};
layerId = "4121B50C-FD42-45C5-8FBE-41E76D98F91E";
paths = (
{
closed = 1;
nodes = (
"250 0 LINE",
"287 426 LINE SMOOTH",
"294 507 OFFCURVE",
"339 548 OFFCURVE",
"427 548 CURVE SMOOTH",
"485 548 OFFCURVE",
"512 534 OFFCURVE",
"512 502 CURVE SMOOTH",
"512 458 OFFCURVE",
"479 432 OFFCURVE",
"425 432 CURVE SMOOTH",
"370 432 LINE",
"355 271 LINE",
"428 271 LINE SMOOTH",
"496 271 OFFCURVE",
"524 258 OFFCURVE",
"524 224 CURVE SMOOTH",
"524 184 OFFCURVE",
"493 154 OFFCURVE",
"450 154 CURVE SMOOTH",
"415 154 OFFCURVE",
"384 162 OFFCURVE",
"345 186 CURVE",
"281 40 LINE",
"336 3 OFFCURVE",
"388 -12 OFFCURVE",
"472 -12 CURVE SMOOTH",
"748 -12 OFFCURVE",
"827 349 OFFCURVE",
"581 375 CURVE",
"584 353 LINE",
"671 385 OFFCURVE",
"718 449 OFFCURVE",
"718 530 CURVE SMOOTH",
"718 644 OFFCURVE",
"614 716 OFFCURVE",
"445 716 CURVE SMOOTH",
"218 716 OFFCURVE",
"89 621 OFFCURVE",
"73 434 CURVE SMOOTH",
"35 0 LINE"
);
}
);
width = 764;
},
{
layerId = "3836173C-3D8C-4FCA-AE22-DACC53398F6F";
paths = (
{
closed = 1;
nodes = (
"234 0 LINE",
"271 431 LINE SMOOTH",
"279 519 OFFCURVE",
"329 563 OFFCURVE",
"424 563 CURVE SMOOTH",
"488 563 OFFCURVE",
"519 545 OFFCURVE",
"519 507 CURVE SMOOTH",
"519 455 OFFCURVE",
"481 425 OFFCURVE",
"420 425 CURVE SMOOTH",
"357 425 LINE",
"344 279 LINE",
"426 279 LINE SMOOTH",
"499 279 OFFCURVE",
"531 262 OFFCURVE",
"531 222 CURVE SMOOTH",
"531 174 OFFCURVE",
"495 139 OFFCURVE",
"443 139 CURVE SMOOTH",
"404 139 OFFCURVE",
"371 149 OFFCURVE",
"331 175 CURVE",
"271 43 LINE",
"325 5 OFFCURVE",
"379 -11 OFFCURVE",
"462 -11 CURVE SMOOTH",
"737 -11 OFFCURVE",
"813 347 OFFCURVE",
"567 374 CURVE",
"570 353 LINE",
"657 383 OFFCURVE",
"705 449 OFFCURVE",
"705 532 CURVE SMOOTH",
"705 645 OFFCURVE",
"604 716 OFFCURVE",
"439 716 CURVE SMOOTH",
"220 716 OFFCURVE",
"94 622 OFFCURVE",
"78 438 CURVE SMOOTH",
"40 0 LINE"
);
}
);
width = 755.92771;
},
{
layerId = "2739B000-4AFC-4B52-A42C-DF57BA9D87B1";
paths = (
{
closed = 1;
nodes = (
"226 0 LINE",
"264 433 LINE SMOOTH",
"271 524 OFFCURVE",
"323 571 OFFCURVE",
"422 571 CURVE SMOOTH",
"489 571 OFFCURVE",
"522 551 OFFCURVE",
"522 509 CURVE SMOOTH",
"522 454 OFFCURVE",
"482 422 OFFCURVE",
"418 422 CURVE SMOOTH",
"351 422 LINE",
"338 283 LINE",
"425 283 LINE SMOOTH",
"501 283 OFFCURVE",
"534 264 OFFCURVE",
"534 221 CURVE SMOOTH",
"534 169 OFFCURVE",
"496 132 OFFCURVE",
"440 132 CURVE SMOOTH",
"399 132 OFFCURVE",
"364 142 OFFCURVE",
"323 170 CURVE",
"266 44 LINE",
"319 6 OFFCURVE",
"374 -11 OFFCURVE",
"458 -11 CURVE SMOOTH",
"732 -11 OFFCURVE",
"806 347 OFFCURVE",
"560 374 CURVE",
"563 353 LINE",
"650 382 OFFCURVE",
"699 449 OFFCURVE",
"699 533 CURVE SMOOTH",
"699 645 OFFCURVE",
"599 715 OFFCURVE",
"437 715 CURVE SMOOTH",
"221 715 OFFCURVE",
"96 623 OFFCURVE",
"81 441 CURVE SMOOTH",
"42 0 LINE"
);
}
);
width = 751.89157;
},
{
layerId = "6493C7B7-8C70-4036-9BD9-52D201B9B030";
paths = (
{
closed = 1;
nodes = (
"114 0 LINE",
"154 467 LINE SMOOTH",
"166 605 OFFCURVE",
"251 676 OFFCURVE",
"397 676 CURVE SMOOTH",
"510 676 OFFCURVE",
"571 630 OFFCURVE",
"571 542 CURVE SMOOTH",
"571 433 OFFCURVE",
"495 373 OFFCURVE",
"385 373 CURVE SMOOTH",
"263 373 LINE",
"261 337 LINE",
"411 337 LINE SMOOTH",
"525 337 OFFCURVE",
"579 290 OFFCURVE",
"579 205 CURVE SMOOTH",
"579 98 OFFCURVE",
"511 30 OFFCURVE",
"392 30 CURVE SMOOTH",
"322 30 OFFCURVE",
"270 47 OFFCURVE",
"222 95 CURVE",
"198 64 LINE",
"241 18 OFFCURVE",
"309 -7 OFFCURVE",
"390 -7 CURVE SMOOTH",
"657 -7 OFFCURVE",
"710 336 OFFCURVE",
"463 367 CURVE",
"463 353 LINE",
"552 371 OFFCURVE",
"611 449 OFFCURVE",
"611 546 CURVE SMOOTH",
"611 649 OFFCURVE",
"529 713 OFFCURVE",
"397 713 CURVE SMOOTH",
"235 713 OFFCURVE",
"131 631 OFFCURVE",
"117 472 CURVE SMOOTH",
"76 0 LINE"
);
}
);
width = 695.38554;
},
{
layerId = "79B82BF0-C835-43CE-9365-7A5C6C681BA7";
paths = (
{
closed = 1;
nodes = (
"112 0 LINE",
"152 467 LINE SMOOTH",
"164 606 OFFCURVE",
"250 678 OFFCURVE",
"397 678 CURVE SMOOTH",
"510 678 OFFCURVE",
"572 631 OFFCURVE",
"572 542 CURVE SMOOTH",
"572 433 OFFCURVE",
"496 372 OFFCURVE",
"385 372 CURVE SMOOTH",
"262 372 LINE",
"260 337 LINE",
"410 337 LINE SMOOTH",
"525 337 OFFCURVE",
"580 290 OFFCURVE",
"580 204 CURVE SMOOTH",
"580 97 OFFCURVE",
"512 29 OFFCURVE",
"391 29 CURVE SMOOTH",
"321 29 OFFCURVE",
"269 46 OFFCURVE",
"221 94 CURVE",
"197 64 LINE",
"240 19 OFFCURVE",
"308 -7 OFFCURVE",
"389 -7 CURVE SMOOTH",
"656 -7 OFFCURVE",
"709 336 OFFCURVE",
"462 367 CURVE",
"462 353 LINE",
"551 371 OFFCURVE",
"610 449 OFFCURVE",
"610 547 CURVE SMOOTH",
"610 649 OFFCURVE",
"528 713 OFFCURVE",
"396 713 CURVE SMOOTH",
"236 713 OFFCURVE",
"131 631 OFFCURVE",
"118 472 CURVE SMOOTH",
"76 0 LINE"
);
}
);
width = 694.57831;
}
);
leftKerningGroup = H;
leftMetricsKey = H;
rightKerningGroup = Germandbls;
rightMetricsKey = B;
unicode = 1E9E;
},
{
color = 1;
glyphname = Schwa;
lastChange = "2019-08-05 14:22:11 +0000";
layers = (
{
anchors = (
{
name = bottom;
position = "{350, 0}";
},
{
name = top;
position = "{411, 705}";
}
);
background = {
anchors = (
{
name = bottom;
position = "{350, 0}";
},
{
name = top;
position = "{411, 705}";
}
);
paths = (
{
closed = 1;
nodes = (
"638 -8 OFFCURVE",
"695 269 OFFCURVE",
"695 401 CURVE SMOOTH",
"695 596 OFFCURVE",
"583 713 OFFCURVE",
"395 713 CURVE SMOOTH",
"284 713 OFFCURVE",
"196 682 OFFCURVE",
"125 619 CURVE",
"144 583 LINE",
"218 646 OFFCURVE",
"286 672 OFFCURVE",
"393 672 CURVE SMOOTH",
"559 672 OFFCURVE",
"651 574 OFFCURVE",
"651 400 CURVE SMOOTH",
"651 283 OFFCURVE",
"604 33 OFFCURVE",
"359 33 CURVE SMOOTH",
"197 33 OFFCURVE",
"117 125 OFFCURVE",
"117 296 CURVE SMOOTH",
"117 314 OFFCURVE",
"118 333 OFFCURVE",
"120 352 CURVE",
"107 337 LINE",
"652 337 LINE",
"656 376 LINE",
"79 376 LINE",
"76 349 LINE SMOOTH",
"74 331 OFFCURVE",
"74 313 OFFCURVE",
"74 295 CURVE SMOOTH",
"74 110 OFFCURVE",
"167 -8 OFFCURVE",
"359 -8 CURVE SMOOTH"
);
}
);
};
layerId = "F1F93986-3ED8-4AAE-84C4-CA3EEECDDFA0";
paths = (
{
closed = 1;
nodes = (
"638 -8 OFFCURVE",
"695 269 OFFCURVE",
"695 401 CURVE SMOOTH",
"695 596 OFFCURVE",
"583 713 OFFCURVE",
"395 713 CURVE SMOOTH",
"284 713 OFFCURVE",
"196 682 OFFCURVE",
"125 619 CURVE",
"144 583 LINE",
"218 646 OFFCURVE",
"286 672 OFFCURVE",
"393 672 CURVE SMOOTH",
"559 672 OFFCURVE",
"651 574 OFFCURVE",
"651 400 CURVE SMOOTH",
"651 283 OFFCURVE",
"604 33 OFFCURVE",
"359 33 CURVE SMOOTH",
"197 33 OFFCURVE",
"117 125 OFFCURVE",
"117 296 CURVE SMOOTH",
"117 314 OFFCURVE",
"118 333 OFFCURVE",
"120 352 CURVE",
"107 337 LINE",
"652 337 LINE",
"656 376 LINE",
"79 376 LINE",
"76 349 LINE SMOOTH",
"74 331 OFFCURVE",
"74 313 OFFCURVE",
"74 295 CURVE SMOOTH",
"74 110 OFFCURVE",
"167 -8 OFFCURVE",
"359 -8 CURVE SMOOTH"
);
}
);
width = 751;
},
{
anchors = (
{
name = bottom;
position = "{393, 0}";
},
{
name = top;
position = "{454, 705}";
}
);
background = {
anchors = (
{
name = bottom;
position = "{393, 0}";
},
{
name = top;
position = "{454, 705}";
}
);
paths = (
{
closed = 1;
nodes = (
"607 -12 OFFCURVE",
"768 128 OFFCURVE",
"787 344 CURVE SMOOTH",
"788 358 OFFCURVE",
"789 371 OFFCURVE",
"789 384 CURVE SMOOTH",
"789 590 OFFCURVE",
"644 717 OFFCURVE",
"420 717 CURVE SMOOTH",
"297 717 OFFCURVE",
"184 690 OFFCURVE",
"105 648 CURVE",
"164 482 LINE",
"231 517 OFFCURVE",
"312 538 OFFCURVE",
"386 538 CURVE SMOOTH",
"508 538 OFFCURVE",
"566 489 OFFCURVE",
"566 387 CURVE SMOOTH",
"566 379 OFFCURVE",
"566 370 OFFCURVE",
"565 360 CURVE SMOOTH",
"553 222 OFFCURVE",
"494 158 OFFCURVE",
"394 158 CURVE SMOOTH",
"309 158 OFFCURVE",
"265 203 OFFCURVE",
"265 311 CURVE SMOOTH",
"265 323 OFFCURVE",
"266 335 OFFCURVE",
"267 349 CURVE",
"203 271 LINE",
"613 271 LINE",
"628 432 LINE",
"57 432 LINE",
"51 374 LINE SMOOTH",
"50 359 OFFCURVE",
"49 344 OFFCURVE",
"49 329 CURVE SMOOTH",
"49 129 OFFCURVE",
"170 -12 OFFCURVE",
"401 -12 CURVE SMOOTH"
);
}
);
};
layerId = "4121B50C-FD42-45C5-8FBE-41E76D98F91E";
paths = (
{
closed = 1;
nodes = (
"716 -12 OFFCURVE",
"789 264 OFFCURVE",
"789 384 CURVE SMOOTH",
"789 590 OFFCURVE",
"644 717 OFFCURVE",
"420 717 CURVE SMOOTH",
"297 717 OFFCURVE",
"184 690 OFFCURVE",
"105 648 CURVE",
"164 482 LINE",
"231 517 OFFCURVE",
"312 538 OFFCURVE",
"386 538 CURVE SMOOTH",
"508 538 OFFCURVE",
"566 489 OFFCURVE",
"566 387 CURVE SMOOTH",
"566 318 OFFCURVE",
"549 158 OFFCURVE",
"394 158 CURVE SMOOTH",
"309 158 OFFCURVE",
"265 203 OFFCURVE",
"265 311 CURVE SMOOTH",
"265 323 OFFCURVE",
"266 335 OFFCURVE",
"267 349 CURVE",
"203 271 LINE",
"613 271 LINE",
"628 432 LINE",
"57 432 LINE",
"51 374 LINE SMOOTH",
"50 359 OFFCURVE",
"49 344 OFFCURVE",
"49 329 CURVE SMOOTH",
"49 129 OFFCURVE",
"170 -12 OFFCURVE",
"401 -12 CURVE SMOOTH"
);
}
);
width = 820;
},
{
anchors = (
{
name = bottom;
position = "{388, 0}";
},
{
name = top;
position = "{449, 705}";
}
);
layerId = "3836173C-3D8C-4FCA-AE22-DACC53398F6F";
paths = (
{
closed = 1;
nodes = (
"707 -12 OFFCURVE",
"778 265 OFFCURVE",
"778 386 CURVE SMOOTH",
"778 591 OFFCURVE",
"637 717 OFFCURVE",
"417 717 CURVE SMOOTH",
"295 717 OFFCURVE",
"185 689 OFFCURVE",
"107 645 CURVE",
"162 494 LINE",
"229 533 OFFCURVE",
"309 554 OFFCURVE",
"387 554 CURVE SMOOTH",
"514 554 OFFCURVE",
"576 499 OFFCURVE",
"576 389 CURVE SMOOTH",
"576 314 OFFCURVE",
"556 143 OFFCURVE",
"390 143 CURVE SMOOTH",
"296 143 OFFCURVE",
"247 194 OFFCURVE",
"247 309 CURVE SMOOTH",
"247 322 OFFCURVE",
"248 335 OFFCURVE",
"249 349 CURVE",
"191 279 LINE",
"618 279 LINE",
"631 425 LINE",
"60 425 LINE",
"54 371 LINE SMOOTH",
"53 356 OFFCURVE",
"52 340 OFFCURVE",
"52 325 CURVE SMOOTH",
"52 127 OFFCURVE",
"170 -12 OFFCURVE",
"396 -12 CURVE SMOOTH"
);
}
);
width = 811.68675;
},
{
anchors = (
{
name = bottom;
position = "{385, 0}";
},
{
name = top;
position = "{446, 705}";
}
);
layerId = "2739B000-4AFC-4B52-A42C-DF57BA9D87B1";
paths = (
{
closed = 1;
nodes = (
"702 -11 OFFCURVE",
"772 265 OFFCURVE",
"772 387 CURVE SMOOTH",
"772 591 OFFCURVE",
"633 716 OFFCURVE",
"415 716 CURVE SMOOTH",
"295 716 OFFCURVE",
"186 689 OFFCURVE",
"109 643 CURVE",
"160 500 LINE",
"229 540 OFFCURVE",
"307 562 OFFCURVE",
"387 562 CURVE SMOOTH",
"517 562 OFFCURVE",
"581 504 OFFCURVE",
"581 389 CURVE SMOOTH",
"581 312 OFFCURVE",
"559 135 OFFCURVE",
"388 135 CURVE SMOOTH",
"289 135 OFFCURVE",
"238 189 OFFCURVE",
"238 308 CURVE SMOOTH",
"238 321 OFFCURVE",
"239 335 OFFCURVE",
"240 350 CURVE",
"186 283 LINE",
"620 283 LINE",
"633 422 LINE",
"61 422 LINE",
"56 369 LINE SMOOTH",
"54 354 OFFCURVE",
"54 338 OFFCURVE",
"54 323 CURVE SMOOTH",
"54 126 OFFCURVE",
"169 -11 OFFCURVE",
"393 -11 CURVE SMOOTH"
);
}
);
width = 807.53012;
},
{
anchors = (
{
name = bottom;
position = "{349, 0}";
},
{
name = top;
position = "{410, 705}";
}
);
layerId = "6493C7B7-8C70-4036-9BD9-52D201B9B030";
paths = (
{
closed = 1;
nodes = (
"636 -8 OFFCURVE",
"693 269 OFFCURVE",
"693 401 CURVE SMOOTH",
"693 596 OFFCURVE",
"582 713 OFFCURVE",
"394 713 CURVE SMOOTH",
"284 713 OFFCURVE",
"196 682 OFFCURVE",
"125 618 CURVE",
"144 585 LINE",
"218 649 OFFCURVE",
"285 675 OFFCURVE",
"393 675 CURVE SMOOTH",
"560 675 OFFCURVE",
"653 576 OFFCURVE",
"653 400 CURVE SMOOTH",
"653 282 OFFCURVE",
"605 30 OFFCURVE",
"358 30 CURVE SMOOTH",
"194 30 OFFCURVE",
"113 123 OFFCURVE",
"113 296 CURVE SMOOTH",
"113 314 OFFCURVE",
"114 333 OFFCURVE",
"116 352 CURVE",
"105 339 LINE",
"653 339 LINE",
"657 375 LINE",
"80 375 LINE",
"77 348 LINE SMOOTH",
"75 330 OFFCURVE",
"75 312 OFFCURVE",
"75 294 CURVE SMOOTH",
"75 110 OFFCURVE",
"167 -8 OFFCURVE",
"358 -8 CURVE SMOOTH"
);
}
);
width = 749.33735;
},
{
anchors = (
{
name = bottom;
position = "{348, 0}";
},
{
name = top;
position = "{409, 705}";
}
);
layerId = "79B82BF0-C835-43CE-9365-7A5C6C681BA7";
paths = (
{
closed = 1;
nodes = (
"635 -8 OFFCURVE",
"692 269 OFFCURVE",
"692 402 CURVE SMOOTH",
"692 596 OFFCURVE",
"581 713 OFFCURVE",
"394 713 CURVE SMOOTH",
"284 713 OFFCURVE",
"196 682 OFFCURVE",
"126 618 CURVE",
"143 587 LINE",
"218 651 OFFCURVE",
"285 677 OFFCURVE",
"393 677 CURVE SMOOTH",
"561 677 OFFCURVE",
"654 577 OFFCURVE",
"654 400 CURVE SMOOTH",
"654 282 OFFCURVE",
"606 28 OFFCURVE",
"358 28 CURVE SMOOTH",
"193 28 OFFCURVE",
"112 122 OFFCURVE",
"112 295 CURVE SMOOTH",
"112 314 OFFCURVE",
"113 333 OFFCURVE",
"115 352 CURVE",
"104 339 LINE",
"653 339 LINE",
"657 374 LINE",
"80 374 LINE",
"77 348 LINE SMOOTH",
"75 330 OFFCURVE",
"75 312 OFFCURVE",
"75 294 CURVE SMOOTH",
"75 109 OFFCURVE",
"167 -8 OFFCURVE",
"357 -8 CURVE SMOOTH"
);
}
);
width = 748.50602;
}
);
leftKerningGroup = O;
leftMetricsKey = O;
rightKerningGroup = O;
rightMetricsKey = O;
unicode = 018F;
},
{
color = 1;
glyphname = T;
lastChange = "2019-08-05 14:22:11 +0000";
layers = (
{
anchors = (
{
name = bottom;
position = "{272, 0}";
},
{
name = center;
position = "{303, 358}";
},
{
name = top;
position = "{333, 705}";
}
);
background = {
anchors = (
{
name = bottom;
position = "{272, 0}";
},
{
name = center;
position = "{303, 358}";
},
{
name = top;
position = "{333, 705}";
}
);
paths = (
{
closed = 1;
nodes = (
"293 0 LINE",
"351 666 LINE",
"620 666 LINE",
"623 705 LINE",
"43 705 LINE",
"40 666 LINE",
"309 666 LINE",
"251 0 LINE"
);
}
);
};
layerId = "F1F93986-3ED8-4AAE-84C4-CA3EEECDDFA0";
paths = (
{
closed = 1;
nodes = (
"293 0 LINE",
"351 666 LINE",
"620 666 LINE",
"623 705 LINE",
"43 705 LINE",
"40 666 LINE",
"309 666 LINE",
"251 0 LINE"
);
}
);
width = 586;
},
{
anchors = (
{
name = bottom;
position = "{307, 0}";
},
{
name = center;
position = "{337, 358}";
},
{
name = top;
position = "{367, 705}";
}
);
background = {
anchors = (
{
name = bottom;
position = "{307, 0}";
},
{
name = center;
position = "{337, 358}";
},
{
name = top;
position = "{367, 705}";
}
);
paths = (
{
closed = 1;
nodes = (
"414 0 LINE",
"460 531 LINE",
"674 531 LINE",
"689 705 LINE",
"46 705 LINE",
"31 531 LINE",
"245 531 LINE",
"199 0 LINE"
);
}
);
};
layerId = "4121B50C-FD42-45C5-8FBE-41E76D98F91E";
paths = (
{
closed = 1;
nodes = (
"414 0 LINE",
"460 531 LINE",
"674 531 LINE",
"689 705 LINE",
"46 705 LINE",
"31 531 LINE",
"245 531 LINE",
"199 0 LINE"
);
}
);
width = 657;
},
{
anchors = (
{
name = bottom;
position = "{303, 0}";
},
{
name = center;
position = "{333, 358}";
},
{
name = top;
position = "{363, 705}";
}
);
layerId = "3836173C-3D8C-4FCA-AE22-DACC53398F6F";
paths = (
{
closed = 1;
nodes = (
"399 0 LINE",
"447 547 LINE",
"667 547 LINE",
"681 705 LINE",
"46 705 LINE",
"32 547 LINE",
"253 547 LINE",
"205 0 LINE"
);
}
);
width = 648.44578;
},
{
anchors = (
{
name = bottom;
position = "{301, 0}";
},
{
name = center;
position = "{331, 358}";
},
{
name = top;
position = "{361, 705}";
}
);
layerId = "2739B000-4AFC-4B52-A42C-DF57BA9D87B1";
paths = (
{
closed = 1;
nodes = (
"392 0 LINE",
"440 555 LINE",
"664 555 LINE",
"677 705 LINE",
"45 705 LINE",
"33 555 LINE",
"257 555 LINE",
"208 0 LINE"
);
}
);
width = 644.16867;
},
{
anchors = (
{
name = bottom;
position = "{271, 0}";
},
{
name = center;
position = "{302, 358}";
},
{
name = top;
position = "{332, 705}";
}
);
layerId = "6493C7B7-8C70-4036-9BD9-52D201B9B030";
paths = (
{
closed = 1;
nodes = (
"290 0 LINE",
"348 669 LINE",
"619 669 LINE",
"621 705 LINE",
"43 705 LINE",
"40 669 LINE",
"311 669 LINE",
"252 0 LINE"
);
}
);
width = 584.28916;
},
{
anchors = (
{
name = bottom;
position = "{271, 0}";
},
{
name = center;
position = "{302, 358}";
},
{
name = top;
position = "{332, 705}";
}
);
layerId = "79B82BF0-C835-43CE-9365-7A5C6C681BA7";
paths = (
{
closed = 1;
nodes = (
"289 0 LINE",
"347 671 LINE",
"618 671 LINE",
"621 705 LINE",
"43 705 LINE",
"40 671 LINE",
"311 671 LINE",
"253 0 LINE"
);
}
);
width = 583.43373;
}
);
leftKerningGroup = T;
rightKerningGroup = T;
unicode = 0054;
userData = {
anchors = (
);
b = {
};
com.typemytype.robofont.layerData = {
b = {
anchors = (
);
components = (
);
contours = (
{
points = (
{
segmentType = curve;
smooth = 1;
x = 581;
y = 0;
},
{
segmentType = line;
smooth = 1;
x = 1350;
y = 0;
},
{
smooth = 0;
x = 1399;
y = 0;
},
{
smooth = 0;
x = 1423;
y = 34;
},
{
segmentType = curve;
smooth = 1;
x = 1423;
y = 71;
},
{
smooth = 0;
x = 1423;
y = 107;
},
{
smooth = 0;
x = 1399;
y = 141;
},
{
segmentType = curve;
smooth = 1;
x = 1350;
y = 141;
},
{
segmentType = line;
smooth = 0;
x = 671;
y = 141;
},
{
segmentType = line;
smooth = 0;
x = 671;
y = 665;
},
{
segmentType = line;
smooth = 1;
x = 1290;
y = 665;
},
{
smooth = 0;
x = 1339;
y = 665;
},
{
smooth = 0;
x = 1364;
y = 698;
},
{
segmentType = curve;
smooth = 1;
x = 1364;
y = 734;
},
{
smooth = 0;
x = 1364;
y = 770;
},
{
smooth = 0;
x = 1341;
y = 803;
},
{
segmentType = curve;
smooth = 1;
x = 1290;
y = 803;
},
{
segmentType = line;
smooth = 0;
x = 671;
y = 803;
},
{
segmentType = line;
smooth = 0;
x = 671;
y = 1285;
},
{
segmentType = line;
smooth = 1;
x = 1322;
y = 1285;
},
{
smooth = 0;
x = 1371;
y = 1285;
},
{
smooth = 0;
x = 1395;
y = 1319;
},
{
segmentType = curve;
smooth = 1;
x = 1395;
y = 1356;
},
{
smooth = 0;
x = 1395;
y = 1392;
},
{
smooth = 0;
x = 1371;
y = 1426;
},
{
segmentType = curve;
smooth = 1;
x = 1322;
y = 1426;
},
{
segmentType = line;
smooth = 1;
x = 576;
y = 1426;
},
{
smooth = 0;
x = 528;
y = 1426;
},
{
smooth = 0;
x = 493;
y = 1383;
},
{
segmentType = curve;
smooth = 1;
x = 493;
y = 1340;
},
{
segmentType = line;
smooth = 1;
x = 493;
y = 86;
},
{
smooth = 0;
x = 493;
y = 41;
},
{
smooth = 0;
x = 537;
y = 0;
}
);
}
);
lib = {
};
name = T;
unicodes = (
);
width = 1158;
};
};
components = (
);
contours = (
);
lib = {
};
name = T;
unicodes = (
);
width = 1199;
};
},
{
color = 1;
glyphname = U;
lastChange = "2019-08-05 14:22:11 +0000";
layers = (
{
anchors = (
{
name = bottom;
position = "{339, 0}";
},
{
name = ogonek;
position = "{396, 0}";
},
{
name = top;
position = "{400, 705}";
},
{
name = topright;
position = "{628, 705}";
}
);
background = {
anchors = (
{
name = bottom;
position = "{339, 0}";
},
{
name = ogonek;
position = "{396, 0}";
},
{
name = top;
position = "{400, 705}";
},
{
name = topright;
position = "{628, 705}";
}
);
paths = (
{
closed = 1;
nodes = (
"515 -8 OFFCURVE",
"615 89 OFFCURVE",
"631 270 CURVE SMOOTH",
"669 705 LINE",
"627 705 LINE",
"590 278 LINE SMOOTH",
"576 114 OFFCURVE",
"491 33 OFFCURVE",
"340 33 CURVE SMOOTH",
"204 33 OFFCURVE",
"134 99 OFFCURVE",
"134 234 CURVE SMOOTH",
"134 248 OFFCURVE",
"135 261 OFFCURVE",
"136 276 CURVE SMOOTH",
"173 705 LINE",
"131 705 LINE",
"93 272 LINE SMOOTH",
"92 258 OFFCURVE",
"91 245 OFFCURVE",
"91 233 CURVE SMOOTH",
"91 77 OFFCURVE",
"176 -8 OFFCURVE",
"339 -8 CURVE SMOOTH"
);
}
);
};
layerId = "F1F93986-3ED8-4AAE-84C4-CA3EEECDDFA0";
paths = (
{
closed = 1;
nodes = (
"515 -8 OFFCURVE",
"615 89 OFFCURVE",
"631 270 CURVE SMOOTH",
"669 705 LINE",
"627 705 LINE",
"590 278 LINE SMOOTH",
"576 114 OFFCURVE",
"491 33 OFFCURVE",
"340 33 CURVE SMOOTH",
"204 33 OFFCURVE",
"134 99 OFFCURVE",
"134 234 CURVE SMOOTH",
"134 248 OFFCURVE",
"135 261 OFFCURVE",
"136 276 CURVE SMOOTH",
"173 705 LINE",
"131 705 LINE",
"93 272 LINE SMOOTH",
"92 258 OFFCURVE",
"91 245 OFFCURVE",
"91 233 CURVE SMOOTH",
"91 77 OFFCURVE",
"176 -8 OFFCURVE",
"339 -8 CURVE SMOOTH"
);
}
);
width = 720;
},
{
anchors = (
{
name = bottom;
position = "{357, 0}";
},
{
name = ogonek;
position = "{415, 0}";
},
{
name = top;
position = "{418, 705}";
},
{
name = topright;
position = "{596, 705}";
}
);
background = {
anchors = (
{
name = bottom;
position = "{357, 0}";
},
{
name = ogonek;
position = "{415, 0}";
},
{
name = top;
position = "{418, 705}";
},
{
name = topright;
position = "{596, 705}";
}
);
paths = (
{
closed = 1;
nodes = (
"570 -12 OFFCURVE",
"688 89 OFFCURVE",
"706 303 CURVE SMOOTH",
"741 705 LINE",
"530 705 LINE",
"496 307 LINE SMOOTH",
"488 217 OFFCURVE",
"441 167 OFFCURVE",
"366 167 CURVE SMOOTH",
"304 167 OFFCURVE",
"270 201 OFFCURVE",
"270 274 CURVE SMOOTH",
"270 282 OFFCURVE",
"270 290 OFFCURVE",
"271 299 CURVE SMOOTH",
"306 705 LINE",
"91 705 LINE",
"57 311 LINE SMOOTH",
"56 295 OFFCURVE",
"55 279 OFFCURVE",
"55 264 CURVE SMOOTH",
"55 81 OFFCURVE",
"162 -12 OFFCURVE",
"361 -12 CURVE SMOOTH"
);
}
);
};
layerId = "4121B50C-FD42-45C5-8FBE-41E76D98F91E";
paths = (
{
closed = 1;
nodes = (
"570 -12 OFFCURVE",
"688 89 OFFCURVE",
"706 303 CURVE SMOOTH",
"741 705 LINE",
"530 705 LINE",
"496 307 LINE SMOOTH",
"488 217 OFFCURVE",
"441 167 OFFCURVE",
"366 167 CURVE SMOOTH",
"304 167 OFFCURVE",
"270 201 OFFCURVE",
"270 274 CURVE SMOOTH",
"270 282 OFFCURVE",
"270 290 OFFCURVE",
"271 299 CURVE SMOOTH",
"306 705 LINE",
"91 705 LINE",
"57 311 LINE SMOOTH",
"56 295 OFFCURVE",
"55 279 OFFCURVE",
"55 264 CURVE SMOOTH",
"55 81 OFFCURVE",
"162 -12 OFFCURVE",
"361 -12 CURVE SMOOTH"
);
}
);
width = 754;
},
{
anchors = (
{
name = bottom;
position = "{355, 0}";
},
{
name = ogonek;
position = "{413, 0}";
},
{
name = top;
position = "{416, 705}";
},
{
name = topright;
position = "{600, 705}";
}
);
layerId = "3836173C-3D8C-4FCA-AE22-DACC53398F6F";
paths = (
{
closed = 1;
nodes = (
"563 -12 OFFCURVE",
"679 89 OFFCURVE",
"697 299 CURVE SMOOTH",
"732 705 LINE",
"542 705 LINE",
"507 304 LINE SMOOTH",
"499 205 OFFCURVE",
"447 151 OFFCURVE",
"363 151 CURVE SMOOTH",
"292 151 OFFCURVE",
"254 189 OFFCURVE",
"254 269 CURVE SMOOTH",
"254 278 OFFCURVE",
"254 287 OFFCURVE",
"255 296 CURVE SMOOTH",
"290 705 LINE",
"96 705 LINE",
"61 306 LINE SMOOTH",
"60 291 OFFCURVE",
"59 275 OFFCURVE",
"59 260 CURVE SMOOTH",
"59 81 OFFCURVE",
"164 -12 OFFCURVE",
"358 -12 CURVE SMOOTH"
);
}
);
width = 749.90361;
},
{
anchors = (
{
name = bottom;
position = "{354, 0}";
},
{
name = ogonek;
position = "{412, 0}";
},
{
name = top;
position = "{415, 705}";
},
{
name = topright;
position = "{602, 705}";
}
);
layerId = "2739B000-4AFC-4B52-A42C-DF57BA9D87B1";
paths = (
{
closed = 1;
nodes = (
"560 -11 OFFCURVE",
"675 89 OFFCURVE",
"692 297 CURVE SMOOTH",
"728 705 LINE",
"548 705 LINE",
"513 302 LINE SMOOTH",
"504 198 OFFCURVE",
"450 143 OFFCURVE",
"361 143 CURVE SMOOTH",
"286 143 OFFCURVE",
"245 183 OFFCURVE",
"245 267 CURVE SMOOTH",
"245 276 OFFCURVE",
"246 285 OFFCURVE",
"247 295 CURVE SMOOTH",
"282 705 LINE",
"98 705 LINE",
"64 304 LINE SMOOTH",
"63 288 OFFCURVE",
"62 273 OFFCURVE",
"62 258 CURVE SMOOTH",
"62 80 OFFCURVE",
"165 -11 OFFCURVE",
"357 -11 CURVE SMOOTH"
);
}
);
width = 747.85542;
},
{
anchors = (
{
name = bottom;
position = "{339, 0}";
},
{
name = ogonek;
position = "{396, 0}";
},
{
name = top;
position = "{400, 705}";
},
{
name = topright;
position = "{629, 705}";
}
);
layerId = "6493C7B7-8C70-4036-9BD9-52D201B9B030";
paths = (
{
closed = 1;
nodes = (
"514 -8 OFFCURVE",
"613 89 OFFCURVE",
"629 269 CURVE SMOOTH",
"667 705 LINE",
"629 705 LINE",
"592 277 LINE SMOOTH",
"578 112 OFFCURVE",
"492 30 OFFCURVE",
"339 30 CURVE SMOOTH",
"202 30 OFFCURVE",
"131 97 OFFCURVE",
"131 233 CURVE SMOOTH",
"131 247 OFFCURVE",
"132 260 OFFCURVE",
"133 275 CURVE SMOOTH",
"170 705 LINE",
"132 705 LINE",
"94 271 LINE SMOOTH",
"93 257 OFFCURVE",
"92 244 OFFCURVE",
"92 232 CURVE SMOOTH",
"92 77 OFFCURVE",
"176 -8 OFFCURVE",
"338 -8 CURVE SMOOTH"
);
}
);
width = 719.18072;
},
{
anchors = (
{
name = bottom;
position = "{338, 0}";
},
{
name = ogonek;
position = "{395, 0}";
},
{
name = top;
position = "{399, 705}";
},
{
name = topright;
position = "{629, 705}";
}
);
layerId = "79B82BF0-C835-43CE-9365-7A5C6C681BA7";
paths = (
{
closed = 1;
nodes = (
"513 -8 OFFCURVE",
"612 89 OFFCURVE",
"628 269 CURVE SMOOTH",
"666 705 LINE",
"630 705 LINE",
"593 277 LINE SMOOTH",
"579 110 OFFCURVE",
"493 28 OFFCURVE",
"339 28 CURVE SMOOTH",
"200 28 OFFCURVE",
"129 95 OFFCURVE",
"129 233 CURVE SMOOTH",
"129 247 OFFCURVE",
"130 260 OFFCURVE",
"131 275 CURVE SMOOTH",
"168 705 LINE",
"132 705 LINE",
"94 271 LINE SMOOTH",
"93 257 OFFCURVE",
"92 244 OFFCURVE",
"92 232 CURVE SMOOTH",
"92 77 OFFCURVE",
"176 -8 OFFCURVE",
"338 -8 CURVE SMOOTH"
);
}
);
width = 718.77108;
}
);
leftKerningGroup = U;
rightKerningGroup = U;
unicode = 0055;
userData = {
anchors = (
);
b = {
};
com.typemytype.robofont.layerData = {
b = {
anchors = (
);
components = (
);
contours = (
);
lib = {
};
name = U;
unicodes = (
);
width = 1490;
};
};
components = (
);
contours = (
);
lib = {
};
name = U;
unicodes = (
);
width = 1513;
};
},
{
glyphname = V;
lastChange = "2019-08-05 14:22:11 +0000";
layers = (
{
anchors = (
{
name = bottom;
position = "{313, 0}";
},
{
name = top;
position = "{373, 705}";
}
);
background = {
anchors = (
{
name = bottom;
position = "{313, 0}";
},
{
name = top;
position = "{373, 705}";
}
);
paths = (
{
closed = 1;
nodes = (
"334 0 LINE",
"700 705 LINE",
"653 705 LINE",
"302 24 LINE",
"326 24 LINE",
"93 705 LINE",
"49 705 LINE",
"289 0 LINE"
);
}
);
};
layerId = "F1F93986-3ED8-4AAE-84C4-CA3EEECDDFA0";
paths = (
{
closed = 1;
nodes = (
"334 0 LINE",
"700 705 LINE",
"653 705 LINE",
"302 24 LINE",
"326 24 LINE",
"93 705 LINE",
"49 705 LINE",
"289 0 LINE"
);
}
);
width = 666;
},
{
anchors = (
{
name = bottom;
position = "{358, 0}";
},
{
name = top;
position = "{418, 705}";
}
);
background = {
anchors = (
{
name = bottom;
position = "{358, 0}";
},
{
name = top;
position = "{418, 705}";
}
);
paths = (
{
closed = 1;
nodes = (
"443 0 LINE",
"829 705 LINE",
"608 705 LINE",
"347 203 LINE",
"410 203 LINE",
"238 705 LINE",
"10 705 LINE",
"274 0 LINE"
);
}
);
};
layerId = "4121B50C-FD42-45C5-8FBE-41E76D98F91E";
paths = (
{
closed = 1;
nodes = (
"443 0 LINE",
"829 705 LINE",
"608 705 LINE",
"347 203 LINE",
"410 203 LINE",
"238 705 LINE",
"10 705 LINE",
"274 0 LINE"
);
}
);
width = 759;
},
{
anchors = (
{
name = bottom;
position = "{353, 0}";
},
{
name = top;
position = "{413, 705}";
}
);
layerId = "3836173C-3D8C-4FCA-AE22-DACC53398F6F";
paths = (
{
closed = 1;
nodes = (
"430 0 LINE",
"813 705 LINE",
"613 705 LINE",
"342 181 LINE",
"400 181 LINE",
"221 705 LINE",
"15 705 LINE",
"276 0 LINE"
);
}
);
width = 747.79518;
},
{
anchors = (
{
name = bottom;
position = "{350, 0}";
},
{
name = top;
position = "{410, 705}";
}
);
layerId = "2739B000-4AFC-4B52-A42C-DF57BA9D87B1";
paths = (
{
closed = 1;
nodes = (
"423 0 LINE",
"806 705 LINE",
"616 705 LINE",
"339 171 LINE",
"395 171 LINE",
"212 705 LINE",
"17 705 LINE",
"277 0 LINE"
);
}
);
width = 742.19277;
},
{
anchors = (
{
name = bottom;
position = "{312, 0}";
},
{
name = top;
position = "{372, 705}";
}
);
layerId = "6493C7B7-8C70-4036-9BD9-52D201B9B030";
paths = (
{
closed = 1;
nodes = (
"331 0 LINE",
"697 705 LINE",
"654 705 LINE",
"301 20 LINE",
"324 20 LINE",
"90 705 LINE",
"50 705 LINE",
"289 0 LINE"
);
}
);
width = 663.75904;
},
{
anchors = (
{
name = bottom;
position = "{311, 0}";
},
{
name = top;
position = "{371, 705}";
}
);
layerId = "79B82BF0-C835-43CE-9365-7A5C6C681BA7";
paths = (
{
closed = 1;
nodes = (
"330 0 LINE",
"695 705 LINE",
"655 705 LINE",
"300 18 LINE",
"323 18 LINE",
"88 705 LINE",
"50 705 LINE",
"290 0 LINE"
);
}
);
width = 662.63855;
}
);
leftKerningGroup = V;
rightKerningGroup = V;
unicode = 0056;
userData = {
anchors = (
);
b = {
};
com.typemytype.robofont.guides = (
);
com.typemytype.robofont.layerData = {
b = {
anchors = (
);
components = (
);
contours = (
{
points = (
{
segmentType = curve;
smooth = 1;
x = 644;
y = "-5";
},
{
smooth = 0;
x = 712;
y = "-5";
},
{
smooth = 0;
x = 764;
y = 38;
},
{
segmentType = curve;
smooth = 1;
x = 793;
y = 117;
},
{
segmentType = line;
smooth = 1;
x = 1243;
y = 1324;
},
{
smooth = 0;
x = 1247;
y = 1335;
},
{
smooth = 0;
x = 1248;
y = 1342;
},
{
segmentType = curve;
smooth = 1;
x = 1248;
y = 1351;
},
{
smooth = 0;
x = 1248;
y = 1395;
},
{
smooth = 0;
x = 1203;
y = 1427;
},
{
segmentType = curve;
smooth = 1;
x = 1160;
y = 1427;
},
{
smooth = 0;
x = 1125;
y = 1427;
},
{
smooth = 0;
x = 1090;
y = 1408;
},
{
segmentType = curve;
smooth = 1;
x = 1076;
y = 1369;
},
{
segmentType = line;
smooth = 0;
x = 651;
y = 192;
},
{
segmentType = line;
smooth = 0;
x = 650;
y = 190;
},
{
segmentType = line;
smooth = 1;
x = 214;
y = 1370;
},
{
smooth = 0;
x = 200;
y = 1407;
},
{
smooth = 0;
x = 170;
y = 1427;
},
{
segmentType = curve;
smooth = 1;
x = 135;
y = 1427;
},
{
smooth = 0;
x = 90;
y = 1427;
},
{
smooth = 0;
x = 43;
y = 1392;
},
{
segmentType = curve;
smooth = 1;
x = 43;
y = 1344;
},
{
smooth = 0;
x = 43;
y = 1336;
},
{
smooth = 0;
x = 44;
y = 1326;
},
{
segmentType = curve;
smooth = 0;
x = 48;
y = 1318;
},
{
segmentType = line;
smooth = 1;
x = 501;
y = 117;
},
{
smooth = 0;
x = 532;
y = 35;
},
{
smooth = 0;
x = 581;
y = "-5";
}
);
}
);
lib = {
};
name = V;
unicodes = (
);
width = 1289;
};
};
components = (
);
contours = (
);
lib = {
};
name = V;
unicodes = (
);
width = 1365;
};
},
{
color = 1;
glyphname = W;
lastChange = "2019-08-05 14:22:11 +0000";
layers = (
{
anchors = (
{
name = bottom;
position = "{525, 0}";
},
{
name = top;
position = "{585, 705}";
}
);
background = {
anchors = (
{
name = bottom;
position = "{525, 0}";
},
{
name = top;
position = "{585, 705}";
}
);
paths = (
{
closed = 1;
nodes = (
"302 0 LINE",
"593 671 LINE",
"573 671 LINE",
"745 0 LINE",
"788 0 LINE",
"1094 705 LINE",
"1050 705 LINE",
"753 19 LINE",
"781 19 LINE",
"604 705 LINE",
"565 705 LINE",
"268 19 LINE",
"298 19 LINE",
"122 705 LINE",
"79 705 LINE",
"261 0 LINE"
);
}
);
};
layerId = "F1F93986-3ED8-4AAE-84C4-CA3EEECDDFA0";
paths = (
{
closed = 1;
nodes = (
"302 0 LINE",
"593 671 LINE",
"573 671 LINE",
"745 0 LINE",
"788 0 LINE",
"1094 705 LINE",
"1050 705 LINE",
"753 19 LINE",
"781 19 LINE",
"604 705 LINE",
"565 705 LINE",
"268 19 LINE",
"298 19 LINE",
"122 705 LINE",
"79 705 LINE",
"261 0 LINE"
);
}
);
width = 1091;
},
{
anchors = (
{
name = bottom;
position = "{546, 0}";
},
{
name = top;
position = "{608, 705}";
}
);
background = {
anchors = (
{
name = bottom;
position = "{546, 0}";
},
{
name = top;
position = "{608, 705}";
}
);
paths = (
{
closed = 1;
nodes = (
"410 0 LINE",
"598 412 LINE",
"572 412 LINE",
"684 0 LINE",
"854 0 LINE",
"1172 705 LINE",
"965 705 LINE",
"763 234 LINE",
"805 234 LINE",
"690 705 LINE",
"539 705 LINE",
"327 234 LINE",
"378 234 LINE",
"264 705 LINE",
"45 705 LINE",
"239 0 LINE"
);
}
);
};
layerId = "4121B50C-FD42-45C5-8FBE-41E76D98F91E";
paths = (
{
closed = 1;
nodes = (
"410 0 LINE",
"598 412 LINE",
"572 412 LINE",
"684 0 LINE",
"854 0 LINE",
"1172 705 LINE",
"965 705 LINE",
"763 234 LINE",
"805 234 LINE",
"690 705 LINE",
"539 705 LINE",
"327 234 LINE",
"378 234 LINE",
"264 705 LINE",
"45 705 LINE",
"239 0 LINE"
);
}
);
width = 1136;
},
{
anchors = (
{
name = bottom;
position = "{543, 0}";
},
{
name = top;
position = "{605, 705}";
}
);
layerId = "3836173C-3D8C-4FCA-AE22-DACC53398F6F";
paths = (
{
closed = 1;
nodes = (
"397 0 LINE",
"597 443 LINE",
"572 443 LINE",
"691 0 LINE",
"846 0 LINE",
"1163 705 LINE",
"975 705 LINE",
"762 208 LINE",
"802 208 LINE",
"680 705 LINE",
"542 705 LINE",
"320 208 LINE",
"368 208 LINE",
"247 705 LINE",
"49 705 LINE",
"242 0 LINE"
);
}
);
width = 1130.57831;
},
{
anchors = (
{
name = bottom;
position = "{542, 0}";
},
{
name = top;
position = "{604, 705}";
}
);
layerId = "2739B000-4AFC-4B52-A42C-DF57BA9D87B1";
paths = (
{
closed = 1;
nodes = (
"390 0 LINE",
"597 459 LINE",
"572 459 LINE",
"695 0 LINE",
"842 0 LINE",
"1158 705 LINE",
"980 705 LINE",
"761 195 LINE",
"801 195 LINE",
"674 705 LINE",
"544 705 LINE",
"316 195 LINE",
"364 195 LINE",
"238 705 LINE",
"51 705 LINE",
"243 0 LINE"
);
}
);
width = 1127.86747;
},
{
anchors = (
{
name = bottom;
position = "{524, 0}";
},
{
name = top;
position = "{584, 705}";
}
);
layerId = "6493C7B7-8C70-4036-9BD9-52D201B9B030";
paths = (
{
closed = 1;
nodes = (
"299 0 LINE",
"593 677 LINE",
"573 677 LINE",
"746 0 LINE",
"786 0 LINE",
"1092 705 LINE",
"1052 705 LINE",
"753 14 LINE",
"780 14 LINE",
"602 705 LINE",
"566 705 LINE",
"267 14 LINE",
"296 14 LINE",
"119 705 LINE",
"80 705 LINE",
"262 0 LINE"
);
}
);
width = 1089.91566;
},
{
anchors = (
{
name = bottom;
position = "{524, 0}";
},
{
name = top;
position = "{584, 705}";
}
);
layerId = "79B82BF0-C835-43CE-9365-7A5C6C681BA7";
paths = (
{
closed = 1;
nodes = (
"298 0 LINE",
"593 680 LINE",
"573 680 LINE",
"747 0 LINE",
"786 0 LINE",
"1091 705 LINE",
"1053 705 LINE",
"753 11 LINE",
"780 11 LINE",
"601 705 LINE",
"566 705 LINE",
"266 11 LINE",
"295 11 LINE",
"117 705 LINE",
"80 705 LINE",
"262 0 LINE"
);
}
);
width = 1089.37349;
}
);
leftKerningGroup = V;
rightKerningGroup = V;
unicode = 0057;
userData = {
anchors = (
);
b = {
};
com.typemytype.robofont.layerData = {
b = {
anchors = (
);
components = (
);
contours = (
);
lib = {
};
name = W;
unicodes = (
);
width = 2126;
};
};
components = (
);
contours = (
);
lib = {
};
name = W;
unicodes = (
);
width = 2070;
};
},
{
glyphname = X;
lastChange = "2019-08-05 14:22:11 +0000";
layers = (
{
anchors = (
{
name = bottom;
position = "{295, 0}";
},
{
name = top;
position = "{356, 705}";
}
);
background = {
anchors = (
{
name = bottom;
position = "{295, 0}";
},
{
name = top;
position = "{356, 705}";
}
);
paths = (
{
closed = 1;
nodes = (
"632 705 LINE",
"583 705 LINE",
"323 387 LINE",
"335 387 LINE",
"129 705 LINE",
"81 705 LINE",
"306 357 LINE",
"307 368 LINE",
"2 0 LINE",
"53 0 LINE",
"334 342 LINE",
"315 342 LINE",
"536 0 LINE",
"584 0 LINE",
"344 371 LINE",
"343 352 LINE"
);
}
);
};
layerId = "F1F93986-3ED8-4AAE-84C4-CA3EEECDDFA0";
paths = (
{
closed = 1;
nodes = (
"632 705 LINE",
"583 705 LINE",
"323 387 LINE",
"335 387 LINE",
"129 705 LINE",
"81 705 LINE",
"306 357 LINE",
"307 368 LINE",
"2 0 LINE",
"53 0 LINE",
"334 342 LINE",
"315 342 LINE",
"536 0 LINE",
"584 0 LINE",
"344 371 LINE",
"343 352 LINE"
);
}
);
width = 630;
},
{
anchors = (
{
name = bottom;
position = "{336, 0}";
},
{
name = top;
position = "{395, 705}";
}
);
background = {
anchors = (
{
name = bottom;
position = "{336, 0}";
},
{
name = top;
position = "{395, 705}";
}
);
paths = (
{
closed = 1;
nodes = (
"786 705 LINE",
"534 705 LINE",
"338 461 LINE",
"408 461 LINE",
"256 705 LINE",
"8 705 LINE",
"277 305 LINE",
"284 404 LINE",
"-58 0 LINE",
"193 0 LINE",
"390 245 LINE",
"323 245 LINE",
"476 0 LINE",
"725 0 LINE",
"454 403 LINE",
"448 307 LINE"
);
}
);
};
layerId = "4121B50C-FD42-45C5-8FBE-41E76D98F91E";
paths = (
{
closed = 1;
nodes = (
"786 705 LINE",
"534 705 LINE",
"338 461 LINE",
"408 461 LINE",
"256 705 LINE",
"8 705 LINE",
"277 305 LINE",
"284 404 LINE",
"-58 0 LINE",
"193 0 LINE",
"390 245 LINE",
"323 245 LINE",
"476 0 LINE",
"725 0 LINE",
"454 403 LINE",
"448 307 LINE"
);
}
);
width = 713;
},
{
anchors = (
{
name = bottom;
position = "{331, 0}";
},
{
name = top;
position = "{390, 705}";
}
);
layerId = "3836173C-3D8C-4FCA-AE22-DACC53398F6F";
paths = (
{
closed = 1;
nodes = (
"767 705 LINE",
"540 705 LINE",
"336 452 LINE",
"399 452 LINE",
"241 705 LINE",
"17 705 LINE",
"280 311 LINE",
"287 400 LINE",
"-51 0 LINE",
"176 0 LINE",
"383 257 LINE",
"322 257 LINE",
"483 0 LINE",
"708 0 LINE",
"441 399 LINE",
"435 312 LINE"
);
}
);
width = 703;
},
{
anchors = (
{
name = bottom;
position = "{329, 0}";
},
{
name = top;
position = "{388, 705}";
}
);
layerId = "2739B000-4AFC-4B52-A42C-DF57BA9D87B1";
paths = (
{
closed = 1;
nodes = (
"758 705 LINE",
"543 705 LINE",
"335 448 LINE",
"395 448 LINE",
"233 705 LINE",
"21 705 LINE",
"282 314 LINE",
"288 397 LINE",
"-47 0 LINE",
"168 0 LINE",
"380 263 LINE",
"322 263 LINE",
"487 0 LINE",
"700 0 LINE",
"434 397 LINE",
"429 315 LINE"
);
}
);
width = 698;
},
{
anchors = (
{
name = bottom;
position = "{294.006, 0}";
},
{
name = top;
position = "{355, 705}";
}
);
layerId = "6493C7B7-8C70-4036-9BD9-52D201B9B030";
paths = (
{
closed = 1;
nodes = (
"628 705 LINE",
"584 705 LINE",
"323 385 LINE",
"333 385 LINE",
"126 705 LINE",
"83 705 LINE",
"307 358 LINE",
"308 367 LINE",
"3 0 LINE",
"50 0 LINE",
"333 344 LINE",
"315 344 LINE",
"537 0 LINE",
"581 0 LINE",
"341 370 LINE",
"340 353 LINE"
);
}
);
width = 628;
},
{
anchors = (
{
name = bottom;
position = "{294, 0}";
},
{
name = top;
position = "{355, 705}";
}
);
layerId = "79B82BF0-C835-43CE-9365-7A5C6C681BA7";
paths = (
{
closed = 1;
nodes = (
"626 705 LINE",
"585 705 LINE",
"322 384 LINE",
"332 384 LINE",
"124 705 LINE",
"84 705 LINE",
"307 359 LINE",
"308 367 LINE",
"4 0 LINE",
"48 0 LINE",
"332 345 LINE",
"315 345 LINE",
"538 0 LINE",
"579 0 LINE",
"340 370 LINE",
"339 354 LINE"
);
}
);
width = 627;
}
);
leftKerningGroup = X;
rightKerningGroup = X;
unicode = 0058;
userData = {
anchors = (
);
b = {
};
com.typemytype.robofont.layerData = {
b = {
anchors = (
);
components = (
);
contours = (
{
points = (
{
segmentType = curve;
smooth = 1;
x = 151;
y = 0;
},
{
smooth = 0;
x = 176;
y = 0;
},
{
smooth = 0;
x = 201;
y = 12;
},
{
segmentType = curve;
smooth = 1;
x = 222;
y = 41;
},
{
segmentType = line;
smooth = 0;
x = 641;
y = 616;
},
{
segmentType = line;
smooth = 0;
x = 746;
y = 734;
},
{
segmentType = line;
smooth = 1;
x = 1175;
y = 1310;
},
{
smooth = 0;
x = 1186;
y = 1325;
},
{
smooth = 0;
x = 1190;
y = 1338;
},
{
segmentType = curve;
smooth = 1;
x = 1190;
y = 1353;
},
{
smooth = 0;
x = 1190;
y = 1393;
},
{
smooth = 0;
x = 1153;
y = 1426;
},
{
segmentType = curve;
smooth = 1;
x = 1110;
y = 1426;
},
{
smooth = 0;
x = 1083;
y = 1426;
},
{
smooth = 0;
x = 1058;
y = 1414;
},
{
segmentType = curve;
smooth = 1;
x = 1037;
y = 1385;
},
{
segmentType = line;
smooth = 0;
x = 648;
y = 844;
},
{
segmentType = line;
smooth = 0;
x = 542;
y = 732;
},
{
segmentType = line;
smooth = 1;
x = 84;
y = 121;
},
{
smooth = 0;
x = 73;
y = 106;
},
{
smooth = 0;
x = 68;
y = 91;
},
{
segmentType = curve;
smooth = 1;
x = 68;
y = 76;
},
{
smooth = 0;
x = 68;
y = 35;
},
{
smooth = 0;
x = 108;
y = 0;
}
);
},
{
points = (
{
segmentType = curve;
smooth = 1;
x = 1104;
y = 0;
},
{
smooth = 0;
x = 1151;
y = 0;
},
{
smooth = 0;
x = 1200;
y = 40;
},
{
segmentType = curve;
smooth = 1;
x = 1200;
y = 85;
},
{
smooth = 0;
x = 1200;
y = 98;
},
{
smooth = 0;
x = 1195;
y = 113;
},
{
segmentType = curve;
smooth = 0;
x = 1186;
y = 126;
},
{
segmentType = line;
smooth = 0;
x = 272;
y = 1385;
},
{
smooth = 0;
x = 252;
y = 1414;
},
{
smooth = 0;
x = 225;
y = 1426;
},
{
segmentType = curve;
smooth = 1;
x = 197;
y = 1426;
},
{
smooth = 0;
x = 149;
y = 1426;
},
{
smooth = 0;
x = 100;
y = 1388;
},
{
segmentType = curve;
smooth = 1;
x = 100;
y = 1343;
},
{
smooth = 0;
x = 100;
y = 1328;
},
{
smooth = 0;
x = 105;
y = 1315;
},
{
segmentType = curve;
smooth = 0;
x = 114;
y = 1303;
},
{
segmentType = line;
smooth = 0;
x = 1033;
y = 40;
},
{
smooth = 0;
x = 1052;
y = 13;
},
{
smooth = 0;
x = 1076;
y = 0;
}
);
}
);
lib = {
};
name = X;
unicodes = (
);
width = 1274;
};
};
components = (
);
contours = (
);
lib = {
};
name = X;
unicodes = (
);
width = 1322;
};
},
{
color = 1;
glyphname = Y;
lastChange = "2019-08-05 14:22:11 +0000";
layers = (
{
anchors = (
{
name = bottom;
position = "{267, 0}";
},
{
name = top;
position = "{328, 705}";
},
{
name = topleft;
position = "{57, 705}";
}
);
background = {
anchors = (
{
name = bottom;
position = "{267, 0}";
},
{
name = top;
position = "{328, 705}";
},
{
name = topleft;
position = "{57, 705}";
}
);
paths = (
{
closed = 1;
nodes = (
"288 0 LINE",
"320 367 LINE",
"306 328 LINE",
"619 705 LINE",
"571 705 LINE",
"293 368 LINE",
"308 368 LINE",
"88 705 LINE",
"40 705 LINE",
"285 328 LINE",
"278 367 LINE",
"246 0 LINE"
);
}
);
};
layerId = "F1F93986-3ED8-4AAE-84C4-CA3EEECDDFA0";
paths = (
{
closed = 1;
nodes = (
"288 0 LINE",
"320 367 LINE",
"306 328 LINE",
"619 705 LINE",
"571 705 LINE",
"293 368 LINE",
"308 368 LINE",
"88 705 LINE",
"40 705 LINE",
"285 328 LINE",
"278 367 LINE",
"246 0 LINE"
);
}
);
width = 577;
},
{
anchors = (
{
name = bottom;
position = "{309, 0}";
},
{
name = top;
position = "{368, 705}";
},
{
name = topleft;
position = "{55, 705}";
}
);
background = {
anchors = (
{
name = bottom;
position = "{309, 0}";
},
{
name = top;
position = "{368, 705}";
},
{
name = topleft;
position = "{55, 705}";
}
);
paths = (
{
closed = 1;
nodes = (
"415 0 LINE",
"445 359 LINE",
"393 243 LINE",
"748 705 LINE",
"506 705 LINE",
"330 467 LINE",
"371 467 LINE",
"235 705 LINE",
"-10 705 LINE",
"264 243 LINE",
"230 359 LINE",
"200 0 LINE"
);
}
);
};
layerId = "4121B50C-FD42-45C5-8FBE-41E76D98F91E";
paths = (
{
closed = 1;
nodes = (
"415 0 LINE",
"445 359 LINE",
"393 243 LINE",
"748 705 LINE",
"506 705 LINE",
"330 467 LINE",
"371 467 LINE",
"235 705 LINE",
"-10 705 LINE",
"264 243 LINE",
"230 359 LINE",
"200 0 LINE"
);
}
);
width = 660;
},
{
anchors = (
{
name = bottom;
position = "{304, 0}";
},
{
name = top;
position = "{363, 705}";
},
{
name = topleft;
position = "{55, 705}";
}
);
layerId = "3836173C-3D8C-4FCA-AE22-DACC53398F6F";
paths = (
{
closed = 1;
nodes = (
"400 0 LINE",
"430 360 LINE",
"383 253 LINE",
"732 705 LINE",
"514 705 LINE",
"326 455 LINE",
"363 455 LINE",
"217 705 LINE",
"-4 705 LINE",
"267 253 LINE",
"236 360 LINE",
"206 0 LINE"
);
}
);
width = 650;
},
{
anchors = (
{
name = bottom;
position = "{301, 0}";
},
{
name = top;
position = "{361, 705}";
},
{
name = topleft;
position = "{55, 705}";
}
);
layerId = "2739B000-4AFC-4B52-A42C-DF57BA9D87B1";
paths = (
{
closed = 1;
nodes = (
"392 0 LINE",
"422 360 LINE",
"377 258 LINE",
"725 705 LINE",
"518 705 LINE",
"323 449 LINE",
"360 449 LINE",
"208 705 LINE",
"-1 705 LINE",
"268 258 LINE",
"239 360 LINE",
"208 0 LINE"
);
}
);
width = 645;
},
{
anchors = (
{
name = bottom;
position = "{265.994, 0}";
},
{
name = top;
position = "{327, 705}";
},
{
name = topleft;
position = "{57, 705}";
}
);
layerId = "6493C7B7-8C70-4036-9BD9-52D201B9B030";
paths = (
{
closed = 1;
nodes = (
"285 0 LINE",
"317 367 LINE",
"304 330 LINE",
"616 705 LINE",
"573 705 LINE",
"292 366 LINE",
"306 366 LINE",
"84 705 LINE",
"41 705 LINE",
"286 330 LINE",
"279 367 LINE",
"247 0 LINE"
);
}
);
width = 575;
},
{
anchors = (
{
name = bottom;
position = "{265, 0}";
},
{
name = top;
position = "{327, 705}";
},
{
name = topleft;
position = "{57, 705}";
}
);
layerId = "79B82BF0-C835-43CE-9365-7A5C6C681BA7";
paths = (
{
closed = 1;
nodes = (
"283 0 LINE",
"315 367 LINE",
"303 331 LINE",
"614 705 LINE",
"573 705 LINE",
"292 364 LINE",
"306 364 LINE",
"83 705 LINE",
"42 705 LINE",
"286 331 LINE",
"280 367 LINE",
"248 0 LINE"
);
}
);
width = 574;
}
);
leftKerningGroup = Y;
rightKerningGroup = Y;
unicode = 0059;
userData = {
anchors = (
);
b = {
};
com.typemytype.robofont.guides = (
);
com.typemytype.robofont.layerData = {
b = {
anchors = (
);
components = (
);
contours = (
{
points = (
{
segmentType = curve;
smooth = 1;
x = 641;
y = 0;
},
{
smooth = 0;
x = 685;
y = 0;
},
{
smooth = 0;
x = 730;
y = 29;
},
{
segmentType = curve;
smooth = 1;
x = 730;
y = 85;
},
{
segmentType = line;
smooth = 0;
x = 730;
y = 1285;
},
{
segmentType = line;
smooth = 1;
x = 1115;
y = 1285;
},
{
smooth = 0;
x = 1164;
y = 1285;
},
{
smooth = 0;
x = 1190;
y = 1319;
},
{
segmentType = curve;
smooth = 1;
x = 1190;
y = 1355;
},
{
smooth = 0;
x = 1190;
y = 1392;
},
{
smooth = 0;
x = 1166;
y = 1426;
},
{
segmentType = curve;
smooth = 1;
x = 1115;
y = 1426;
},
{
segmentType = line;
smooth = 1;
x = 160;
y = 1426;
},
{
smooth = 0;
x = 111;
y = 1426;
},
{
smooth = 0;
x = 86;
y = 1392;
},
{
segmentType = curve;
smooth = 1;
x = 86;
y = 1355;
},
{
smooth = 0;
x = 86;
y = 1319;
},
{
smooth = 0;
x = 111;
y = 1285;
},
{
segmentType = curve;
smooth = 1;
x = 160;
y = 1285;
},
{
segmentType = line;
smooth = 0;
x = 552;
y = 1285;
},
{
segmentType = line;
smooth = 1;
x = 552;
y = 85;
},
{
smooth = 0;
x = 552;
y = 29;
},
{
smooth = 0;
x = 596;
y = 0;
}
);
}
);
lib = {
};
name = Y;
unicodes = (
);
width = 1278;
};
};
components = (
);
contours = (
);
lib = {
};
name = Y;
unicodes = (
);
width = 1321;
};
},
{
color = 1;
glyphname = Z;
lastChange = "2019-08-05 14:22:11 +0000";
layers = (
{
anchors = (
{
name = bottom;
position = "{280, 0}";
},
{
name = top;
position = "{340, 705}";
}
);
background = {
anchors = (
{
name = bottom;
position = "{280, 0}";
},
{
name = top;
position = "{340, 705}";
}
);
paths = (
{
closed = 1;
nodes = (
"531 0 LINE",
"534 39 LINE",
"70 39 LINE",
"68 16 LINE",
"576 674 LINE",
"578 705 LINE",
"89 705 LINE",
"86 666 LINE",
"536 666 LINE",
"538 689 LINE",
"30 31 LINE",
"28 0 LINE"
);
}
);
};
layerId = "F1F93986-3ED8-4AAE-84C4-CA3EEECDDFA0";
paths = (
{
closed = 1;
nodes = (
"531 0 LINE",
"534 39 LINE",
"70 39 LINE",
"68 16 LINE",
"576 674 LINE",
"578 705 LINE",
"89 705 LINE",
"86 666 LINE",
"536 666 LINE",
"538 689 LINE",
"30 31 LINE",
"28 0 LINE"
);
}
);
width = 575;
},
{
anchors = (
{
name = bottom;
position = "{304, 0}";
},
{
name = top;
position = "{365, 705}";
}
);
background = {
anchors = (
{
name = bottom;
position = "{304, 0}";
},
{
name = top;
position = "{365, 705}";
}
);
paths = (
{
closed = 1;
nodes = (
"594 0 LINE",
"609 176 LINE",
"238 176 LINE",
"234 117 LINE",
"627 547 LINE",
"639 705 LINE",
"83 705 LINE",
"68 529 LINE",
"423 529 LINE",
"427 588 LINE",
"35 158 LINE",
"22 0 LINE"
);
}
);
};
layerId = "4121B50C-FD42-45C5-8FBE-41E76D98F91E";
paths = (
{
closed = 1;
nodes = (
"594 0 LINE",
"609 176 LINE",
"238 176 LINE",
"234 117 LINE",
"627 547 LINE",
"639 705 LINE",
"83 705 LINE",
"68 529 LINE",
"423 529 LINE",
"427 588 LINE",
"35 158 LINE",
"22 0 LINE"
);
}
);
width = 636;
},
{
anchors = (
{
name = bottom;
position = "{301, 0}";
},
{
name = top;
position = "{362, 705}";
}
);
layerId = "3836173C-3D8C-4FCA-AE22-DACC53398F6F";
paths = (
{
closed = 1;
nodes = (
"586 0 LINE",
"600 159 LINE",
"218 159 LINE",
"214 105 LINE",
"621 562 LINE",
"632 705 LINE",
"84 705 LINE",
"70 546 LINE",
"437 546 LINE",
"440 600 LINE",
"34 143 LINE",
"23 0 LINE"
);
}
);
width = 628.6506;
},
{
anchors = (
{
name = bottom;
position = "{300, 0}";
},
{
name = top;
position = "{360, 705}";
}
);
layerId = "2739B000-4AFC-4B52-A42C-DF57BA9D87B1";
paths = (
{
closed = 1;
nodes = (
"583 0 LINE",
"595 151 LINE",
"208 151 LINE",
"204 99 LINE",
"618 570 LINE",
"628 705 LINE",
"84 705 LINE",
"71 554 LINE",
"443 554 LINE",
"447 606 LINE",
"34 135 LINE",
"23 0 LINE"
);
}
);
width = 624.9759;
},
{
anchors = (
{
name = bottom;
position = "{279, 0}";
},
{
name = top;
position = "{339, 705}";
}
);
layerId = "6493C7B7-8C70-4036-9BD9-52D201B9B030";
paths = (
{
closed = 1;
nodes = (
"529 0 LINE",
"532 36 LINE",
"66 36 LINE",
"64 14 LINE",
"575 677 LINE",
"577 705 LINE",
"89 705 LINE",
"86 669 LINE",
"539 669 LINE",
"541 691 LINE",
"30 28 LINE",
"28 0 LINE"
);
}
);
width = 573.53012;
},
{
anchors = (
{
name = bottom;
position = "{279, 0}";
},
{
name = top;
position = "{339, 705}";
}
);
layerId = "79B82BF0-C835-43CE-9365-7A5C6C681BA7";
paths = (
{
closed = 1;
nodes = (
"529 0 LINE",
"531 34 LINE",
"64 34 LINE",
"62 12 LINE",
"574 679 LINE",
"576 705 LINE",
"89 705 LINE",
"87 671 LINE",
"540 671 LINE",
"542 693 LINE",
"30 26 LINE",
"28 0 LINE"
);
}
);
width = 572.79518;
}
);
leftKerningGroup = Z;
rightKerningGroup = Z;
unicode = 005A;
userData = {
anchors = (
);
b = {
};
com.typemytype.robofont.layerData = {
b = {
anchors = (
);
components = (
);
contours = (
{
points = (
{
segmentType = curve;
smooth = 1;
x = 266;
y = 0;
},
{
segmentType = line;
smooth = 1;
x = 1035;
y = 0;
},
{
smooth = 0;
x = 1084;
y = 0;
},
{
smooth = 0;
x = 1108;
y = 34;
},
{
segmentType = curve;
smooth = 1;
x = 1108;
y = 71;
},
{
smooth = 0;
x = 1108;
y = 107;
},
{
smooth = 0;
x = 1084;
y = 141;
},
{
segmentType = curve;
smooth = 1;
x = 1035;
y = 141;
},
{
segmentType = line;
smooth = 0;
x = 356;
y = 141;
},
{
segmentType = line;
smooth = 0;
x = 356;
y = 665;
},
{
segmentType = line;
smooth = 1;
x = 975;
y = 665;
},
{
smooth = 0;
x = 1024;
y = 665;
},
{
smooth = 0;
x = 1049;
y = 698;
},
{
segmentType = curve;
smooth = 1;
x = 1049;
y = 734;
},
{
smooth = 0;
x = 1049;
y = 770;
},
{
smooth = 0;
x = 1026;
y = 803;
},
{
segmentType = curve;
smooth = 1;
x = 975;
y = 803;
},
{
segmentType = line;
smooth = 0;
x = 356;
y = 803;
},
{
segmentType = line;
smooth = 0;
x = 356;
y = 1285;
},
{
segmentType = line;
smooth = 1;
x = 1007;
y = 1285;
},
{
smooth = 0;
x = 1056;
y = 1285;
},
{
smooth = 0;
x = 1080;
y = 1319;
},
{
segmentType = curve;
smooth = 1;
x = 1080;
y = 1356;
},
{
smooth = 0;
x = 1080;
y = 1392;
},
{
smooth = 0;
x = 1056;
y = 1426;
},
{
segmentType = curve;
smooth = 1;
x = 1007;
y = 1426;
},
{
segmentType = line;
smooth = 1;
x = 261;
y = 1426;
},
{
smooth = 0;
x = 213;
y = 1426;
},
{
smooth = 0;
x = 178;
y = 1383;
},
{
segmentType = curve;
smooth = 1;
x = 178;
y = 1340;
},
{
segmentType = line;
smooth = 1;
x = 178;
y = 86;
},
{
smooth = 0;
x = 178;
y = 41;
},
{
smooth = 0;
x = 222;
y = 0;
}
);
}
);
lib = {
};
name = Z;
unicodes = (
);
width = 1165;
};
};
components = (
);
contours = (
);
lib = {
};
name = Z;
unicodes = (
);
width = 1222;
};
},
{
color = 8;
glyphname = a;
lastChange = "2019-08-05 14:24:33 +0000";
layers = (
{
anchors = (
{
name = bottom;
position = "{241, 0}";
},
{
name = ogonek;
position = "{410, 0}";
},
{
name = top;
position = "{286, 484}";
}
);
background = {
anchors = (
{
name = bottom;
position = "{241, 0}";
},
{
name = ogonek;
position = "{410, 0}";
},
{
name = top;
position = "{286, 484}";
}
);
paths = (
{
closed = 1;
nodes = (
"295 -8 OFFCURVE",
"362 40 OFFCURVE",
"390 120 CURVE",
"379 121 LINE",
"369 0 LINE",
"410 0 LINE",
"437 314 LINE SMOOTH",
"438 325 OFFCURVE",
"439 336 OFFCURVE",
"439 346 CURVE SMOOTH",
"439 445 OFFCURVE",
"390 492 OFFCURVE",
"289 492 CURVE SMOOTH",
"226 492 OFFCURVE",
"154 470 OFFCURVE",
"100 434 CURVE",
"118 398 LINE",
"178 437 OFFCURVE",
"230 453 OFFCURVE",
"291 453 CURVE SMOOTH",
"363 453 OFFCURVE",
"396 420 OFFCURVE",
"396 345 CURVE SMOOTH",
"396 336 OFFCURVE",
"396 326 OFFCURVE",
"395 316 CURVE SMOOTH",
"385 202 LINE SMOOTH",
"377 104 OFFCURVE",
"306 31 OFFCURVE",
"214 31 CURVE SMOOTH",
"144 31 OFFCURVE",
"100 69 OFFCURVE",
"100 127 CURVE SMOOTH",
"100 213 OFFCURVE",
"154 238 OFFCURVE",
"361 238 CURVE SMOOTH",
"399 238 LINE",
"403 275 LINE",
"361 275 LINE SMOOTH",
"135 275 OFFCURVE",
"64 243 OFFCURVE",
"55 136 CURVE SMOOTH",
"48 56 OFFCURVE",
"116 -8 OFFCURVE",
"210 -8 CURVE SMOOTH"
);
}
);
};
layerId = "F1F93986-3ED8-4AAE-84C4-CA3EEECDDFA0";
paths = (
{
closed = 1;
nodes = (
"295 -8 OFFCURVE",
"362 40 OFFCURVE",
"390 120 CURVE",
"379 121 LINE",
"369 0 LINE",
"410 0 LINE",
"437 314 LINE SMOOTH",
"447 428 OFFCURVE",
"404 492 OFFCURVE",
"289 492 CURVE SMOOTH",
"226 492 OFFCURVE",
"154 470 OFFCURVE",
"100 434 CURVE",
"118 398 LINE",
"178 437 OFFCURVE",
"230 453 OFFCURVE",
"291 453 CURVE SMOOTH",
"372 453 OFFCURVE",
"404 409 OFFCURVE",
"395 316 CURVE SMOOTH",
"385 202 LINE SMOOTH",
"377 104 OFFCURVE",
"306 31 OFFCURVE",
"214 31 CURVE SMOOTH",
"145 31 OFFCURVE",
"101 64 OFFCURVE",
"101 131 CURVE SMOOTH",
"101 207 OFFCURVE",
"154.793 238 OFFCURVE",
"361 238 CURVE SMOOTH",
"399 238 LINE",
"403 275 LINE",
"361 275 LINE SMOOTH",
"180.59 275 OFFCURVE",
"55 255 OFFCURVE",
"55 129 CURVE SMOOTH",
"55 44 OFFCURVE",
"120.577 -8 OFFCURVE",
"210 -8 CURVE SMOOTH"
);
}
);
width = 514;
},
{
anchors = (
{
name = bottom;
position = "{268, 0}";
},
{
name = ogonek;
position = "{501, 10}";
},
{
name = top;
position = "{312, 494}";
}
);
background = {
anchors = (
{
name = bottom;
position = "{266, 0}";
},
{
name = ogonek;
position = "{486, 0}";
},
{
name = top;
position = "{313, 484}";
}
);
paths = (
{
closed = 1;
nodes = (
"272 -12 OFFCURVE",
"321 23 OFFCURVE",
"335 83 CURVE",
"330 87 LINE",
"323 0 LINE",
"516 0 LINE",
"540 272 LINE SMOOTH",
"541 283 OFFCURVE",
"541 294 OFFCURVE",
"541 304 CURVE SMOOTH",
"541 440 OFFCURVE",
"461 506 OFFCURVE",
"296 506 CURVE SMOOTH",
"220 506 OFFCURVE",
"111 481 OFFCURVE",
"57 446 CURVE",
"100 303 LINE",
"161 335 OFFCURVE",
"230 352 OFFCURVE",
"283 352 CURVE SMOOTH",
"335 352 OFFCURVE",
"350 344 OFFCURVE",
"347 306 CURVE SMOOTH",
"337 198 LINE SMOOTH",
"333 156 OFFCURVE",
"295 125 OFFCURVE",
"253 125 CURVE SMOOTH",
"222 125 OFFCURVE",
"210 137 OFFCURVE",
"210 153 CURVE SMOOTH",
"210 184 OFFCURVE",
"247 201 OFFCURVE",
"300 201 CURVE SMOOTH",
"356 201 LINE",
"365 301 LINE",
"304 301 LINE SMOOTH",
"102 301 OFFCURVE",
"23 265 OFFCURVE",
"14 161 CURVE SMOOTH",
"5 62 OFFCURVE",
"81 -12 OFFCURVE",
"203 -12 CURVE SMOOTH"
);
}
);
};
color = 11;
layerId = "4121B50C-FD42-45C5-8FBE-41E76D98F91E";
paths = (
{
closed = 1;
nodes = (
"272 -12 OFFCURVE",
"321 23 OFFCURVE",
"335 83 CURVE",
"330 87 LINE",
"323 0 LINE",
"516 0 LINE",
"540 272 LINE SMOOTH",
"555 435 OFFCURVE",
"465 506 OFFCURVE",
"296 506 CURVE SMOOTH",
"220 506 OFFCURVE",
"111 481 OFFCURVE",
"57 446 CURVE SMOOTH",
"100 303 LINE SMOOTH",
"161 335 OFFCURVE",
"230 352 OFFCURVE",
"283 352 CURVE SMOOTH",
"335 352 OFFCURVE",
"350 344 OFFCURVE",
"347 306 CURVE SMOOTH",
"337 198 LINE SMOOTH",
"333 156 OFFCURVE",
"295 125 OFFCURVE",
"253 125 CURVE SMOOTH",
"222 125 OFFCURVE",
"210 137 OFFCURVE",
"210 155 CURVE SMOOTH",
"210 184 OFFCURVE",
"247 201 OFFCURVE",
"300 201 CURVE SMOOTH",
"356 201 LINE",
"365 301 LINE",
"304 301 LINE SMOOTH",
"93 301 OFFCURVE",
"13 258 OFFCURVE",
"13 145 CURVE SMOOTH",
"13 54 OFFCURVE",
"88 -12 OFFCURVE",
"203 -12 CURVE SMOOTH"
);
}
);
width = 580;
},
{
anchors = (
{
name = bottom;
position = "{257, 0}";
},
{
name = ogonek;
position = "{465, 0}";
},
{
name = top;
position = "{305, 494}";
}
);
associatedMasterId = "4121B50C-FD42-45C5-8FBE-41E76D98F91E";
background = {
paths = (
{
closed = 1;
nodes = (
"276 -12 OFFCURVE",
"323 27 OFFCURVE",
"331 87 CURVE",
"326 90 LINE",
"326 0 LINE",
"519 0 LINE",
"519 276 LINE SMOOTH",
"519 434 OFFCURVE",
"442 506 OFFCURVE",
"282 506 CURVE SMOOTH",
"201 506 OFFCURVE",
"102 479 OFFCURVE",
"43 444 CURVE",
"94 309 LINE",
"143 338 OFFCURVE",
"212 356 OFFCURVE",
"256 356 CURVE SMOOTH",
"306 356 OFFCURVE",
"323 343 OFFCURVE",
"323 306 CURVE SMOOTH",
"323 199 LINE SMOOTH",
"323 154 OFFCURVE",
"295 125 OFFCURVE",
"259 125 CURVE SMOOTH",
"235 125 OFFCURVE",
"220 143 OFFCURVE",
"220 166 CURVE SMOOTH",
"220 193 OFFCURVE",
"249 206 OFFCURVE",
"301 206 CURVE SMOOTH",
"342 206 LINE",
"342 297 LINE",
"295 297 LINE SMOOTH",
"100 297 OFFCURVE",
"23 257 OFFCURVE",
"23 152 CURVE SMOOTH",
"23 57 OFFCURVE",
"101 -12 OFFCURVE",
"206 -12 CURVE SMOOTH"
);
}
);
};
color = 11;
layerId = "D200CD17-29E7-4DDF-9668-3D8B72725EE2";
name = "Bold [177]";
paths = (
{
closed = 1;
nodes = (
"273 -12 OFFCURVE",
"322 23 OFFCURVE",
"336 83 CURVE",
"331 87 LINE",
"324 0 LINE",
"517 0 LINE",
"541 272 LINE SMOOTH",
"560 427 OFFCURVE",
"468 506 OFFCURVE",
"297 506 CURVE SMOOTH",
"216 506 OFFCURVE",
"109 479 OFFCURVE",
"58 446 CURVE SMOOTH",
"102 307 LINE SMOOTH",
"160 337 OFFCURVE",
"229 356 OFFCURVE",
"284 356 CURVE SMOOTH",
"338 356 OFFCURVE",
"351 347 OFFCURVE",
"348 310 CURVE SMOOTH",
"338 194 LINE SMOOTH",
"334 153 OFFCURVE",
"297 121 OFFCURVE",
"254 121 CURVE SMOOTH",
"224 121 OFFCURVE",
"211 132 OFFCURVE",
"211 157 CURVE SMOOTH",
"211 185 OFFCURVE",
"250 206 OFFCURVE",
"301 206 CURVE SMOOTH",
"358 206 LINE",
"366 297 LINE",
"305 297 LINE SMOOTH",
"91 297 OFFCURVE",
"14 257 OFFCURVE",
"14 145 CURVE SMOOTH",
"14 52 OFFCURVE",
"91 -12 OFFCURVE",
"204 -12 CURVE SMOOTH"
);
}
);
width = 581;
},
{
anchors = (
{
name = bottom;
position = "{250, 0}";
},
{
name = ogonek;
position = "{453, 0}";
},
{
name = top;
position = "{298, 493}";
}
);
layerId = "3836173C-3D8C-4FCA-AE22-DACC53398F6F";
paths = (
{
closed = 1;
nodes = (
"271 -12 OFFCURVE",
"322 25 OFFCURVE",
"338 87 CURVE",
"332 91 LINE",
"325 0 LINE",
"499 0 LINE",
"524 277 LINE SMOOTH",
"542 427 OFFCURVE",
"455 504 OFFCURVE",
"291 504 CURVE SMOOTH",
"212 504 OFFCURVE",
"110 478 OFFCURVE",
"58 445 CURVE",
"99 318 LINE",
"157 349 OFFCURVE",
"224 368 OFFCURVE",
"280 368 CURVE SMOOTH",
"337 368 OFFCURVE",
"353 354 OFFCURVE",
"349 311 CURVE SMOOTH",
"339 195 LINE SMOOTH",
"334 147 OFFCURVE",
"293 110 OFFCURVE",
"244 110 CURVE SMOOTH",
"210 110 OFFCURVE",
"193 124 OFFCURVE",
"193 154 CURVE SMOOTH",
"193 188 OFFCURVE",
"234 210 OFFCURVE",
"303 210 CURVE SMOOTH",
"358 210 LINE",
"366 294 LINE",
"307 294 LINE SMOOTH",
"97 294 OFFCURVE",
"14 257 OFFCURVE",
"14 143 CURVE SMOOTH",
"14 51 OFFCURVE",
"90 -12 OFFCURVE",
"200 -12 CURVE SMOOTH"
);
}
);
width = 564;
},
{
anchors = (
{
name = bottom;
position = "{247, 0}";
},
{
name = ogonek;
position = "{448, 0}";
},
{
name = top;
position = "{295, 492}";
}
);
layerId = "2739B000-4AFC-4B52-A42C-DF57BA9D87B1";
paths = (
{
closed = 1;
nodes = (
"270 -11 OFFCURVE",
"322 26 OFFCURVE",
"339 90 CURVE",
"333 93 LINE",
"325 0 LINE",
"491 0 LINE",
"515 280 LINE SMOOTH",
"533 427 OFFCURVE",
"449 503 OFFCURVE",
"289 503 CURVE SMOOTH",
"211 503 OFFCURVE",
"110 477 OFFCURVE",
"59 444 CURVE",
"98 323 LINE",
"156 355 OFFCURVE",
"222 374 OFFCURVE",
"278 374 CURVE SMOOTH",
"337 374 OFFCURVE",
"354 358 OFFCURVE",
"349 311 CURVE SMOOTH",
"339 195 LINE SMOOTH",
"335 144 OFFCURVE",
"292 105 OFFCURVE",
"240 105 CURVE SMOOTH",
"203 105 OFFCURVE",
"184 120 OFFCURVE",
"184 152 CURVE SMOOTH",
"184 189 OFFCURVE",
"226 212 OFFCURVE",
"305 212 CURVE SMOOTH",
"358 212 LINE",
"366 293 LINE",
"308 293 LINE SMOOTH",
"100 293 OFFCURVE",
"14 257 OFFCURVE",
"14 142 CURVE SMOOTH",
"14 51 OFFCURVE",
"89 -11 OFFCURVE",
"198 -11 CURVE SMOOTH"
);
}
);
width = 555;
},
{
anchors = (
{
name = bottom;
position = "{240, 0}";
},
{
name = ogonek;
position = "{407, 0}";
},
{
name = top;
position = "{285, 484}";
}
);
layerId = "6493C7B7-8C70-4036-9BD9-52D201B9B030";
paths = (
{
closed = 1;
nodes = (
"295 -8 OFFCURVE",
"362 40 OFFCURVE",
"390 121 CURVE",
"379 122 LINE",
"369 0 LINE",
"407 0 LINE",
"434 315 LINE SMOOTH",
"443 428 OFFCURVE",
"402 492 OFFCURVE",
"288 492 CURVE SMOOTH",
"225 492 OFFCURVE",
"154 470 OFFCURVE",
"100 434 CURVE",
"118 400 LINE",
"178 439 OFFCURVE",
"229 455 OFFCURVE",
"290 455 CURVE SMOOTH",
"372 455 OFFCURVE",
"404 411 OFFCURVE",
"395 316 CURVE SMOOTH",
"385 202 LINE SMOOTH",
"377 103 OFFCURVE",
"305 29 OFFCURVE",
"212 29 CURVE SMOOTH",
"142 29 OFFCURVE",
"97 62 OFFCURVE",
"97 130 CURVE SMOOTH",
"97 208 OFFCURVE",
"152 239 OFFCURVE",
"362 239 CURVE SMOOTH",
"399 239 LINE",
"403 274 LINE",
"361 274 LINE SMOOTH",
"182 274 OFFCURVE",
"55 255 OFFCURVE",
"55 129 CURVE SMOOTH",
"55 44 OFFCURVE",
"120 -8 OFFCURVE",
"209 -8 CURVE SMOOTH"
);
}
);
width = 511;
},
{
anchors = (
{
name = bottom;
position = "{238, 0}";
},
{
name = ogonek;
position = "{405, 0}";
},
{
name = top;
position = "{283, 484}";
}
);
layerId = "79B82BF0-C835-43CE-9365-7A5C6C681BA7";
paths = (
{
closed = 1;
nodes = (
"294 -8 OFFCURVE",
"362 41 OFFCURVE",
"390 121 CURVE",
"379 122 LINE",
"369 0 LINE",
"404 0 LINE",
"431 316 LINE SMOOTH",
"441 428 OFFCURVE",
"400 492 OFFCURVE",
"287 492 CURVE SMOOTH",
"224 492 OFFCURVE",
"154 470 OFFCURVE",
"100 434 CURVE",
"117 401 LINE",
"177 441 OFFCURVE",
"228 457 OFFCURVE",
"289 457 CURVE SMOOTH",
"371 457 OFFCURVE",
"404 411 OFFCURVE",
"395 316 CURVE SMOOTH",
"385 202 LINE SMOOTH",
"377 102 OFFCURVE",
"305 28 OFFCURVE",
"211 28 CURVE SMOOTH",
"140 28 OFFCURVE",
"95 61 OFFCURVE",
"95 130 CURVE SMOOTH",
"95 208 OFFCURVE",
"150 239 OFFCURVE",
"361 239 CURVE SMOOTH",
"399 239 LINE",
"402 274 LINE",
"361 274 LINE SMOOTH",
"182 274 OFFCURVE",
"55 255 OFFCURVE",
"55 128 CURVE SMOOTH",
"55 44 OFFCURVE",
"120 -8 OFFCURVE",
"208 -8 CURVE SMOOTH"
);
}
);
width = 508;
}
);
leftKerningGroup = a;
rightKerningGroup = n;
rightMetricsKey = n;
unicode = 0061;
userData = {
anchors = (
);
b = {
};
com.typemytype.robofont.layerData = {
b = {
anchors = (
);
components = (
);
contours = (
);
lib = {
};
name = a;
unicodes = (
);
width = 1040;
};
};
components = (
);
contours = (
);
lib = {
};
name = a;
unicodes = (
);
width = 1101;
};
},
{
color = 1;
glyphname = ae;
lastChange = "2019-08-05 14:22:11 +0000";
layers = (
{
anchors = (
{
name = bottom;
position = "{395, 0}";
},
{
name = top;
position = "{437, 484}";
}
);
background = {
anchors = (
{
name = bottom;
position = "{395, 0}";
},
{
name = top;
position = "{437, 484}";
}
);
paths = (
{
closed = 1;
nodes = (
"808 237 LINE",
"810 259 LINE SMOOTH",
"811 271 OFFCURVE",
"812 283 OFFCURVE",
"812 294 CURVE SMOOTH",
"812 418 OFFCURVE",
"747 492 OFFCURVE",
"636 492 CURVE SMOOTH",
"541 492 OFFCURVE",
"466 444 OFFCURVE",
"425 355 CURVE",
"445 353 LINE",
"440 443 OFFCURVE",
"393 492 OFFCURVE",
"291 492 CURVE SMOOTH",
"225 492 OFFCURVE",
"154 470 OFFCURVE",
"100 434 CURVE",
"118 399 LINE",
"178 438 OFFCURVE",
"230 453 OFFCURVE",
"293 453 CURVE SMOOTH",
"366 453 OFFCURVE",
"401 420 OFFCURVE",
"401 342 CURVE SMOOTH",
"401 333 OFFCURVE",
"401 323 OFFCURVE",
"400 313 CURVE SMOOTH",
"391 209 LINE SMOOTH",
"382 106 OFFCURVE",
"312 31 OFFCURVE",
"216 31 CURVE SMOOTH",
"4 31 OFFCURVE",
"59 237 OFFCURVE",
"361 237 CURVE SMOOTH",
"403 237 LINE",
"407 274 LINE",
"361 274 LINE SMOOTH",
"6 274 OFFCURVE",
"-61 -8 OFFCURVE",
"212 -8 CURVE SMOOTH",
"314 -8 OFFCURVE",
"390 56 OFFCURVE",
"415 159 CURVE",
"397 161 LINE",
"413 51 OFFCURVE",
"487 -8 OFFCURVE",
"603 -8 CURVE SMOOTH",
"668 -8 OFFCURVE",
"741 17 OFFCURVE",
"785 59 CURVE",
"767 94 LINE",
"712 50 OFFCURVE",
"660 31 OFFCURVE",
"600 31 CURVE SMOOTH",
"493 31 OFFCURVE",
"435 95 OFFCURVE",
"435 209 CURVE SMOOTH",
"435 219 OFFCURVE",
"436 230 OFFCURVE",
"437 242 CURVE SMOOTH",
"437 249 LINE SMOOTH",
"448 372 OFFCURVE",
"524 454 OFFCURVE",
"632 454 CURVE SMOOTH",
"726 454 OFFCURVE",
"773 393 OFFCURVE",
"773 294 CURVE SMOOTH",
"773 284 OFFCURVE",
"773 274 OFFCURVE",
"772 264 CURVE",
"789 274 LINE",
"431 274 LINE",
"427 237 LINE"
);
}
);
};
layerId = "F1F93986-3ED8-4AAE-84C4-CA3EEECDDFA0";
paths = (
{
closed = 1;
nodes = (
"808 237 LINE",
"810 259 LINE SMOOTH",
"811 271 OFFCURVE",
"812 283 OFFCURVE",
"812 294 CURVE SMOOTH",
"812 418 OFFCURVE",
"747 492 OFFCURVE",
"636 492 CURVE SMOOTH",
"541 492 OFFCURVE",
"466 444 OFFCURVE",
"425 355 CURVE",
"445 353 LINE",
"440 443 OFFCURVE",
"393 492 OFFCURVE",
"291 492 CURVE SMOOTH",
"225 492 OFFCURVE",
"154 470 OFFCURVE",
"100 434 CURVE",
"118 399 LINE",
"178 438 OFFCURVE",
"230 453 OFFCURVE",
"293 453 CURVE SMOOTH",
"366 453 OFFCURVE",
"401 420 OFFCURVE",
"401 342 CURVE SMOOTH",
"401 333 OFFCURVE",
"401 323 OFFCURVE",
"400 313 CURVE SMOOTH",
"391 209 LINE SMOOTH",
"382 106 OFFCURVE",
"312 31 OFFCURVE",
"216 31 CURVE SMOOTH",
"4 31 OFFCURVE",
"59 237 OFFCURVE",
"361 237 CURVE SMOOTH",
"403 237 LINE",
"407 274 LINE",
"361 274 LINE SMOOTH",
"6 274 OFFCURVE",
"-61 -8 OFFCURVE",
"212 -8 CURVE SMOOTH",
"314 -8 OFFCURVE",
"390 56 OFFCURVE",
"415 159 CURVE",
"397 161 LINE",
"413 51 OFFCURVE",
"487 -8 OFFCURVE",
"603 -8 CURVE SMOOTH",
"668 -8 OFFCURVE",
"741 17 OFFCURVE",
"785 59 CURVE",
"767 94 LINE",
"712 50 OFFCURVE",
"660 31 OFFCURVE",
"600 31 CURVE SMOOTH",
"493 31 OFFCURVE",
"435 95 OFFCURVE",
"435 209 CURVE SMOOTH",
"435 219 OFFCURVE",
"436 230 OFFCURVE",
"437 242 CURVE SMOOTH",
"437 249 LINE SMOOTH",
"448 372 OFFCURVE",
"524 454 OFFCURVE",
"632 454 CURVE SMOOTH",
"726 454 OFFCURVE",
"773 393 OFFCURVE",
"773 294 CURVE SMOOTH",
"773 284 OFFCURVE",
"773 274 OFFCURVE",
"772 264 CURVE",
"789 274 LINE",
"431 274 LINE",
"427 237 LINE"
);
}
);
width = 857;
},
{
anchors = (
{
name = bottom;
position = "{392, 0}";
},
{
name = top;
position = "{434, 484}";
}
);
background = {
anchors = (
{
name = bottom;
position = "{392, 0}";
},
{
name = top;
position = "{434, 484}";
}
);
paths = (
{
closed = 1;
nodes = (
"848 199 LINE",
"852 242 LINE SMOOTH",
"853 252 OFFCURVE",
"853 263 OFFCURVE",
"853 273 CURVE SMOOTH",
"853 414 OFFCURVE",
"763 506 OFFCURVE",
"618 506 CURVE SMOOTH",
"551 506 OFFCURVE",
"493 489 OFFCURVE",
"446 442 CURVE",
"486 436 LINE",
"453 485 OFFCURVE",
"380 506 OFFCURVE",
"296 506 CURVE SMOOTH",
"220 506 OFFCURVE",
"111 481 OFFCURVE",
"57 446 CURVE",
"100 303 LINE",
"161 335 OFFCURVE",
"230 352 OFFCURVE",
"283 352 CURVE SMOOTH",
"329 352 OFFCURVE",
"345 342 OFFCURVE",
"342 308 CURVE SMOOTH",
"332 196 LINE SMOOTH",
"328 156 OFFCURVE",
"298 125 OFFCURVE",
"253 125 CURVE SMOOTH",
"222 125 OFFCURVE",
"210 137 OFFCURVE",
"210 153 CURVE SMOOTH",
"210 184 OFFCURVE",
"247 201 OFFCURVE",
"300 201 CURVE SMOOTH",
"348 201 LINE",
"357 301 LINE",
"309 301 LINE SMOOTH",
"102 301 OFFCURVE",
"23 265 OFFCURVE",
"14 161 CURVE SMOOTH",
"5 62 OFFCURVE",
"81 -12 OFFCURVE",
"220 -12 CURVE SMOOTH",
"314 -12 OFFCURVE",
"382 23 OFFCURVE",
"417 95 CURVE",
"390 101 LINE",
"426 28 OFFCURVE",
"508 -12 OFFCURVE",
"620 -12 CURVE SMOOTH",
"690 -12 OFFCURVE",
"772 8 OFFCURVE",
"829 43 CURVE",
"786 183 LINE",
"743 157 OFFCURVE",
"682 140 OFFCURVE",
"629 140 CURVE SMOOTH",
"563 140 OFFCURVE",
"534 159 OFFCURVE",
"534 225 CURVE SMOOTH",
"534 234 OFFCURVE",
"534 242 OFFCURVE",
"535 252 CURVE SMOOTH",
"536 262 LINE SMOOTH",
"542 336 OFFCURVE",
"574 370 OFFCURVE",
"624 370 CURVE SMOOTH",
"667 370 OFFCURVE",
"685 346 OFFCURVE",
"682 290 CURVE",
"703 300 LINE",
"529 300 LINE",
"520 199 LINE"
);
}
);
};
color = 11;
layerId = "4121B50C-FD42-45C5-8FBE-41E76D98F91E";
paths = (
{
closed = 1;
nodes = (
"848 199 LINE",
"852 242 LINE SMOOTH",
"853 252 OFFCURVE",
"853 263 OFFCURVE",
"853 273 CURVE SMOOTH",
"853 414 OFFCURVE",
"763 506 OFFCURVE",
"618 506 CURVE SMOOTH",
"551 506 OFFCURVE",
"493 489 OFFCURVE",
"446 442 CURVE",
"486 436 LINE",
"453 485 OFFCURVE",
"380 506 OFFCURVE",
"296 506 CURVE SMOOTH",
"220 506 OFFCURVE",
"111 481 OFFCURVE",
"57 446 CURVE",
"100 303 LINE",
"161 335 OFFCURVE",
"230 352 OFFCURVE",
"283 352 CURVE SMOOTH",
"329 352 OFFCURVE",
"345 342 OFFCURVE",
"342 308 CURVE SMOOTH",
"332 196 LINE SMOOTH",
"328 156 OFFCURVE",
"298 125 OFFCURVE",
"253 125 CURVE SMOOTH",
"222 125 OFFCURVE",
"210 137 OFFCURVE",
"210 153 CURVE SMOOTH",
"210 184 OFFCURVE",
"247 201 OFFCURVE",
"300 201 CURVE SMOOTH",
"348 201 LINE",
"357 301 LINE",
"309 301 LINE SMOOTH",
"102 301 OFFCURVE",
"23 265 OFFCURVE",
"14 161 CURVE SMOOTH",
"5 62 OFFCURVE",
"81 -12 OFFCURVE",
"220 -12 CURVE SMOOTH",
"314 -12 OFFCURVE",
"382 23 OFFCURVE",
"417 95 CURVE",
"390 101 LINE",
"426 28 OFFCURVE",
"508 -12 OFFCURVE",
"620 -12 CURVE SMOOTH",
"690 -12 OFFCURVE",
"772 8 OFFCURVE",
"829 43 CURVE",
"786 183 LINE",
"743 157 OFFCURVE",
"682 140 OFFCURVE",
"629 140 CURVE SMOOTH",
"563 140 OFFCURVE",
"534 159 OFFCURVE",
"534 225 CURVE SMOOTH",
"534 234 OFFCURVE",
"534 242 OFFCURVE",
"535 252 CURVE SMOOTH",
"536 262 LINE SMOOTH",
"542 336 OFFCURVE",
"574 370 OFFCURVE",
"624 370 CURVE SMOOTH",
"667 370 OFFCURVE",
"685 346 OFFCURVE",
"682 290 CURVE",
"703 300 LINE",
"529 300 LINE",
"520 199 LINE"
);
}
);
width = 873;
},
{
anchors = (
{
name = bottom;
position = "{414, 0}";
},
{
name = top;
position = "{414, 494}";
}
);
associatedMasterId = "4121B50C-FD42-45C5-8FBE-41E76D98F91E";
background = {
paths = (
{
closed = 1;
nodes = (
"853 206 LINE",
"853 246 LINE SMOOTH",
"853 404 OFFCURVE",
"754 506 OFFCURVE",
"601 506 CURVE SMOOTH",
"532 506 OFFCURVE",
"474 486 OFFCURVE",
"431 439 CURVE",
"472 439 LINE",
"434 488 OFFCURVE",
"361 506 OFFCURVE",
"279 506 CURVE SMOOTH",
"201 506 OFFCURVE",
"93 479 OFFCURVE",
"42 444 CURVE",
"93 309 LINE",
"152 341 OFFCURVE",
"219 356 OFFCURVE",
"269 356 CURVE SMOOTH",
"319 356 OFFCURVE",
"337 343 OFFCURVE",
"337 309 CURVE SMOOTH",
"337 192 LINE SMOOTH",
"337 148 OFFCURVE",
"309 121 OFFCURVE",
"270 121 CURVE SMOOTH",
"235 121 OFFCURVE",
"219 138 OFFCURVE",
"219 162 CURVE SMOOTH",
"219 189 OFFCURVE",
"250 206 OFFCURVE",
"302 206 CURVE SMOOTH",
"353 206 LINE",
"353 297 LINE",
"308 297 LINE SMOOTH",
"101 297 OFFCURVE",
"22 261 OFFCURVE",
"22 154 CURVE SMOOTH",
"22 58 OFFCURVE",
"102 -12 OFFCURVE",
"238 -12 CURVE SMOOTH",
"335 -12 OFFCURVE",
"401 26 OFFCURVE",
"430 98 CURVE",
"402 98 LINE",
"444 25 OFFCURVE",
"529 -12 OFFCURVE",
"638 -12 CURVE SMOOTH",
"711 -12 OFFCURVE",
"791 10 OFFCURVE",
"845 45 CURVE",
"795 181 LINE",
"754 155 OFFCURVE",
"697 139 OFFCURVE",
"646 139 CURVE SMOOTH",
"563 139 OFFCURVE",
"534 168 OFFCURVE",
"534 256 CURVE SMOOTH",
"534 341 OFFCURVE",
"558 373 OFFCURVE",
"611 373 CURVE SMOOTH",
"658 373 OFFCURVE",
"683 347 OFFCURVE",
"683 286 CURVE",
"698 297 LINE",
"525 297 LINE",
"525 206 LINE"
);
}
);
};
color = 11;
layerId = "FEBA298E-5D66-484A-843B-B9E14629DD9D";
name = "Bold [177]";
paths = (
{
closed = 1;
nodes = (
"853 206 LINE",
"853 246 LINE SMOOTH",
"853 404 OFFCURVE",
"754 506 OFFCURVE",
"601 506 CURVE SMOOTH",
"532 506 OFFCURVE",
"474 486 OFFCURVE",
"431 439 CURVE",
"472 439 LINE",
"434 488 OFFCURVE",
"361 506 OFFCURVE",
"279 506 CURVE SMOOTH",
"201 506 OFFCURVE",
"93 479 OFFCURVE",
"42 444 CURVE",
"93 309 LINE",
"152 341 OFFCURVE",
"219 356 OFFCURVE",
"269 356 CURVE SMOOTH",
"319 356 OFFCURVE",
"337 343 OFFCURVE",
"337 309 CURVE SMOOTH",
"337 192 LINE SMOOTH",
"337 148 OFFCURVE",
"309 121 OFFCURVE",
"270 121 CURVE SMOOTH",
"235 121 OFFCURVE",
"219 138 OFFCURVE",
"219 162 CURVE SMOOTH",
"219 189 OFFCURVE",
"250 206 OFFCURVE",
"302 206 CURVE SMOOTH",
"353 206 LINE",
"353 297 LINE",
"308 297 LINE SMOOTH",
"101 297 OFFCURVE",
"22 261 OFFCURVE",
"22 154 CURVE SMOOTH",
"22 58 OFFCURVE",
"102 -12 OFFCURVE",
"238 -12 CURVE SMOOTH",
"335 -12 OFFCURVE",
"401 26 OFFCURVE",
"430 98 CURVE",
"402 98 LINE",
"444 25 OFFCURVE",
"529 -12 OFFCURVE",
"638 -12 CURVE SMOOTH",
"711 -12 OFFCURVE",
"791 10 OFFCURVE",
"845 45 CURVE",
"795 181 LINE",
"754 155 OFFCURVE",
"697 139 OFFCURVE",
"646 139 CURVE SMOOTH",
"563 139 OFFCURVE",
"534 168 OFFCURVE",
"534 256 CURVE SMOOTH",
"534 263 LINE SMOOTH",
"534 341 OFFCURVE",
"560 373 OFFCURVE",
"611 373 CURVE SMOOTH",
"658 373 OFFCURVE",
"683 347 OFFCURVE",
"683 286 CURVE",
"698 297 LINE",
"525 297 LINE",
"525 206 LINE"
);
}
);
width = 873;
},
{
layerId = "3836173C-3D8C-4FCA-AE22-DACC53398F6F";
width = 871.07229;
},
{
layerId = "2739B000-4AFC-4B52-A42C-DF57BA9D87B1";
width = 870.10843;
},
{
layerId = "6493C7B7-8C70-4036-9BD9-52D201B9B030";
width = 856.61446;
},
{
layerId = "79B82BF0-C835-43CE-9365-7A5C6C681BA7";
width = 856.42169;
}
);
leftKerningGroup = a;
leftMetricsKey = a;
rightKerningGroup = e;
rightMetricsKey = e;
unicode = 00E6;
userData = {
com.typemytype.robofont.layerData = {
b = {
anchors = (
);
components = (
);
contours = (
);
lib = {
};
name = ae;
unicodes = (
);
width = 1734;
};
};
};
},
{
color = 1;
glyphname = a.ss01;
lastChange = "2019-08-05 14:22:11 +0000";
layers = (
{
anchors = (
{
name = bottom;
position = "{259, 0}";
},
{
name = ogonek;
position = "{462, 0}";
},
{
name = top;
position = "{301, 484}";
}
);
background = {
anchors = (
{
name = bottom;
position = "{259, 0}";
},
{
name = ogonek;
position = "{462, 0}";
},
{
name = top;
position = "{301, 484}";
}
);
paths = (
{
closed = 1;
nodes = (
"343 -8 OFFCURVE",
"411 41 OFFCURVE",
"442 125 CURVE",
"431 126 LINE",
"420 0 LINE",
"462 0 LINE",
"504 484 LINE",
"462 484 LINE",
"451 358 LINE",
"462 357 LINE",
"446 441 OFFCURVE",
"385 492 OFFCURVE",
"290 492 CURVE SMOOTH",
"92 492 OFFCURVE",
"52 301 OFFCURVE",
"52 210 CURVE SMOOTH",
"52 76 OFFCURVE",
"126 -8 OFFCURVE",
"249 -8 CURVE SMOOTH"
);
},
{
closed = 1;
nodes = (
"150 31 OFFCURVE",
"94 93 OFFCURVE",
"94 207 CURVE SMOOTH",
"94 330 OFFCURVE",
"151 453 OFFCURVE",
"289 453 CURVE SMOOTH",
"386 453 OFFCURVE",
"444 389 OFFCURVE",
"444 276 CURVE SMOOTH",
"444 157 OFFCURVE",
"390 31 OFFCURVE",
"248 31 CURVE SMOOTH"
);
}
);
};
layerId = "F1F93986-3ED8-4AAE-84C4-CA3EEECDDFA0";
paths = (
{
closed = 1;
nodes = (
"343 -8 OFFCURVE",
"411 41 OFFCURVE",
"442 125 CURVE",
"431 126 LINE",
"420 0 LINE",
"462 0 LINE",
"504 484 LINE",
"462 484 LINE",
"451 358 LINE",
"462 357 LINE",
"446 441 OFFCURVE",
"385 492 OFFCURVE",
"290 492 CURVE SMOOTH",
"92 492 OFFCURVE",
"52 301 OFFCURVE",
"52 210 CURVE SMOOTH",
"52 76 OFFCURVE",
"126 -8 OFFCURVE",
"249 -8 CURVE SMOOTH"
);
},
{
closed = 1;
nodes = (
"150 31 OFFCURVE",
"94 93 OFFCURVE",
"94 207 CURVE SMOOTH",
"94 330 OFFCURVE",
"151 453 OFFCURVE",
"289 453 CURVE SMOOTH",
"386 453 OFFCURVE",
"444 389 OFFCURVE",
"444 276 CURVE SMOOTH",
"444 157 OFFCURVE",
"390 31 OFFCURVE",
"248 31 CURVE SMOOTH"
);
}
);
width = 568;
},
{
anchors = (
{
name = bottom;
position = "{293, 0}";
},
{
name = ogonek;
position = "{536, 0}";
},
{
name = top;
position = "{335, 484}";
}
);
background = {
anchors = (
{
name = bottom;
position = "{293, 0}";
},
{
name = ogonek;
position = "{536, 0}";
},
{
name = top;
position = "{335, 484}";
}
);
paths = (
{
closed = 1;
nodes = (
"290 -12 OFFCURVE",
"357 23 OFFCURVE",
"379 78 CURVE",
"368 81 LINE",
"361 0 LINE",
"566 0 LINE",
"609 494 LINE",
"404 494 LINE",
"398 421 LINE",
"405 418 LINE",
"390 467 OFFCURVE",
"327 506 OFFCURVE",
"257 506 CURVE SMOOTH",
"134 506 OFFCURVE",
"38 410 OFFCURVE",
"24 254 CURVE SMOOTH",
"23 242 OFFCURVE",
"22 231 OFFCURVE",
"22 220 CURVE SMOOTH",
"22 78 OFFCURVE",
"104 -12 OFFCURVE",
"222 -12 CURVE SMOOTH"
);
},
{
closed = 1;
nodes = (
"257 140 OFFCURVE",
"231 158 OFFCURVE",
"231 217 CURVE SMOOTH",
"231 224 OFFCURVE",
"231 231 OFFCURVE",
"232 239 CURVE SMOOTH",
"239 322 OFFCURVE",
"276 354 OFFCURVE",
"322 354 CURVE SMOOTH",
"358 354 OFFCURVE",
"384 335 OFFCURVE",
"384 275 CURVE SMOOTH",
"384 268 OFFCURVE",
"384 261 OFFCURVE",
"383 253 CURVE SMOOTH",
"376 170 OFFCURVE",
"339 140 OFFCURVE",
"294 140 CURVE SMOOTH"
);
}
);
};
layerId = "4121B50C-FD42-45C5-8FBE-41E76D98F91E";
paths = (
{
closed = 1;
nodes = (
"290 -12 OFFCURVE",
"357 23 OFFCURVE",
"379 78 CURVE",
"368 81 LINE",
"361 0 LINE",
"566 0 LINE",
"609 494 LINE",
"404 494 LINE",
"398 421 LINE",
"405 418 LINE",
"390 467 OFFCURVE",
"327 506 OFFCURVE",
"257 506 CURVE SMOOTH",
"134 506 OFFCURVE",
"38 410 OFFCURVE",
"24 254 CURVE SMOOTH",
"23 242 OFFCURVE",
"22 231 OFFCURVE",
"22 220 CURVE SMOOTH",
"22 78 OFFCURVE",
"104 -12 OFFCURVE",
"222 -12 CURVE SMOOTH"
);
},
{
closed = 1;
nodes = (
"257 140 OFFCURVE",
"231 158 OFFCURVE",
"231 217 CURVE SMOOTH",
"231 224 OFFCURVE",
"231 231 OFFCURVE",
"232 239 CURVE SMOOTH",
"239 322 OFFCURVE",
"276 354 OFFCURVE",
"322 354 CURVE SMOOTH",
"358 354 OFFCURVE",
"384 335 OFFCURVE",
"384 275 CURVE SMOOTH",
"384 268 OFFCURVE",
"384 261 OFFCURVE",
"383 253 CURVE SMOOTH",
"376 170 OFFCURVE",
"339 140 OFFCURVE",
"294 140 CURVE SMOOTH"
);
}
);
width = 632;
},
{
layerId = "3836173C-3D8C-4FCA-AE22-DACC53398F6F";
width = 624.28916;
},
{
layerId = "2739B000-4AFC-4B52-A42C-DF57BA9D87B1";
width = 620.43373;
},
{
layerId = "6493C7B7-8C70-4036-9BD9-52D201B9B030";
width = 566.45783;
},
{
layerId = "79B82BF0-C835-43CE-9365-7A5C6C681BA7";
width = 565.68675;
}
);
leftKerningGroup = o;
leftMetricsKey = o;
rightKerningGroup = u;
rightMetricsKey = "=|n";
userData = {
anchors = (
);
b = {
};
com.typemytype.robofont.layerData = {
b = {
anchors = (
);
components = (
);
contours = (
);
lib = {
};
name = p;
unicodes = (
);
width = 1181;
};
};
components = (
);
contours = (
);
lib = {
};
name = p;
unicodes = (
);
width = 1207;
};
},
